<?xml version="1.0" encoding="utf-8"?>
<!-- Generator: Adobe Illustrator 24.3.0, SVG Export Plug-In . SVG Version: 6.00 Build 0)  -->
<svg version="1.1" id="Calque_1" xmlns="http://www.w3.org/2000/svg" xmlns:xlink="http://www.w3.org/1999/xlink" x="0px" y="0px"
	 viewBox="0 0 112 112" style="enable-background:new 0 0 112 112;" xml:space="preserve">
<style type="text/css">
	.st0{fill:#061326;}
	.st1{fill:url(#SVGID_1_);}
	.st2{fill:#FEFEFE;}
	.st3{fill:#1799DF;}
	.st4{fill:#CD4054;}
	.st5{fill:#1F201E;}
	.st6{fill:url(#SVGID_2_);}
	.st7{fill:url(#SVGID_3_);}
</style>
<g>
	<ellipse class="st0" cx="55.1" cy="102" rx="52.7" ry="8.1"/>
	<g>
		
			<radialGradient id="SVGID_1_" cx="58.0514" cy="-69.2001" r="46.5798" gradientTransform="matrix(0.9609 0.277 -0.277 0.9609 -21.6116 95.0813)" gradientUnits="userSpaceOnUse">
			<stop  offset="0" style="stop-color:#00BF0C"/>
			<stop  offset="1" style="stop-color:#007F1D"/>
		</radialGradient>
		<path class="st1" d="M110,71.9c-0.9-5.1-3-9.9-6.1-14.3c-0.6-0.8-1.1-1.6-1.7-2.3c-1.7-2.1-3.6-4.1-5.5-6
			c-1.5-1.5-2.9-3.2-4.3-4.8c-0.6-0.8-1.3-1.6-1.9-2.5c-1.6-2.4-3.3-4.7-4.5-7.2c-1-1.7-1.8-3.5-2.6-5.2c-1.4-3.2-2.5-6.5-3.4-9.8
			c-0.3-1.1-0.9-2.1-2.2-2.4c-1.3-0.4-2.3,0.1-3.2,0.9c-1.4,1.3-2.9,2.6-4.5,3.8C63,27.6,54.8,31.7,45.4,34
			c-3.8,0.9-7.6,1.9-11.1,3.5c-3.8,1.7-7.2,3.8-10.2,6.5c-1.8,1.6-3.5,3.2-4.6,5.2l0,0c-0.1,0.1-0.2,0.2-0.3,0.4
			c-2.3,3.3-3.7,7-4.3,10.9c-0.8,5.6,0.1,11.1,3,16.4c0,0.3,0.2,0.5,0.4,0.7c0.6,1,1.3,1.9,1.8,2.9c0.1,0.1,0.2,0.3,0.3,0.4
			c3.8,5.3,8.6,9.5,14.4,13c9.8,5.9,20.5,9.3,31.9,10.8c7.6,1,15.1,0.6,22.3-1.5C104.2,98.8,112.5,86.4,110,71.9z"/>
		<path class="st0" d="M52.8,103.5c-6.8-2-13.1-4.7-19-8.2C27.7,91.6,22.7,87,19,81.9c-0.1-0.2-0.2-0.3-0.3-0.5c0,0,0-0.1-0.1-0.1
			l0,0c-0.5-0.9-1-1.8-1.7-2.8c-0.2-0.3-0.5-0.6-0.6-1.1c-2.8-5.4-3.9-11.2-3-17.1c0.6-4.2,2.1-8.1,4.5-11.6
			c0.1-0.2,0.3-0.3,0.4-0.4c1.3-2.2,3.2-4,4.8-5.4c3-2.7,6.6-4.9,10.6-6.7c3.7-1.6,7.6-2.7,11.3-3.6c8.8-2.1,17-6.1,24.3-11.8
			c1.5-1.2,3-2.4,4.4-3.7c1.4-1.3,2.9-1.7,4.6-1.2c0,0,0,0,0,0c1.2,0.3,2.7,1.2,3.3,3.5c0.9,3.3,2,6.5,3.3,9.6
			c0.7,1.6,1.5,3.4,2.5,5.1l0.1,0.1c1,2.1,2.3,4,3.7,6c0.2,0.4,0.5,0.7,0.7,1.1c0.4,0.5,0.8,1.1,1.2,1.6c0.2,0.3,0.4,0.5,0.6,0.8
			c0.4,0.5,0.9,1,1.3,1.4c1,1.1,1.9,2.2,2.9,3.2c1.8,1.9,3.8,4,5.5,6.2c0.4,0.6,0.8,1.1,1.2,1.7c0.2,0.2,0.3,0.5,0.5,0.7
			c3.3,4.7,5.4,9.7,6.3,14.9l0,0c1.3,7.5-0.1,14.6-4.1,20.6c-4,5.9-10.2,10.2-18.1,12.5c-7,2.1-14.7,2.6-23,1.5
			C61.6,105.7,57.1,104.7,52.8,103.5z M21.3,79.8c0,0.1,0.1,0.1,0.1,0.2c0,0,0.1,0.1,0.1,0.1c3.4,4.8,8.1,9.1,13.9,12.6
			c9.2,5.6,19.7,9.1,31.3,10.6c7.9,1,15,0.5,21.7-1.4c14.6-4.3,22.5-15.9,20.1-29.7l0,0c-0.8-4.8-2.8-9.4-5.8-13.6
			c-0.2-0.3-0.4-0.5-0.5-0.8c-0.4-0.5-0.7-1-1.1-1.5c-1.7-2.1-3.6-4.1-5.4-5.9c-1.1-1.1-2.1-2.2-3-3.3c-0.4-0.5-0.9-1-1.3-1.5
			l-0.1-0.1c-0.2-0.3-0.4-0.5-0.6-0.8c-0.5-0.6-0.9-1.2-1.4-1.8c-0.2-0.4-0.5-0.7-0.7-1.1c-1.4-2-2.8-4.1-3.9-6.3
			c-1.1-1.8-1.9-3.7-2.6-5.4c-1.4-3.2-2.5-6.6-3.4-10c-0.2-0.9-0.7-1.2-1.2-1.3c-0.5-0.1-1-0.1-1.7,0.5c-1.5,1.4-3,2.7-4.6,3.9
			c-7.7,6-16.2,10.1-25.4,12.4c-3.6,0.9-7.4,1.8-10.8,3.4c-3.8,1.7-7.1,3.8-9.8,6.2c-1.6,1.4-3.2,3-4.3,4.9l-0.1,0.2l-0.1,0.1
			c0,0.1-0.1,0.1-0.2,0.2c0,0,0,0-0.1,0.1c-2.1,3.1-3.5,6.5-4,10.2c-0.8,5.4,0.2,10.6,2.8,15.4l0.1,0.3l0,0.2c0,0,0,0,0,0l0.1,0.1
			l0.1,0.1C20.2,77.8,20.8,78.8,21.3,79.8z M19.3,76.5L19.3,76.5L19.3,76.5z"/>
		<path class="st2" d="M74.7,75.5c-6.1-2.5-9.2-11.9-3-17.5c5.3-4,12.2-1.4,14.8,3.9c0.1,0.3,0.3,0.5,0.4,0.8
			c0.8,2.3,1.1,4.6,0.4,6.9c-1.5,5.1-6.3,7.8-11.4,6.3C75.6,75.8,75.1,75.6,74.7,75.5z"/>
		<path class="st0" d="M75.8,76.6C75.8,76.6,75.8,76.6,75.8,76.6c-0.3-0.1-0.6-0.2-0.9-0.3l-0.5-0.1c-3.4-1.4-6-4.8-6.7-8.8
			c-0.6-3.8,0.6-7.4,3.5-10l0,0c2.5-1.9,5.5-2.5,8.5-1.8c3.2,0.7,6,3,7.5,6c0.1,0.2,0.2,0.3,0.3,0.5c0,0.1,0.1,0.2,0.1,0.2l0,0.1
			l0,0.1c0.9,2.8,1,5.1,0.4,7.4c-0.8,2.7-2.5,4.8-4.7,6.1C81.1,77.1,78.4,77.4,75.8,76.6z M75,74.8l0.4,0.1c0.3,0.1,0.6,0.2,0.8,0.3
			c0,0,0,0,0,0c2.2,0.6,4.5,0.4,6.4-0.6c1.9-1.1,3.4-2.9,4-5.2c0.6-2,0.5-4-0.3-6.4c0-0.1-0.1-0.1-0.1-0.2c-0.1-0.2-0.2-0.4-0.3-0.5
			c-1.3-2.6-3.7-4.5-6.5-5.2c-2.5-0.6-5.1,0-7.2,1.6c-2.5,2.2-3.6,5.3-3,8.6C69.8,70.6,72.1,73.6,75,74.8z"/>
		<path class="st3" d="M60.8,81c-0.8,0-1.6-0.3-2.3-0.7C59.2,80.5,60,80.8,60.8,81z"/>
		<path class="st2" d="M61.8,59.2c-0.7,3.5-2.5,6.2-5.8,7.8c-4.3,2.1-8.3,1.5-12-1.6c-3.6-4.1-3.2-10,0.9-13.7
			c3.4-3.1,9.4-4.5,14.3-0.3C61.3,53.6,61.9,56.3,61.8,59.2z"/>
		<path class="st0" d="M48.2,68.7c-1.6-0.5-3.2-1.3-4.7-2.6L43.4,66c-3.9-4.4-3.5-10.7,0.9-14.8c3.8-3.5,10.2-4.7,15.3-0.3l0,0
			c2.1,2.1,3,4.8,2.8,8.3l0,0.1c-0.8,3.9-2.9,6.7-6.2,8.4C53.5,69.1,50.8,69.5,48.2,68.7z M44.5,65c3.5,2.9,7.1,3.4,11.1,1.4
			c2.8-1.4,4.6-3.9,5.3-7.3c0.2-3-0.6-5.3-2.4-7.1c-4.4-3.8-10-2.7-13.2,0.3C41.7,55.8,41.3,61.2,44.5,65z"/>
		<path class="st0" d="M81.2,64.9c-0.6,2.1-2.7,3.3-4.9,2.7c-2.4-0.7-3.8-3.3-3.1-5.7c0.6-2.1,2.8-3.3,4.9-2.7
			C80.4,59.9,81.9,62.5,81.2,64.9z"/>
		<path class="st0" d="M54.9,56.7c-0.7,2.4-3.3,3.8-5.6,3.1c-2.1-0.6-3.3-2.7-2.7-4.9c0.7-2.4,3.3-3.8,5.7-3.1
			C54.4,52.4,55.6,54.5,54.9,56.7z"/>
		<g>
			<path class="st0" d="M89.8,81.3c-1.1-2-3.5-2.8-5.7-2c-1.4,0.6-2.7,1.1-4.2,1.6c-6.4,1.8-12.8,2-19.2,0.2
				c-1.7-0.4-1.4-0.3-4.6-1.4C53,78.6,45,73.6,41,68.5c-0.9-1.1-1.6-2.4-2.8-3.3c-1.9-0.9-3.7-0.8-5.3,0.6c-1.5,1.3-1.9,3.1-1.3,5
				c0.2,0.5,0.5,1,0.7,1.4c1.2,1.4,2.2,2.9,3.5,4.3c7,7.7,15.8,12.3,26,14.2c8.6,1.6,17,0.8,25.1-2.6c0.7-0.3,1.4-0.5,1.9-1.1
				c0,0,0,0,0,0c0,0,0,0,0,0C90.5,85.6,90.9,83.3,89.8,81.3z"/>
			<path class="st4" d="M80.1,89.5c0.7-2.3-0.9-5.1-4.1-7.7c-5.1,0.9-10.2,0.7-15.2-0.7c-1.7-0.4-1.4-0.3-4.6-1.4
				c-2.2-0.8-6.9-3.5-10.8-6.8c-4.2,0.5-7.1,2-7.8,4.4c-0.1,0.3-0.1,0.6-0.1,0.9c6.7,6.7,14.9,10.7,24.4,12.5
				c6.1,1.1,12.1,1.1,17.9-0.3C79.9,90.1,80,89.8,80.1,89.5z"/>
			<path class="st0" d="M45,74.2c4,3.3,8.5,5.9,10.8,6.7c1.5,0.5,2.3,0.8,2.9,0.9c0.4,0.1,0.7,0.2,1,0.3c0.2,0.1,0.5,0.1,0.8,0.2
				c5,1.4,10.1,1.7,15.2,0.9c2.5,2.2,3.7,4.4,3.2,6c0,0,0,0.1,0,0.1c-5.4,1.1-11,1.2-16.8,0.1c-1.7-0.3-3.3-0.7-4.8-1.1
				c-7.1-2-13.2-5.6-18.4-10.5c0,0,0-0.1,0-0.1C39.3,76,41.5,74.8,45,74.2 M45.4,72.9c-4.2,0.5-7.1,2-7.8,4.4
				c-0.1,0.3-0.1,0.6-0.1,0.9c5.5,5.5,12,9.2,19.4,11.3c1.6,0.5,3.3,0.9,5,1.2c6.1,1.1,12.1,1.1,17.9-0.3c0.2-0.3,0.3-0.6,0.4-0.9
				c0.7-2.3-0.9-5.1-4.1-7.7c-5.1,0.9-10.2,0.7-15.2-0.7c-0.9-0.2-1.2-0.3-1.8-0.4c-0.5-0.2-1.3-0.4-2.8-0.9
				C54,78.9,49.3,76.2,45.4,72.9L45.4,72.9z"/>
		</g>
	</g>
	<g>
		<g>
			<path class="st5" d="M36.7,93.7l4-1.1l1.1-4l-2.9-3l-4,1.1l-1.1,4L36.7,93.7 M22.5,5.7l0.9,0.9l6.2,6.3l-3.1,11.4l-11.4,3
				l-8.3-8.4l2.3-8.5l0.3-1.3l-1,0.9c-5.2,4.5-7.4,11.5-5.6,18.2C4.6,34.6,9.7,39.5,16.2,41l14.4,54.5c0.7,2.8,3.6,4.4,6.4,3.7
				l6.3-1.7c2.8-0.7,4.4-3.6,3.7-6.4L32.5,36.7c4.9-4.5,6.8-11.3,5.1-17.7c-1.8-6.7-7.1-11.7-13.8-13L22.5,5.7L22.5,5.7z M35.2,87.1
				l3.6-0.9l2.6,2.6l-1,3.6l-3.6,0.9l-2.6-2.6L35.2,87.1L35.2,87.1z"/>
			<path class="st0" d="M47.2,97.9c-0.9,0.9-2.1,1.6-3.4,1.9l-6.3,1.7c-1.9,0.5-4,0.2-5.7-0.8c-1.7-1-3-2.6-3.5-4.6L14.2,42.9
				C7.6,40.9,2.5,35.5,0.7,28.8c-2-7.5,0.4-15.4,6.3-20.5l6.8-5.9L9.5,18.2l6.4,6.5l8.8-2.3l2.4-8.8L15.5,1.9l8.8,1.8
				c7.7,1.5,13.7,7.2,15.6,14.7c1.8,6.8,0,14-4.8,19l14.1,53.2c0.5,1.9,0.2,4-0.8,5.7C48.1,97,47.7,97.5,47.2,97.9z M32.2,92.5
				l0.7,2.5c0.2,0.7,0.7,1.4,1.3,1.8c0.7,0.4,1.4,0.5,2.2,0.3l6.3-1.7c0.7-0.2,1.4-0.7,1.8-1.3c0.4-0.7,0.5-1.4,0.3-2.2L44,89.4
				l-1.4,5.2L36,96.3L32.2,92.5z M32.9,84.8l6.6-1.8l3.8,3.8L29.9,36l1-1c4.2-3.9,5.9-9.9,4.5-15.4c-0.6-2.4-1.8-4.6-3.4-6.4
				l-3.5,13l-14,3.7L5,20.3c-0.5,2.3-0.4,4.8,0.2,7.2c1.5,5.6,5.9,9.9,11.5,11.2l1.4,0.3L31.5,90L32.9,84.8z M37.5,90.7l1-0.3l0.3-1
				L38,88.7L37,89l-0.3,1L37.5,90.7z"/>
		</g>
		
			<radialGradient id="SVGID_2_" cx="111.7472" cy="259.8115" r="46.7203" gradientTransform="matrix(0.9669 -0.2553 0.2553 0.9669 -137.4258 -157.9911)" gradientUnits="userSpaceOnUse">
			<stop  offset="0" style="stop-color:#B2B2B2"/>
			<stop  offset="1" style="stop-color:#575756"/>
		</radialGradient>
		<path class="st6" d="M23.7,6.3l6.4,6.4l-3.2,11.8l-11.9,3.1L6.4,19l2.4-8.7c-4.9,4.3-7.3,11.1-5.5,17.8c1.7,6.6,7,11.3,13.2,12.7
			l14.5,54.8c0.7,2.6,3.3,4.1,5.9,3.4l6.3-1.7c2.6-0.7,4.1-3.3,3.4-5.9L32.1,36.6c4.7-4.3,6.9-10.9,5.2-17.5
			C35.5,12.4,30.1,7.6,23.7,6.3z M40.7,92.7l-4,1.1l-2.9-3l1.1-4l4-1.1l2.9,3L40.7,92.7z"/>
		
			<radialGradient id="SVGID_3_" cx="106.8376" cy="215.2478" r="46.0945" gradientTransform="matrix(0.9669 -0.2553 0.2553 0.9669 -137.4258 -157.9911)" gradientUnits="userSpaceOnUse">
			<stop  offset="0" style="stop-color:#B2B2B2"/>
			<stop  offset="1" style="stop-color:#575756"/>
		</radialGradient>
		<path class="st7" d="M32.1,13.4c1.5,1.8,2.7,3.9,3.3,6.2c1.5,5.6-0.3,11.6-4.6,15.5l-0.9,0.8l0.3,1.2l13.3,50.3l-0.2-0.2l-2.9-3
			l-0.8-0.8l-1.1,0.3l-4,1.1l-1.1,0.3l-0.3,1.1l-1.1,4l-0.1,0.3L18.4,40.2L18.1,39l-1.2-0.3c-5.7-1.3-10.2-5.6-11.7-11.2
			c-0.6-2.4-0.7-4.8-0.2-7.1l8.6,8.7l0.8,0.8l1.1-0.3l11.9-3.1l1.1-0.3l0.3-1.1L32.1,13.4 M43.8,88.9l0.8,3c0.4,1.5-0.5,3-2,3.4
			l-6.3,1.7c-1.5,0.4-3-0.5-3.4-2l-0.8-3l0.2,0.2l2.9,3l0.8,0.8l1.1-0.3l4-1.1l1.1-0.3l0.3-1.1l1.1-4L43.8,88.9 M23.7,6.3l6.4,6.4
			l-3.2,11.8l-11.9,3.1L6.4,19l2.4-8.7c-4.9,4.3-7.3,11.1-5.5,17.8c1.7,6.6,7,11.3,13.2,12.7l14.5,54.8c0.7,2.6,3.3,4.1,5.9,3.4
			l6.3-1.7c2.6-0.7,4.1-3.3,3.4-5.9L32.1,36.6c4.7-4.3,6.9-10.9,5.2-17.5C35.5,12.4,30.1,7.6,23.7,6.3L23.7,6.3z M36.7,93.7l-2.9-3
			l1.1-4l4-1.1l2.9,3l-1.1,4L36.7,93.7L36.7,93.7z"/>
	</g>
</g>
</svg>
