<?xml version="1.0" encoding="utf-8"?>
<!-- Generator: Adobe Illustrator 24.3.0, SVG Export Plug-In . SVG Version: 6.00 Build 0)  -->
<svg version="1.1" id="Calque_1" xmlns="http://www.w3.org/2000/svg" xmlns:xlink="http://www.w3.org/1999/xlink" x="0px" y="0px"
	 viewBox="0 0 19 19" style="enable-background:new 0 0 19 19;" xml:space="preserve">
<style type="text/css">
	.st0{fill:#B3E3F2;}
	.st1{fill:url(#SVGID_1_);}
	.st2{fill:url(#SVGID_2_);}
	.st3{opacity:0.16;fill:url(#SVGID_3_);}
	.st4{opacity:0.16;fill:url(#SVGID_4_);}
	.st5{opacity:0.16;fill:url(#SVGID_5_);}
	.st6{opacity:0.16;fill:url(#SVGID_6_);}
	.st7{opacity:0.16;fill:url(#SVGID_7_);}
	.st8{fill:#FFFFFF;}
	.st9{fill:url(#SVGID_8_);}
	.st10{fill:url(#SVGID_9_);}
	.st11{fill:#061326;}
	.st12{fill:url(#SVGID_10_);}
	.st13{fill:url(#SVGID_11_);}
	.st14{opacity:0.16;fill:url(#SVGID_12_);}
	.st15{opacity:0.16;fill:url(#SVGID_13_);}
	.st16{opacity:0.16;fill:url(#SVGID_14_);}
	.st17{opacity:0.16;fill:url(#SVGID_15_);}
	.st18{opacity:0.16;fill:url(#SVGID_16_);}
	.st19{fill:url(#SVGID_17_);}
	.st20{fill:url(#SVGID_18_);}
	.st21{fill:url(#SVGID_19_);}
	.st22{fill:url(#SVGID_20_);}
	.st23{opacity:0.16;fill:url(#SVGID_21_);}
	.st24{opacity:0.16;fill:url(#SVGID_22_);}
	.st25{opacity:0.16;fill:url(#SVGID_23_);}
	.st26{opacity:0.16;fill:url(#SVGID_24_);}
	.st27{opacity:0.16;fill:url(#SVGID_25_);}
	.st28{fill:url(#SVGID_26_);}
	.st29{fill:url(#SVGID_27_);}
</style>
<g>
	<path class="st11" d="M8.19,6.36L8.3,9.37L7.72,9.4L7.63,7.02L7.09,7.11L7.07,6.72l0.02-0.01C7.38,6.63,7.57,6.5,7.75,6.39
		l0.01-0.01L8.19,6.36 M8.74,5.77L8.17,5.79L7.74,5.81L7.61,5.81L7.49,5.88L7.48,5.88L7.46,5.89L7.44,5.91
		C7.27,6.02,7.13,6.1,6.92,6.17l-0.01,0L6.48,6.3L6.5,6.74l0.01,0.38l0.02,0.65l0.54-0.09l0.06,1.73l0.02,0.57l0.57-0.02l0.59-0.02
		L8.9,9.93L8.88,9.35L8.76,6.34L8.74,5.77L8.74,5.77z"/>
	<path class="st11" d="M9.73,6.23c0.58,0,0.95,0.35,0.97,0.9c0.02,0.53-0.45,1.08-1.01,1.7c0.15-0.02,0.32-0.04,0.46-0.04l0.76-0.03
		l0.02,0.5l-2.1,0.08L8.82,8.99l0-0.01c0.81-0.83,1.33-1.36,1.31-1.8C10.12,6.88,9.95,6.7,9.66,6.7c-0.01,0-0.02,0-0.03,0
		C9.4,6.71,9.21,6.86,9.06,7.05L9.04,7.07L8.7,6.75l0.01-0.01c0.26-0.3,0.53-0.49,0.97-0.5C9.7,6.23,9.72,6.23,9.73,6.23 M9.73,5.66
		c-0.02,0-0.05,0-0.07,0c-0.71,0.03-1.1,0.38-1.37,0.69L8.28,6.36L7.89,6.78l0.42,0.39l0.34,0.32l0.42,0.39l0.17-0.18
		C9,7.97,8.67,8.31,8.41,8.57L8.34,8.65L8.3,8.74l0,0.01L8.24,8.87l0,0.13l0.01,0.34l0.02,0.57L8.85,9.9l2.1-0.08l0.57-0.02
		L11.5,9.23l-0.02-0.5l-0.02-0.57l-0.51,0.02c0.21-0.35,0.34-0.7,0.33-1.07C11.24,6.25,10.61,5.66,9.73,5.66L9.73,5.66z"/>
	<path class="st11" d="M13.29,6.85l-0.65,1.18l0.79,1.1L12.8,9.16l-0.32-0.45l0,0c-0.08-0.12-0.16-0.26-0.24-0.37
		c-0.06,0.13-0.13,0.25-0.19,0.39L11.8,9.2l-0.61,0.02L11.89,8l-0.74-1.07l0.63-0.02l0.29,0.44c0.07,0.11,0.15,0.24,0.22,0.36
		c0.05-0.12,0.11-0.25,0.16-0.37l0.22-0.46L13.29,6.85 M14.29,6.24l-1.01,0.04L12.66,6.3l-0.34,0.01l-0.1,0.21l-0.13-0.2l-0.32,0.01
		l-0.63,0.02L10.09,6.4l0.59,0.86l0.53,0.77l-0.52,0.91l-0.52,0.9l1.03-0.04l0.61-0.02l0.34-0.01l0.15-0.29l0.02,0.02l0.18,0.26
		l0.31-0.01l0.63-0.02l1.06-0.04L13.9,8.8l-0.58-0.81l0.48-0.87L14.29,6.24L14.29,6.24z"/>
	<path class="st11" d="M15.34,6.1l0.07,1.76l0.37-0.01l0.02,0.46l-0.37,0.01l0.03,0.76l-0.56,0.02l-0.03-0.76l-1.34,0.05L13.5,8
		l1.14-1.88L15.34,6.1 M14.81,6.69c-0.07,0.14-0.14,0.27-0.21,0.41l0,0L14.1,7.91l0.74-0.03l-0.02-0.65
		C14.81,7.09,14.81,6.85,14.81,6.69 M15.89,5.51l-0.57,0.02l-0.69,0.03l-0.31,0.01l-0.16,0.26L13.01,7.7l-0.09,0.15l0.01,0.17
		l0.01,0.39l0.02,0.57l0.57-0.02l0.77-0.03l0.01,0.19l0.02,0.57l0.57-0.02l0.56-0.02l0.57-0.02l-0.02-0.57l-0.01-0.19l0.37-0.01
		l-0.02-0.57l-0.02-0.46l-0.02-0.57l-0.37,0.01l-0.04-1.19L15.89,5.51L15.89,5.51z"/>
	<path class="st11" d="M17.31,5.95c0.35,0,0.61,0.14,0.79,0.32l0.01,0.01L17.8,6.65l-0.02-0.02c-0.1-0.12-0.28-0.2-0.45-0.2
		c-0.01,0-0.01,0-0.02,0c-0.36,0.01-0.65,0.27-0.67,1.03c0.18-0.2,0.42-0.32,0.63-0.33c0.02,0,0.03,0,0.05,0
		c0.51,0,0.87,0.29,0.89,0.9c0.02,0.6-0.4,1-0.94,1.02c-0.02,0-0.03,0-0.05,0c-0.6,0-1.1-0.45-1.14-1.41
		c-0.04-1.16,0.51-1.67,1.16-1.69C17.27,5.95,17.29,5.95,17.31,5.95 M17.23,8.6c0.01,0,0.01,0,0.02,0c0.24-0.01,0.43-0.2,0.42-0.54
		c-0.01-0.32-0.18-0.48-0.46-0.48c-0.01,0-0.02,0-0.03,0c-0.17,0.01-0.36,0.1-0.52,0.34C16.74,8.4,16.95,8.6,17.23,8.6 M17.31,5.38
		c-0.02,0-0.05,0-0.07,0c-0.51,0.02-0.96,0.25-1.27,0.64c-0.32,0.41-0.46,0.96-0.44,1.64c0.05,1.45,0.95,1.96,1.71,1.96
		c0.02,0,0.04,0,0.07,0c0.42-0.02,0.8-0.18,1.07-0.47c0.28-0.3,0.43-0.7,0.42-1.14c-0.02-0.46-0.18-0.84-0.46-1.09l0.23-0.28
		l0.34-0.42l-0.4-0.37l-0.01-0.01C18.17,5.54,17.76,5.38,17.31,5.38L17.31,5.38z"/>
	<path class="st11" d="M1.53,4.87c0.25,0,0.45,0.14,0.54,0.4C2.18,5.58,2,6.02,1.78,6.5c0.09-0.04,0.19-0.09,0.27-0.12l0.46-0.17
		l0.11,0.3L1.35,6.98L1.27,6.78l0-0.01c0.34-0.67,0.55-1.1,0.45-1.36C1.67,5.27,1.58,5.19,1.46,5.19c-0.04,0-0.08,0.01-0.13,0.03
		C1.19,5.27,1.1,5.4,1.04,5.54L1.04,5.55L0.76,5.43l0.01-0.01c0.1-0.24,0.23-0.4,0.49-0.5C1.36,4.88,1.44,4.87,1.53,4.87 M1.53,4.29
		c-0.15,0-0.3,0.03-0.46,0.08c-0.5,0.18-0.71,0.54-0.82,0.8l0,0L0,5.7l0.52,0.25l0.27,0.13l0.15,0.07C0.88,6.27,0.82,6.4,0.76,6.51
		l-0.05,0.1L0.7,6.71L0.69,6.84l0.04,0.13l0.08,0.21L1,7.72l0.54-0.19l1.27-0.46l0.54-0.19L3.16,6.33l-0.11-0.3L2.85,5.49L2.67,5.55
		c0.01-0.16-0.01-0.32-0.07-0.48C2.43,4.59,2.02,4.29,1.53,4.29L1.53,4.29z"/>
	<path class="st11" d="M3.08,4.32c0.22,0,0.4,0.11,0.48,0.33c0.07,0.2,0.01,0.38-0.15,0.52c0.01,0,0.02,0,0.04,0
		c0.21,0,0.4,0.1,0.48,0.32c0.12,0.33-0.1,0.63-0.47,0.76C3.33,6.29,3.21,6.31,3.11,6.31c-0.15,0-0.27-0.04-0.38-0.1L2.72,6.21
		l0.09-0.29l0.02,0.01C2.91,5.97,3.01,6,3.12,6c0.06,0,0.13-0.01,0.2-0.04c0.2-0.07,0.3-0.21,0.24-0.37
		C3.52,5.49,3.45,5.42,3.3,5.42c-0.09,0-0.22,0.03-0.38,0.08L2.91,5.51l-0.1-0.27l0.02-0.01C3.19,5.11,3.26,4.95,3.2,4.8
		c-0.04-0.1-0.11-0.16-0.21-0.16c-0.04,0-0.08,0.01-0.13,0.02c-0.14,0.05-0.23,0.16-0.3,0.3L2.55,4.97L2.28,4.82l0.01-0.01
		C2.4,4.61,2.54,4.46,2.77,4.38C2.88,4.34,2.98,4.32,3.08,4.32 M3.08,3.74c-0.16,0-0.33,0.03-0.5,0.09
		c-0.33,0.12-0.6,0.35-0.79,0.69L1.78,4.55L1.77,4.57L1.76,4.58L1.55,5.05l0.44,0.26l0.26,0.16l0.03,0.02l0.03,0.07L2.26,5.75
		L2.17,6.05L2.03,6.52l0.45,0.21c0.2,0.1,0.41,0.16,0.64,0.16c0.18,0,0.36-0.03,0.54-0.1c0.69-0.25,1.04-0.88,0.81-1.5
		C4.4,5.11,4.29,4.96,4.15,4.84c0.01-0.13-0.02-0.26-0.06-0.39C3.94,4.01,3.55,3.74,3.08,3.74L3.08,3.74z"/>
	<path class="st11" d="M4.75,4.79l0.1,0.27l-0.7,0.25l-0.1-0.27L4.75,4.79 M5.1,4.06L4.56,4.25L3.86,4.5L3.32,4.7l0.19,0.54
		l0.1,0.27L3.8,6.04l0.54-0.19l0.7-0.25L5.58,5.4L5.39,4.86L5.29,4.6L5.1,4.06L5.1,4.06z"/>
	<path class="st11" d="M5.52,3.41c0.23,0,0.4,0.12,0.48,0.35c0.07,0.18,0,0.38-0.09,0.5C6.12,4.3,6.31,4.38,6.4,4.62
		c0.1,0.28-0.07,0.59-0.45,0.73c-0.1,0.04-0.21,0.06-0.3,0.06c-0.24,0-0.44-0.12-0.52-0.33C5.04,4.85,5.14,4.64,5.27,4.49
		C5.1,4.44,4.94,4.35,4.88,4.16c-0.11-0.3,0.06-0.58,0.39-0.7C5.36,3.43,5.44,3.41,5.52,3.41 M5.68,4.25C5.74,4.11,5.76,4,5.72,3.9
		C5.68,3.78,5.59,3.71,5.48,3.71c-0.04,0-0.07,0.01-0.11,0.02C5.22,3.78,5.15,3.91,5.2,4.05C5.26,4.22,5.45,4.24,5.68,4.25
		 M5.71,5.12c0.05,0,0.1-0.01,0.15-0.03c0.18-0.06,0.26-0.2,0.2-0.36C5.99,4.55,5.78,4.55,5.5,4.54C5.41,4.66,5.37,4.8,5.42,4.93
		C5.47,5.05,5.58,5.12,5.71,5.12 M5.52,2.84c-0.15,0-0.3,0.03-0.45,0.08C4.44,3.15,4.12,3.76,4.34,4.35
		c0.04,0.11,0.1,0.23,0.21,0.35C4.5,4.89,4.51,5.08,4.58,5.27c0.16,0.44,0.56,0.71,1.06,0.71c0.16,0,0.33-0.03,0.5-0.09
		c0.67-0.24,1.01-0.87,0.8-1.46C6.88,4.27,6.78,4.1,6.6,3.95c0-0.13-0.01-0.26-0.06-0.39C6.38,3.12,5.99,2.84,5.52,2.84L5.52,2.84z"
		/>
	<path class="st11" d="M7.03,2.87c0.23,0,0.4,0.12,0.48,0.35c0.07,0.18,0,0.38-0.09,0.5c0.2,0.04,0.39,0.12,0.48,0.36
		C8,4.37,7.83,4.67,7.45,4.81c-0.1,0.04-0.21,0.06-0.3,0.06c-0.24,0-0.44-0.12-0.52-0.33C6.54,4.31,6.65,4.1,6.78,3.95
		C6.6,3.9,6.45,3.81,6.38,3.61c-0.11-0.3,0.06-0.58,0.39-0.7C6.86,2.89,6.95,2.87,7.03,2.87 M7.18,3.7
		c0.06-0.13,0.08-0.24,0.04-0.35C7.18,3.24,7.09,3.17,6.98,3.17c-0.04,0-0.07,0.01-0.11,0.02C6.73,3.24,6.65,3.37,6.71,3.51
		C6.77,3.68,6.95,3.7,7.18,3.7 M7.21,4.58c0.05,0,0.1-0.01,0.15-0.03c0.18-0.06,0.26-0.2,0.2-0.36C7.5,4.01,7.29,4.01,7,4
		C6.92,4.12,6.88,4.26,6.93,4.39C6.97,4.51,7.08,4.58,7.21,4.58 M7.03,2.3c-0.15,0-0.3,0.03-0.45,0.08
		C5.95,2.61,5.63,3.22,5.84,3.81c0.04,0.11,0.1,0.23,0.21,0.35C6.01,4.35,6.02,4.54,6.09,4.73c0.16,0.44,0.56,0.71,1.06,0.71
		c0.16,0,0.33-0.03,0.5-0.09c0.67-0.24,1.01-0.87,0.8-1.46C8.38,3.73,8.28,3.55,8.11,3.41c0-0.13-0.01-0.26-0.06-0.39
		C7.89,2.58,7.49,2.3,7.03,2.3L7.03,2.3z"/>
	<path class="st11" d="M6.7,15.04l0.27,0.9l-0.18,0.05l-0.21-0.71l-0.16,0.07l-0.03-0.11l0.01,0c0.08-0.05,0.13-0.1,0.17-0.15l0,0
		L6.7,15.04 M7.08,14.33l-0.55,0.16l-0.13,0.04l-0.12,0.04l-0.09,0.08l-0.02,0.02l-0.02,0.03c-0.03,0.04-0.04,0.04-0.05,0.05
		l-0.37,0.23l0.12,0.42l0.03,0.11l0.18,0.62l0.16-0.07l0.03,0.09L6.4,16.7l0.55-0.16l0.18-0.05l0.55-0.16l-0.16-0.55l-0.27-0.9
		L7.08,14.33L7.08,14.33z"/>
	<path class="st11" d="M7.85,14.92l0.04,0.13l-0.65,0.19l-0.04-0.13L7.85,14.92 M7.95,15.23l0.04,0.13l-0.65,0.19L7.3,15.42
		L7.95,15.23 M8.24,14.21l-0.55,0.16l-0.65,0.19l-0.55,0.16l0.09,0.31l0,0l0.16,0.55l0.04,0.13l0.16,0.55L7.5,16.1l0.65-0.19
		l0.55-0.16L8.6,15.44l0,0l-0.16-0.55L8.4,14.75L8.24,14.21L8.24,14.21z"/>
	<path class="st11" d="M8.75,14.4c0.19,0,0.35,0.13,0.42,0.36c0.07,0.25,0.01,0.45-0.17,0.55c0.04,0.03,0.08,0.04,0.13,0.04
		c0.03,0,0.06-0.01,0.1-0.02c0.04-0.01,0.07-0.03,0.09-0.04l0.01,0l0.07,0.12l0,0c-0.03,0.02-0.08,0.05-0.14,0.07
		c-0.05,0.01-0.1,0.02-0.14,0.02c-0.13,0-0.23-0.05-0.31-0.14c-0.02,0-0.03,0-0.05,0c-0.19,0-0.35-0.13-0.42-0.37
		c-0.09-0.29,0.03-0.52,0.28-0.59C8.66,14.41,8.7,14.4,8.75,14.4 M8.79,15.25c0.02,0,0.04,0,0.06-0.01c0.14-0.04,0.2-0.19,0.13-0.41
		c-0.05-0.17-0.15-0.26-0.26-0.26c-0.02,0-0.04,0-0.07,0.01c-0.14,0.04-0.2,0.19-0.14,0.39C8.57,15.15,8.67,15.25,8.79,15.25
		 M8.75,13.83c-0.1,0-0.2,0.02-0.3,0.04c-0.28,0.08-0.5,0.27-0.62,0.52c-0.11,0.24-0.13,0.51-0.04,0.79c0.12,0.41,0.43,0.7,0.8,0.77
		c0.15,0.1,0.33,0.15,0.53,0.15c0.1,0,0.2-0.02,0.3-0.04c0.13-0.04,0.25-0.1,0.35-0.18l0.01-0.01l0.01-0.01l0.34-0.31l-0.22-0.4
		l-0.07-0.12l-0.06-0.1c0-0.1-0.02-0.21-0.05-0.31C9.57,14.13,9.2,13.83,8.75,13.83L8.75,13.83z"/>
	<path class="st11" d="M9.87,14.32l0.2,0.68l-0.14,0.04l-0.04-0.09c-0.04,0.09-0.1,0.15-0.2,0.18c-0.03,0.01-0.05,0.01-0.08,0.01
		c-0.11,0-0.18-0.08-0.22-0.22L9.26,14.5l0.17-0.05l0.12,0.41c0.03,0.09,0.06,0.12,0.1,0.12c0.01,0,0.03,0,0.04-0.01
		c0.06-0.02,0.09-0.05,0.13-0.13l-0.14-0.46L9.87,14.32 M10.25,13.6l-0.43,0.13l0,0L9.27,13.9L9.1,13.95l-0.55,0.16l0.16,0.55
		l0.13,0.43c0.14,0.46,0.48,0.63,0.76,0.63l0.01,0.02l0.07-0.02c0.06,0,0.12-0.02,0.17-0.03c0.05-0.01,0.1-0.04,0.16-0.07l0.08-0.02
		l0.14-0.04l0.55-0.16l-0.16-0.55l-0.2-0.68L10.25,13.6L10.25,13.6z"/>
	<path class="st11" d="M10.45,14.14c0.14,0,0.24,0.1,0.29,0.25c0.01,0.03,0.01,0.06,0.02,0.08l0,0.01l-0.45,0.13
		c0.04,0.08,0.11,0.13,0.18,0.13c0.02,0,0.05,0,0.07-0.01c0.06-0.02,0.1-0.05,0.14-0.1l0.01-0.01l0.09,0.09l0,0
		c-0.05,0.06-0.13,0.12-0.22,0.15c-0.04,0.01-0.08,0.02-0.12,0.02c-0.15,0-0.28-0.09-0.34-0.27c-0.07-0.22,0.05-0.41,0.22-0.46
		C10.39,14.14,10.42,14.14,10.45,14.14 M10.28,14.5l0.3-0.09c-0.03-0.08-0.07-0.13-0.14-0.13c-0.02,0-0.03,0-0.05,0.01
		C10.32,14.32,10.26,14.39,10.28,14.5 M10.45,13.57c-0.09,0-0.18,0.01-0.27,0.04c-0.49,0.15-0.76,0.66-0.61,1.17
		c0.12,0.41,0.47,0.68,0.89,0.68c0.09,0,0.19-0.01,0.28-0.04c0.18-0.05,0.34-0.15,0.47-0.29l0.42-0.39l-0.31-0.31
		c0-0.06-0.02-0.12-0.04-0.19C11.17,13.83,10.84,13.57,10.45,13.57L10.45,13.57z"/>
	<path class="st11" d="M10.89,13.69l0.24,0.81c0.01,0.03,0.02,0.04,0.03,0.04c0,0,0,0,0.01,0c0.01,0,0.01,0,0.02-0.01l0.01,0
		l0.06,0.13l0,0c-0.02,0.01-0.05,0.03-0.08,0.04c-0.02,0.01-0.04,0.01-0.06,0.01c-0.08,0-0.13-0.06-0.16-0.16l-0.24-0.8L10.89,13.69
		 M11.28,12.97l-0.55,0.16l-0.17,0.05L10,13.35l0.16,0.55l0.24,0.8c0.12,0.42,0.45,0.57,0.71,0.57c0.07,0,0.15-0.01,0.22-0.03
		c0.1-0.03,0.2-0.08,0.27-0.14l0.02-0.01l0.02-0.02l0.32-0.29l-0.19-0.39l-0.06-0.13L11.58,14l-0.14-0.47L11.28,12.97L11.28,12.97z"
		/>
	<path class="st11" d="M11.81,13.74l0.28,0.95l-0.18,0.05l-0.07-0.23l-0.02-0.1c-0.04,0.06-0.1,0.11-0.17,0.13
		c-0.03,0.01-0.06,0.01-0.09,0.01c-0.14,0-0.25-0.1-0.31-0.28c-0.07-0.22,0.04-0.4,0.2-0.45c0.03-0.01,0.06-0.01,0.08-0.01
		c0.05,0,0.09,0.01,0.14,0.03l0-0.07L11.81,13.74 M11.6,14.4c0.02,0,0.03,0,0.05-0.01c0.05-0.02,0.09-0.05,0.12-0.11l-0.09-0.3
		c-0.03-0.01-0.06-0.02-0.09-0.02c-0.02,0-0.04,0-0.06,0.01c-0.09,0.03-0.14,0.12-0.1,0.26C11.47,14.34,11.53,14.4,11.6,14.4
		 M12.19,13.03l-0.55,0.16l-0.14,0.04l-0.04,0.01c-0.06,0.01-0.12,0.02-0.17,0.03c-0.06,0.02-0.11,0.04-0.16,0.07l-0.06,0.02l0,0.02
		c-0.33,0.21-0.48,0.64-0.36,1.06c0.11,0.38,0.38,0.63,0.72,0.68l0.1,0.33l0.55-0.16l0.18-0.05l0.55-0.16l-0.16-0.55l-0.28-0.95
		L12.19,13.03L12.19,13.03z"/>
	<path class="st11" d="M12.6,13.5l0.2,0.68l-0.14,0.04l-0.04-0.09c-0.04,0.09-0.1,0.15-0.2,0.18c-0.03,0.01-0.05,0.01-0.08,0.01
		c-0.11,0-0.18-0.08-0.22-0.22L12,13.68l0.17-0.05l0.12,0.41c0.03,0.09,0.06,0.12,0.1,0.12c0.01,0,0.03,0,0.04-0.01
		c0.06-0.02,0.09-0.05,0.13-0.13l-0.14-0.46L12.6,13.5 M12.99,12.79l-0.43,0.13l0,0l-0.32,0.09l-0.52,0.15l0,0l-0.43,0.13l0.16,0.55
		l0.13,0.43c0.14,0.46,0.48,0.63,0.76,0.63l0.01,0.02l0.07-0.02c0.06-0.01,0.11-0.02,0.17-0.03c0.05-0.01,0.1-0.04,0.16-0.07
		l0.08-0.02l0.14-0.04l0.55-0.16l-0.16-0.55l-0.2-0.68L12.99,12.79L12.99,12.79z"/>
	<path class="st11" d="M13.19,13.33c0.14,0,0.24,0.1,0.29,0.25c0.01,0.03,0.01,0.06,0.02,0.08l0,0.01l-0.45,0.13
		c0.04,0.08,0.11,0.13,0.18,0.13c0.02,0,0.05,0,0.07-0.01c0.06-0.02,0.11-0.05,0.14-0.1l0.01-0.01l0.09,0.09l0,0
		c-0.05,0.06-0.13,0.12-0.22,0.15c-0.04,0.01-0.08,0.02-0.12,0.02c-0.15,0-0.28-0.09-0.34-0.27c-0.07-0.22,0.05-0.41,0.22-0.46
		C13.12,13.33,13.16,13.33,13.19,13.33 M13.02,13.69l0.3-0.09c-0.03-0.08-0.07-0.13-0.14-0.13c-0.02,0-0.03,0-0.05,0.01
		C13.05,13.5,13,13.58,13.02,13.69 M13.19,12.75c-0.09,0-0.18,0.01-0.27,0.04c-0.23,0.07-0.43,0.23-0.54,0.45
		c-0.12,0.22-0.14,0.48-0.07,0.72c0.12,0.41,0.47,0.68,0.89,0.68c0.09,0,0.19-0.01,0.28-0.04c0.17-0.05,0.33-0.15,0.46-0.28
		l0.45-0.38l-0.32-0.33c0-0.06-0.02-0.12-0.04-0.19C13.91,13.01,13.58,12.75,13.19,12.75L13.19,12.75z"/>
	<path class="st11" d="M13.98,12.85c0.08,0,0.14,0.02,0.2,0.05l0.01,0l-0.07,0.14l-0.01,0c-0.04-0.02-0.08-0.03-0.12-0.03
		c-0.02,0-0.04,0-0.06,0.01c-0.15,0.04-0.22,0.2-0.17,0.39c0.05,0.17,0.15,0.26,0.27,0.26c0.03,0,0.05,0,0.08-0.01
		c0.08-0.02,0.13-0.07,0.16-0.14l0-0.01l0.13,0.08l0,0.01c-0.05,0.11-0.13,0.19-0.25,0.22c-0.05,0.01-0.1,0.02-0.14,0.02
		c-0.19,0-0.36-0.12-0.43-0.36c-0.09-0.3,0.05-0.53,0.3-0.6C13.91,12.85,13.95,12.85,13.98,12.85 M13.98,12.27
		c-0.09,0-0.18,0.01-0.27,0.04c-0.27,0.08-0.49,0.26-0.62,0.5c-0.12,0.24-0.15,0.53-0.06,0.81c0.14,0.47,0.52,0.77,0.98,0.77
		c0.1,0,0.2-0.02,0.3-0.05c0.27-0.08,0.48-0.26,0.6-0.51l0.25-0.47l-0.44-0.27l0.22-0.45l-0.48-0.26
		C14.31,12.32,14.15,12.27,13.98,12.27L13.98,12.27z"/>
	<path class="st11" d="M14.46,12.63l0.08,0.26L14.56,13c0.04-0.07,0.1-0.13,0.19-0.16c0.03-0.01,0.05-0.01,0.08-0.01
		c0.11,0,0.18,0.08,0.22,0.22l0.13,0.43l-0.17,0.05l-0.12-0.41c-0.03-0.09-0.06-0.12-0.11-0.12c-0.01,0-0.03,0-0.04,0.01
		c-0.06,0.02-0.09,0.06-0.13,0.13l0.14,0.47l-0.17,0.05l-0.29-0.98L14.46,12.63 M14.84,11.92l-0.55,0.16l-0.17,0.05l-0.55,0.16
		l0.16,0.55l0.29,0.98l0.16,0.55l0.44-0.13l0,0l0.55-0.16l0.17-0.05l0.55-0.16l-0.16-0.55l-0.13-0.43c-0.12-0.4-0.4-0.58-0.66-0.62
		L14.84,11.92L14.84,11.92z"/>
	<path class="st11" d="M15.57,12.62c0.15,0,0.29,0.09,0.34,0.27c0.07,0.23-0.05,0.4-0.23,0.46c-0.03,0.01-0.07,0.02-0.11,0.02
		c-0.15,0-0.28-0.09-0.34-0.27c-0.07-0.23,0.05-0.41,0.23-0.46C15.5,12.63,15.54,12.62,15.57,12.62 M15.59,13.21
		c0.02,0,0.03,0,0.05-0.01c0.1-0.03,0.14-0.13,0.1-0.26c-0.03-0.11-0.1-0.17-0.18-0.17c-0.02,0-0.03,0-0.05,0.01
		c-0.1,0.03-0.14,0.13-0.1,0.26C15.44,13.15,15.51,13.21,15.59,13.21 M15.57,12.05L15.57,12.05c-0.09,0-0.18,0.01-0.27,0.04
		c-0.5,0.15-0.77,0.66-0.62,1.17c0.12,0.41,0.47,0.68,0.89,0.68c0.09,0,0.18-0.01,0.27-0.04c0.24-0.07,0.43-0.23,0.55-0.44
		c0.12-0.22,0.15-0.48,0.07-0.73C16.34,12.32,15.99,12.05,15.57,12.05L15.57,12.05z"/>
	<path class="st11" d="M16.3,12.4c0.06,0,0.11,0.01,0.15,0.03l0.01,0l-0.05,0.13l-0.01,0c-0.04-0.01-0.07-0.02-0.11-0.02
		c-0.02,0-0.04,0-0.06,0.01c-0.07,0.02-0.09,0.06-0.08,0.1c0.01,0.05,0.09,0.05,0.17,0.05c0.1,0.01,0.23,0.02,0.27,0.15
		c0.04,0.12-0.03,0.24-0.22,0.3c-0.04,0.01-0.08,0.02-0.13,0.02c-0.06,0-0.12-0.01-0.17-0.03l-0.01,0l0.05-0.14l0.01,0
		c0.05,0.02,0.09,0.03,0.14,0.03c0.03,0,0.05,0,0.08-0.01c0.08-0.02,0.1-0.06,0.09-0.11c-0.01-0.05-0.09-0.05-0.18-0.06
		c-0.1,0-0.23-0.03-0.26-0.14c-0.04-0.12,0.04-0.24,0.2-0.28C16.23,12.41,16.27,12.4,16.3,12.4 M16.3,11.83
		c-0.09,0-0.18,0.01-0.27,0.04c-0.46,0.14-0.72,0.57-0.59,1c0.01,0.04,0.03,0.09,0.06,0.15l-0.16,0.45l0.53,0.19
		c0.12,0.05,0.25,0.07,0.38,0.07c0.1,0,0.2-0.01,0.29-0.04c0.47-0.14,0.73-0.57,0.6-1.01c-0.02-0.06-0.05-0.13-0.09-0.2l0.15-0.4
		l-0.55-0.19C16.54,11.85,16.42,11.83,16.3,11.83L16.3,11.83z"/>
	<path class="st11" d="M16.98,12.2c0.14,0,0.24,0.1,0.29,0.25c0.01,0.03,0.01,0.06,0.02,0.08l0,0.01l-0.45,0.13
		c0.04,0.08,0.11,0.13,0.18,0.13c0.02,0,0.05,0,0.07-0.01c0.06-0.02,0.11-0.05,0.14-0.1l0.01-0.01l0.09,0.09l0,0
		c-0.05,0.06-0.13,0.12-0.22,0.15c-0.04,0.01-0.08,0.02-0.12,0.02c-0.15,0-0.28-0.09-0.34-0.27c-0.07-0.22,0.05-0.41,0.22-0.46
		C16.91,12.21,16.94,12.2,16.98,12.2 M16.8,12.56l0.3-0.09c-0.03-0.08-0.07-0.13-0.14-0.13c-0.02,0-0.03,0-0.05,0.01
		C16.84,12.38,16.79,12.45,16.8,12.56 M16.98,11.63c-0.09,0-0.18,0.01-0.27,0.04c-0.49,0.15-0.76,0.66-0.61,1.17
		c0.12,0.41,0.47,0.68,0.89,0.68c0.09,0,0.19-0.01,0.28-0.04c0.18-0.05,0.34-0.15,0.47-0.29l0.42-0.39l-0.31-0.31
		c-0.01-0.08-0.02-0.15-0.04-0.2C17.69,11.89,17.37,11.63,16.98,11.63L16.98,11.63z"/>
	<path class="st11" d="M2.74,9.96c0.05,0,0.11,0.01,0.17,0.04c0.11,0.05,0.18,0.13,0.23,0.21l0,0.01L3,10.29l0-0.01
		c-0.04-0.06-0.08-0.11-0.14-0.14c-0.03-0.01-0.05-0.02-0.07-0.02c-0.04,0-0.06,0.02-0.07,0.05c-0.02,0.05,0.04,0.11,0.12,0.17
		c0.09,0.08,0.19,0.19,0.13,0.33c-0.04,0.09-0.12,0.15-0.24,0.15c-0.05,0-0.11-0.01-0.18-0.04c-0.11-0.05-0.21-0.14-0.26-0.24
		l0-0.01l0.15-0.09l0,0.01c0.05,0.08,0.1,0.14,0.18,0.18c0.03,0.01,0.06,0.02,0.08,0.02c0.04,0,0.07-0.02,0.08-0.05
		c0.02-0.06-0.05-0.12-0.12-0.19c-0.09-0.08-0.19-0.19-0.13-0.32C2.55,10.01,2.64,9.96,2.74,9.96 M2.74,9.39
		c-0.34,0-0.63,0.19-0.76,0.49C1.97,9.93,1.94,10,1.93,10.09l-0.44,0.26l0.29,0.49c0.12,0.21,0.31,0.39,0.54,0.48
		c0.13,0.06,0.27,0.09,0.4,0.09c0.34,0,0.63-0.19,0.76-0.5c0.03-0.07,0.06-0.16,0.06-0.27l0.37-0.21L3.64,9.93l0,0L3.63,9.92
		c-0.12-0.2-0.29-0.36-0.5-0.45C3,9.41,2.87,9.39,2.74,9.39L2.74,9.39z"/>
	<path class="st11" d="M3.53,9.89c0.02,0,0.04,0,0.06,0.01c0.07,0.03,0.1,0.1,0.07,0.16c-0.02,0.05-0.06,0.07-0.11,0.07
		c-0.02,0-0.04,0-0.06-0.01c-0.07-0.03-0.1-0.1-0.07-0.16C3.44,9.92,3.49,9.89,3.53,9.89 M3.35,10.2l0.2,0.08l-0.33,0.77l-0.2-0.08
		L3.35,10.2 M3.53,9.32L3.53,9.32c-0.16,0-0.32,0.06-0.44,0.16L3.04,9.45L2.99,9.59C2.95,9.64,2.92,9.69,2.9,9.74
		C2.87,9.8,2.86,9.85,2.85,9.91L2.82,9.98l-0.33,0.77l-0.22,0.53L2.8,11.5L3,11.59l0.53,0.22l0.22-0.53l0.33-0.77l0.03-0.06
		c0.04-0.05,0.07-0.1,0.09-0.16c0.02-0.06,0.04-0.12,0.05-0.18L4.3,9.98L4.25,9.96C4.22,9.71,4.07,9.48,3.81,9.38
		C3.72,9.34,3.63,9.32,3.53,9.32L3.53,9.32z"/>
	<path class="st11" d="M3.78,10.38l0.16,0.07l-0.03,0.11c0.06-0.02,0.12-0.04,0.18-0.04c0.04,0,0.09,0.01,0.14,0.03
		c0.17,0.07,0.2,0.22,0.12,0.41l-0.2,0.48l-0.2-0.08l0.19-0.46c0.05-0.12,0.03-0.18-0.05-0.21c-0.03-0.01-0.05-0.02-0.08-0.02
		c-0.04,0-0.08,0.01-0.14,0.03l-0.22,0.53l-0.2-0.08L3.78,10.38 M3.47,9.63l-0.22,0.53l-0.33,0.77L2.7,11.46l0.49,0.21l0,0
		l0.53,0.22l0.2,0.08l0.53,0.22l0.22-0.53l0.2-0.48c0.09-0.22,0.11-0.43,0.06-0.62c-0.05-0.18-0.15-0.34-0.31-0.45l0,0l-0.01,0
		c-0.05-0.04-0.11-0.07-0.17-0.09C4.39,10,4.33,9.98,4.26,9.97l-0.1-0.04L4,9.86L3.47,9.63L3.47,9.63z"/>
	<path class="st11" d="M5.07,10.47l0.1,0.11l-0.01,0c-0.2,0.15-0.35,0.36-0.45,0.59c-0.1,0.23-0.14,0.48-0.11,0.73l0,0.01l-0.15,0
		l0,0c-0.04-0.27-0.02-0.53,0.09-0.8C4.67,10.83,4.84,10.64,5.07,10.47L5.07,10.47 M5.22,9.8L4.85,9.94l0,0L4.78,9.97l-0.06,0.04
		c-0.33,0.23-0.56,0.52-0.7,0.87c-0.15,0.35-0.19,0.72-0.13,1.11l0.01,0.06l0.02,0.06l0.15,0.37l0.4,0l0.15,0l0.83-0.02l-0.28-0.7
		c0-0.12,0.02-0.25,0.07-0.37c0.05-0.12,0.13-0.23,0.22-0.31l0.69-0.29l-0.56-0.61l-0.1-0.11L5.22,9.8L5.22,9.8z"/>
	<path class="st11" d="M5.39,11.08c0.06,0,0.13,0.01,0.19,0.04c0.11,0.04,0.16,0.12,0.2,0.19l0,0.01L5.63,11.4l0-0.01
		c-0.02-0.05-0.06-0.09-0.11-0.11c-0.03-0.01-0.06-0.02-0.09-0.02c-0.09,0-0.18,0.06-0.22,0.17c-0.06,0.15-0.01,0.28,0.11,0.33
		c0.03,0.01,0.06,0.02,0.09,0.02c0.03,0,0.07-0.01,0.1-0.02l0.01,0l0.03,0.16l-0.01,0c-0.05,0.02-0.09,0.02-0.14,0.02
		c-0.06,0-0.11-0.01-0.17-0.03c-0.23-0.1-0.33-0.31-0.22-0.57C5.08,11.17,5.23,11.08,5.39,11.08 M5.39,10.51L5.39,10.51
		c-0.4,0-0.75,0.24-0.92,0.62c-0.11,0.26-0.12,0.54-0.02,0.78c0.1,0.24,0.29,0.43,0.54,0.54c0.12,0.05,0.25,0.08,0.39,0.08
		c0.1,0,0.19-0.01,0.29-0.04l0.52-0.11l-0.1-0.55l0-0.02l0.47-0.27l-0.28-0.48c-0.1-0.2-0.26-0.36-0.48-0.45
		C5.67,10.54,5.53,10.51,5.39,10.51L5.39,10.51z"/>
	<path class="st11" d="M6.15,11c0.02,0,0.04,0,0.06,0.01c0.07,0.03,0.1,0.1,0.07,0.16c-0.02,0.05-0.06,0.07-0.11,0.07
		c-0.02,0-0.04,0-0.06-0.01c-0.07-0.03-0.1-0.1-0.07-0.16C6.07,11.02,6.11,11,6.15,11 M5.97,11.31l0.2,0.08l-0.33,0.77l-0.2-0.08
		L5.97,11.31 M6.15,10.42L6.15,10.42c-0.16,0-0.32,0.06-0.44,0.16l-0.05-0.02L5.61,10.7c-0.04,0.05-0.07,0.1-0.09,0.15
		c-0.02,0.06-0.04,0.11-0.05,0.17l-0.03,0.07l-0.33,0.77l-0.22,0.53l0.53,0.22l0.2,0.08l0.53,0.22l0.22-0.53l0.33-0.77l0.03-0.06
		c0.04-0.05,0.07-0.1,0.09-0.16c0.02-0.06,0.04-0.12,0.05-0.18l0.06-0.13l-0.05-0.02c-0.01-0.07-0.02-0.14-0.05-0.2
		c-0.07-0.17-0.21-0.31-0.38-0.38C6.35,10.44,6.25,10.42,6.15,10.42L6.15,10.42z"/>
	<path class="st11" d="M6.54,11.3l0.18,0.08l-0.09,0.21l0.2,0.08l-0.07,0.16l-0.2-0.08L6.42,12.1c-0.04,0.09-0.02,0.14,0.05,0.17
		c0.02,0.01,0.06,0.02,0.08,0.02c0,0,0,0,0,0l0.01,0l-0.03,0.16l-0.01,0c-0.05,0-0.11-0.01-0.17-0.04c-0.2-0.08-0.22-0.23-0.15-0.39
		l0.15-0.35l-0.11-0.05l0.06-0.15l0.12,0.04L6.54,11.3 M6.29,10.57L6.16,10.8l-0.17-0.06l-0.21,0.49l-0.06,0.15L5.5,11.92l0.13,0.05
		c-0.09,0.41,0.11,0.79,0.51,0.96c0.11,0.05,0.22,0.07,0.35,0.08l0.04,0l0.04,0l0.46-0.02l0.09-0.45l0.01-0.06l0.18-0.43l0.07-0.16
		l0.22-0.53l-0.2-0.08l0.09-0.21l-0.53-0.22l-0.18-0.08L6.29,10.57L6.29,10.57z"/>
	<path class="st11" d="M6.9,11.7l0.2,0.08l-0.02,0.44c0,0.07-0.02,0.15-0.02,0.23c0.05-0.06,0.1-0.12,0.14-0.18l0.29-0.33l0.19,0.08
		l-0.62,0.68c-0.1,0.11-0.2,0.18-0.32,0.18c-0.04,0-0.09-0.01-0.14-0.03c-0.04-0.02-0.07-0.04-0.1-0.06L6.5,12.79l0.1-0.14l0.01,0
		c0.01,0.01,0.03,0.03,0.05,0.03C6.68,12.7,6.7,12.7,6.72,12.7c0.05,0,0.1-0.03,0.14-0.08l0.03-0.04L6.9,11.7 M6.33,10.84L6.33,11.7
		l0,0.37l-0.18,0.24l-0.1,0.14l-0.3,0.41l0.37,0.35l0.01,0.01l0.01,0.01c0.07,0.07,0.16,0.12,0.25,0.16
		c0.12,0.05,0.24,0.08,0.36,0.08c0.39,0,0.65-0.27,0.73-0.35l0,0l0,0l0.62-0.68l0.55-0.6L7.9,11.5l-0.19-0.08l-0.22-0.09l-0.17-0.07
		l-0.2-0.08L6.33,10.84L6.33,10.84z"/>
	<path class="st11" d="M8.05,11.73L8.05,11.73c0.04,0.27,0.03,0.53-0.09,0.81c-0.12,0.28-0.29,0.47-0.51,0.63l0,0l-0.1-0.11l0.01,0
		c0.2-0.15,0.35-0.36,0.45-0.59c0.1-0.23,0.14-0.48,0.11-0.73l0-0.01L8.05,11.73 M8.43,11.16l-0.39,0l-0.15,0l-0.82,0.02l0.27,0.7
		c0.01,0.12-0.02,0.25-0.07,0.37c-0.05,0.12-0.13,0.23-0.22,0.31l-0.68,0.29l0.56,0.6l0.1,0.11l0.27,0.28l0.36-0.14l0.07-0.03
		l0.06-0.04c0.33-0.23,0.56-0.52,0.7-0.87c0.15-0.35,0.19-0.72,0.13-1.11L8.6,11.58l-0.03-0.07L8.43,11.16L8.43,11.16z"/>
	<path class="st8" d="M7.72,9.4L7.63,7.02L7.09,7.11L7.07,6.72l0.02-0.01C7.38,6.63,7.57,6.5,7.75,6.39l0.01-0.01l0.43-0.02
		L8.3,9.37L7.72,9.4z"/>
	<path class="st8" d="M8.83,9.33L8.82,8.99l0-0.01c0.81-0.83,1.33-1.36,1.31-1.8c-0.01-0.3-0.19-0.48-0.5-0.47
		C9.4,6.71,9.21,6.86,9.06,7.05L9.04,7.07L8.7,6.75l0.01-0.01c0.26-0.3,0.53-0.49,0.97-0.5c0.61-0.02,1,0.33,1.02,0.9
		c0.02,0.53-0.45,1.08-1.01,1.7c0.15-0.02,0.32-0.04,0.46-0.04l0.76-0.03l0.02,0.5L8.83,9.33z"/>
	<path class="st8" d="M11.19,9.22L11.89,8l-0.74-1.07l0.63-0.02l0.29,0.44c0.07,0.11,0.15,0.24,0.22,0.36
		c0.05-0.12,0.11-0.25,0.16-0.37l0.22-0.46l0.61-0.02l-0.65,1.18l0.79,1.1L12.8,9.16l-0.32-0.45l0,0c-0.08-0.12-0.16-0.26-0.24-0.37
		c-0.06,0.13-0.13,0.25-0.19,0.39L11.8,9.2L11.19,9.22z"/>
	<path class="st8" d="M15.78,7.85l0.02,0.46l-0.37,0.01l0.03,0.76l-0.56,0.02l-0.03-0.76l-1.34,0.05L13.5,8l1.14-1.88l0.69-0.03
		l0.07,1.76L15.78,7.85z M14.1,7.91l0.74-0.03l-0.02-0.65c-0.01-0.15,0-0.38,0-0.55c-0.07,0.14-0.14,0.27-0.21,0.41l0,0L14.1,7.91z"
		/>
	<path class="st8" d="M18.11,6.28L17.8,6.65l-0.02-0.02c-0.11-0.12-0.3-0.2-0.47-0.2c-0.36,0.01-0.65,0.27-0.67,1.03
		c0.18-0.2,0.42-0.32,0.63-0.33c0.54-0.02,0.92,0.27,0.94,0.9c0.02,0.6-0.4,1-0.94,1.02c-0.62,0.02-1.14-0.42-1.18-1.41
		c-0.04-1.16,0.51-1.67,1.16-1.69c0.38-0.01,0.65,0.13,0.84,0.31L18.11,6.28z M17.25,8.59c0.24-0.01,0.43-0.2,0.42-0.54
		c-0.01-0.33-0.19-0.49-0.48-0.48c-0.17,0.01-0.36,0.1-0.52,0.34C16.74,8.42,16.96,8.61,17.25,8.59z"/>
	<path class="st8" d="M1.35,6.98L1.27,6.78l0-0.01c0.34-0.67,0.55-1.1,0.45-1.36c-0.07-0.18-0.21-0.26-0.4-0.19
		C1.19,5.27,1.1,5.4,1.04,5.54L1.04,5.55L0.76,5.43l0.01-0.01c0.1-0.24,0.23-0.4,0.49-0.5c0.37-0.13,0.68,0.01,0.8,0.35
		C2.18,5.58,2,6.02,1.78,6.5c0.09-0.04,0.19-0.09,0.27-0.12l0.46-0.17l0.11,0.3L1.35,6.98z"/>
	<path class="st8" d="M2.72,6.21l0.09-0.29l0.02,0.01C2.97,6,3.14,6.03,3.32,5.96c0.2-0.07,0.3-0.21,0.24-0.37
		C3.5,5.42,3.35,5.35,2.92,5.51L2.91,5.51l-0.1-0.27l0.02-0.01C3.19,5.11,3.26,4.95,3.2,4.8C3.15,4.65,3.03,4.6,2.86,4.66
		c-0.14,0.05-0.23,0.16-0.3,0.3L2.55,4.97L2.28,4.82l0.01-0.01C2.4,4.61,2.54,4.46,2.77,4.38c0.36-0.13,0.67-0.04,0.79,0.27
		c0.07,0.2,0.01,0.38-0.15,0.52c0.23-0.01,0.44,0.09,0.52,0.32c0.12,0.33-0.1,0.63-0.47,0.76C3.15,6.36,2.91,6.31,2.73,6.22
		L2.72,6.21z"/>
	<path class="st8" d="M4.15,5.31l-0.1-0.27l0.7-0.25l0.1,0.27L4.15,5.31z"/>
	<path class="st8" d="M5.12,5.07C5.04,4.85,5.14,4.64,5.27,4.49C5.1,4.44,4.94,4.35,4.88,4.16c-0.11-0.3,0.06-0.58,0.39-0.7
		c0.34-0.12,0.63,0,0.74,0.3c0.07,0.18,0,0.38-0.09,0.5C6.12,4.3,6.31,4.38,6.4,4.62c0.1,0.28-0.07,0.59-0.45,0.73
		C5.57,5.49,5.23,5.38,5.12,5.07z M5.68,4.25C5.74,4.11,5.76,4,5.72,3.9C5.67,3.75,5.53,3.67,5.36,3.73
		C5.22,3.78,5.15,3.91,5.2,4.05C5.26,4.22,5.45,4.24,5.68,4.25z M5.42,4.93C5.48,5.1,5.67,5.16,5.85,5.09
		c0.18-0.06,0.26-0.2,0.2-0.36C5.99,4.55,5.78,4.55,5.5,4.54C5.41,4.66,5.37,4.8,5.42,4.93z"/>
	<path class="st8" d="M6.62,4.53C6.54,4.31,6.65,4.1,6.78,3.95C6.6,3.9,6.45,3.81,6.38,3.61c-0.11-0.3,0.06-0.58,0.39-0.7
		c0.34-0.12,0.63,0,0.74,0.3c0.07,0.18,0,0.38-0.09,0.5c0.2,0.04,0.39,0.12,0.48,0.36C8,4.37,7.83,4.67,7.45,4.81
		C7.08,4.94,6.73,4.84,6.62,4.53z M7.18,3.7c0.06-0.13,0.08-0.24,0.04-0.35C7.17,3.21,7.03,3.13,6.87,3.19
		C6.73,3.24,6.65,3.37,6.71,3.51C6.77,3.68,6.95,3.7,7.18,3.7z M6.93,4.39c0.06,0.17,0.25,0.23,0.43,0.16
		c0.18-0.06,0.26-0.2,0.2-0.36C7.5,4.01,7.29,4.01,7,4C6.92,4.12,6.88,4.26,6.93,4.39z"/>
	<path class="st8" d="M6.79,15.99l-0.21-0.71l-0.16,0.07l-0.03-0.11l0.01,0c0.08-0.05,0.13-0.1,0.17-0.15l0,0l0.13-0.04l0.27,0.9
		L6.79,15.99z"/>
	<path class="st8" d="M7.24,15.24l-0.04-0.13l0.65-0.19l0.04,0.13L7.24,15.24z M7.34,15.55L7.3,15.42l0.65-0.19l0.04,0.13
		L7.34,15.55z"/>
	<path class="st8" d="M9.33,15.3l0.07,0.12l0,0c-0.03,0.02-0.08,0.05-0.14,0.07c-0.19,0.06-0.35,0-0.45-0.12
		c-0.21,0.02-0.39-0.11-0.47-0.37c-0.09-0.29,0.03-0.52,0.28-0.59c0.25-0.07,0.47,0.05,0.55,0.34c0.07,0.25,0.01,0.45-0.17,0.55
		c0.06,0.05,0.15,0.05,0.23,0.03C9.27,15.34,9.3,15.32,9.33,15.3L9.33,15.3z M8.52,14.97c0.06,0.21,0.19,0.31,0.34,0.27
		c0.14-0.04,0.2-0.19,0.13-0.41c-0.06-0.2-0.19-0.29-0.33-0.25C8.51,14.62,8.46,14.77,8.52,14.97z"/>
	<path class="st8" d="M9.39,14.92L9.26,14.5l0.17-0.05l0.12,0.41c0.03,0.11,0.07,0.13,0.15,0.11c0.06-0.02,0.09-0.05,0.13-0.13
		l-0.14-0.46l0.17-0.05l0.2,0.68l-0.14,0.04l-0.04-0.09c-0.04,0.09-0.1,0.15-0.2,0.18C9.54,15.18,9.44,15.1,9.39,14.92z"/>
	<path class="st8" d="M10.13,14.61c-0.07-0.22,0.05-0.41,0.22-0.46c0.2-0.06,0.33,0.05,0.39,0.24c0.01,0.03,0.01,0.06,0.02,0.08
		l0,0.01l-0.45,0.13c0.05,0.11,0.15,0.15,0.26,0.11c0.06-0.02,0.1-0.05,0.14-0.1l0.01-0.01l0.09,0.09l0,0
		c-0.05,0.06-0.13,0.12-0.22,0.15C10.38,14.92,10.19,14.84,10.13,14.61z M10.28,14.5l0.3-0.09c-0.03-0.1-0.09-0.15-0.19-0.12
		C10.32,14.32,10.26,14.39,10.28,14.5z"/>
	<path class="st8" d="M10.95,14.54l-0.24-0.8l0.17-0.05l0.24,0.81c0.01,0.04,0.03,0.04,0.04,0.04c0.01,0,0.01,0,0.02-0.01l0.01,0
		l0.06,0.13l0,0c-0.02,0.01-0.05,0.03-0.08,0.04C11.06,14.73,10.99,14.66,10.95,14.54z"/>
	<path class="st8" d="M11.26,14.28c-0.07-0.22,0.04-0.4,0.2-0.45c0.08-0.02,0.15-0.01,0.22,0.02l0-0.07l0.14-0.04l0.28,0.95
		l-0.18,0.05l-0.07-0.23l-0.02-0.1c-0.04,0.06-0.1,0.11-0.17,0.13C11.47,14.6,11.32,14.5,11.26,14.28z M11.44,14.22
		c0.04,0.14,0.12,0.2,0.22,0.17c0.05-0.02,0.09-0.05,0.12-0.11l-0.09-0.3c-0.06-0.02-0.11-0.02-0.15-0.01
		C11.44,13.99,11.39,14.09,11.44,14.22z"/>
	<path class="st8" d="M12.13,14.11L12,13.68l0.17-0.05l0.12,0.41c0.03,0.11,0.07,0.13,0.15,0.11c0.06-0.02,0.09-0.05,0.13-0.13
		l-0.14-0.46l0.17-0.05l0.2,0.68l-0.14,0.04l-0.04-0.09c-0.04,0.09-0.1,0.15-0.2,0.18C12.27,14.36,12.18,14.28,12.13,14.11z"/>
	<path class="st8" d="M12.86,13.8c-0.07-0.22,0.05-0.41,0.22-0.46c0.2-0.06,0.33,0.05,0.39,0.24c0.01,0.03,0.01,0.06,0.02,0.08
		l0,0.01l-0.45,0.13c0.05,0.11,0.15,0.15,0.26,0.12c0.06-0.02,0.11-0.05,0.14-0.1l0.01-0.01l0.09,0.09l0,0
		c-0.05,0.06-0.13,0.12-0.22,0.15C13.12,14.11,12.93,14.02,12.86,13.8z M13.02,13.69l0.3-0.09c-0.03-0.1-0.09-0.15-0.19-0.12
		C13.05,13.5,13,13.58,13.02,13.69z"/>
	<path class="st8" d="M13.58,13.47c-0.09-0.3,0.05-0.53,0.3-0.6c0.12-0.03,0.23-0.01,0.3,0.04l0.01,0l-0.07,0.14l-0.01,0
		c-0.06-0.03-0.12-0.05-0.19-0.02c-0.15,0.04-0.22,0.2-0.17,0.39c0.06,0.2,0.19,0.29,0.35,0.24c0.08-0.02,0.13-0.07,0.16-0.14
		l0-0.01l0.13,0.08l0,0.01c-0.05,0.11-0.13,0.19-0.25,0.22C13.9,13.88,13.67,13.77,13.58,13.47z"/>
	<path class="st8" d="M14.57,13.66l-0.29-0.98l0.17-0.05l0.08,0.26L14.56,13c0.04-0.07,0.1-0.13,0.19-0.16
		c0.15-0.05,0.25,0.04,0.3,0.21l0.13,0.43l-0.17,0.05l-0.12-0.41c-0.03-0.11-0.07-0.13-0.15-0.11c-0.06,0.02-0.09,0.06-0.13,0.13
		l0.14,0.47L14.57,13.66z"/>
	<path class="st8" d="M15.23,13.1c-0.07-0.23,0.05-0.41,0.23-0.46c0.18-0.05,0.38,0.03,0.45,0.26c0.07,0.23-0.05,0.4-0.23,0.46
		C15.5,13.41,15.3,13.32,15.23,13.1z M15.41,13.04c0.04,0.13,0.12,0.19,0.22,0.17c0.1-0.03,0.14-0.13,0.1-0.26
		c-0.04-0.13-0.13-0.2-0.23-0.17C15.41,12.81,15.37,12.91,15.41,13.04z"/>
	<path class="st8" d="M16.07,13.13l0.05-0.14l0.01,0c0.08,0.03,0.14,0.04,0.21,0.02c0.08-0.02,0.1-0.06,0.09-0.11
		c-0.01-0.05-0.09-0.05-0.18-0.06c-0.1,0-0.23-0.03-0.26-0.14c-0.04-0.12,0.04-0.24,0.2-0.28c0.1-0.03,0.19-0.01,0.26,0.01l0.01,0
		l-0.05,0.13l-0.01,0c-0.06-0.02-0.11-0.03-0.17-0.01c-0.07,0.02-0.09,0.06-0.08,0.1c0.01,0.05,0.09,0.05,0.17,0.05
		c0.1,0.01,0.23,0.02,0.27,0.15c0.04,0.12-0.03,0.24-0.22,0.3C16.28,13.17,16.17,13.16,16.07,13.13L16.07,13.13z"/>
	<path class="st8" d="M16.65,12.68c-0.07-0.22,0.05-0.41,0.22-0.46c0.2-0.06,0.33,0.05,0.39,0.24c0.01,0.03,0.01,0.06,0.02,0.08
		l0,0.01l-0.45,0.13c0.05,0.11,0.15,0.15,0.26,0.12c0.06-0.02,0.11-0.05,0.14-0.1l0.01-0.01l0.09,0.09l0,0
		c-0.05,0.06-0.13,0.12-0.22,0.15C16.91,12.99,16.72,12.9,16.65,12.68z M16.8,12.56l0.3-0.09c-0.03-0.1-0.09-0.15-0.19-0.12
		C16.84,12.38,16.79,12.45,16.8,12.56z"/>
	<path class="st8" d="M2.28,10.55l0.15-0.09l0,0.01c0.05,0.08,0.1,0.14,0.18,0.18c0.09,0.04,0.14,0.02,0.16-0.03
		c0.02-0.06-0.05-0.12-0.12-0.19c-0.09-0.08-0.19-0.19-0.13-0.32C2.57,9.97,2.73,9.92,2.91,10c0.11,0.05,0.18,0.13,0.23,0.21l0,0.01
		L3,10.29l0-0.01c-0.04-0.06-0.08-0.11-0.14-0.14c-0.08-0.03-0.13-0.01-0.14,0.03c-0.02,0.05,0.04,0.11,0.12,0.17
		c0.09,0.08,0.19,0.19,0.13,0.33c-0.06,0.13-0.21,0.19-0.42,0.11C2.43,10.74,2.33,10.65,2.28,10.55L2.28,10.55z"/>
	<path class="st8" d="M3.02,10.97l0.33-0.77l0.2,0.08l-0.33,0.77L3.02,10.97z M3.5,10.13c-0.07-0.03-0.1-0.1-0.07-0.16
		C3.45,9.9,3.52,9.88,3.59,9.9c0.07,0.03,0.1,0.1,0.07,0.16C3.64,10.13,3.57,10.15,3.5,10.13z"/>
	<path class="st8" d="M3.45,11.15l0.33-0.77l0.16,0.07l-0.03,0.11c0.1-0.04,0.2-0.05,0.32-0.01c0.17,0.07,0.2,0.22,0.12,0.41
		l-0.2,0.48l-0.2-0.08l0.19-0.46c0.05-0.12,0.03-0.18-0.05-0.21c-0.07-0.03-0.13-0.02-0.22,0.01l-0.22,0.53L3.45,11.15z"/>
	<path class="st8" d="M4.55,11.11c0.12-0.28,0.29-0.47,0.51-0.63l0,0l0.1,0.11l-0.01,0c-0.2,0.15-0.35,0.36-0.45,0.59
		c-0.1,0.23-0.14,0.48-0.11,0.73l0,0.01l-0.15,0l0,0C4.42,11.64,4.44,11.38,4.55,11.11z"/>
	<path class="st8" d="M5,11.35c0.11-0.26,0.36-0.33,0.58-0.23c0.11,0.04,0.16,0.12,0.2,0.19l0,0.01L5.63,11.4l0-0.01
		c-0.02-0.05-0.06-0.09-0.11-0.11c-0.13-0.05-0.26,0-0.32,0.15c-0.06,0.15-0.01,0.28,0.11,0.33c0.06,0.03,0.13,0.02,0.18,0l0.01,0
		l0.03,0.16l-0.01,0c-0.1,0.04-0.21,0.03-0.3-0.01C4.99,11.83,4.89,11.61,5,11.35z"/>
	<path class="st8" d="M5.64,12.08l0.33-0.77l0.2,0.08l-0.33,0.77L5.64,12.08z M6.12,11.23c-0.07-0.03-0.1-0.1-0.07-0.16
		c0.03-0.07,0.1-0.09,0.17-0.06c0.07,0.03,0.1,0.1,0.07,0.16C6.26,11.24,6.19,11.26,6.12,11.23z"/>
	<path class="st8" d="M6.21,12.01l0.15-0.35l-0.11-0.05l0.06-0.15l0.12,0.04l0.11-0.2l0.18,0.08l-0.09,0.21l0.2,0.08l-0.07,0.16
		l-0.2-0.08L6.42,12.1c-0.04,0.09-0.02,0.14,0.05,0.17c0.03,0.01,0.06,0.02,0.08,0.02l0.01,0l-0.03,0.16l-0.01,0
		c-0.05,0-0.11-0.01-0.17-0.04C6.16,12.32,6.14,12.17,6.21,12.01z"/>
	<path class="st8" d="M6.61,12.66c0.01,0.01,0.03,0.03,0.05,0.03c0.08,0.03,0.15,0,0.2-0.06l0.03-0.04L6.9,11.7l0.2,0.08l-0.02,0.44
		c0,0.07-0.02,0.15-0.02,0.23c0.05-0.06,0.1-0.12,0.14-0.18l0.29-0.33l0.19,0.08l-0.62,0.68c-0.14,0.15-0.28,0.22-0.45,0.15
		c-0.04-0.02-0.07-0.04-0.1-0.06L6.5,12.79L6.61,12.66L6.61,12.66z"/>
	<path class="st8" d="M7.79,12.47c0.1-0.23,0.14-0.48,0.11-0.73l0-0.01l0.15,0l0,0c0.04,0.27,0.02,0.53-0.09,0.8
		c-0.12,0.28-0.29,0.47-0.51,0.63l0,0l-0.1-0.11l0.01,0C7.54,12.91,7.7,12.7,7.79,12.47z"/>
</g>
</svg>
