<?xml version="1.0" encoding="utf-8"?>
<!-- Generator: Adobe Illustrator 24.3.0, SVG Export Plug-In . SVG Version: 6.00 Build 0)  -->
<svg version="1.1" id="Calque_1" xmlns="http://www.w3.org/2000/svg" xmlns:xlink="http://www.w3.org/1999/xlink" x="0px" y="0px"
	 viewBox="0 0 19 19" style="enable-background:new 0 0 19 19;" xml:space="preserve">
<style type="text/css">
	.st0{fill:#1D1D1B;}
	.st1{fill:url(#SVGID_1_);}
	.st2{fill:url(#SVGID_2_);}
	.st3{fill:#C13B45;}
	.st4{fill:#AF2D33;}
	.st5{fill:#932D35;}
	.st6{fill:#744142;}
	.st7{fill:#DC656F;}
	.st8{fill:#A5353A;}
	.st9{fill:#DB5A66;}
	.st10{fill:url(#SVGID_3_);}
	.st11{fill:url(#SVGID_4_);}
	.st12{fill:url(#SVGID_5_);}
	.st13{fill:url(#SVGID_6_);}
	.st14{fill:url(#SVGID_7_);}
	.st15{fill:url(#SVGID_8_);}
</style>
<g>
	<ellipse class="st0" cx="9.5" cy="15.73" rx="9.13" ry="0.51"/>
	<g>
		<linearGradient id="SVGID_1_" gradientUnits="userSpaceOnUse" x1="9.3935" y1="14.4009" x2="8.6996" y2="7.7764">
			<stop  offset="0" style="stop-color:#F8F8F8"/>
			<stop  offset="1" style="stop-color:#D6D6D6"/>
		</linearGradient>
		<polygon class="st1" points="0.38,15.73 18.45,13.52 17.29,2.77 0.38,5.51 		"/>
		<path class="st0" d="M0.37,15.74V5.5l0.01,0L17.3,2.75l0,0.01l1.17,10.77l-0.01,0L0.37,15.74z M0.39,5.52v10.2l18.05-2.21
			L17.28,2.78L0.39,5.52z"/>
	</g>
	<g>
		<linearGradient id="SVGID_2_" gradientUnits="userSpaceOnUse" x1="9.0378" y1="7.0843" x2="8.7855" y2="4.4976">
			<stop  offset="0" style="stop-color:#F8F8F8"/>
			<stop  offset="1" style="stop-color:#E0E0E0"/>
		</linearGradient>
		<polygon class="st2" points="0.38,7.43 9.02,9.26 17.51,4.8 17.29,2.77 0.38,5.51 		"/>
		<path class="st0" d="M9.02,9.28L9.02,9.28L0.37,7.44V5.5l0.01,0L17.3,2.75l0.22,2.06l-0.01,0L9.02,9.28z M0.39,7.43l8.63,1.83
			L17.5,4.8l-0.22-2.02L0.39,5.52V7.43z"/>
	</g>
	<g>
		<path class="st3" d="M7.67,10.99c0,0,0.14,0.15,0.52,0.12c0.38-0.03,1.08,0.04,1.14,0.06c0.06,0.02,0.3,0.09,0.65-0.27
			c0.36-0.36,0.74-0.47,0.74-0.47s0.38-0.38,0.54-0.79c0.15-0.41-0.11-1-0.11-1s-0.11-0.56-0.07-0.77s-0.33-0.33-0.33-0.33
			s-0.44-0.18-0.54-0.28c-0.09-0.1-0.39-0.14-0.47-0.32C9.67,6.76,9.21,6.63,8.83,6.9C8.45,7.18,7.71,7.57,7.71,7.57L7.44,7.72
			c0,0-0.43,0.17-0.39,0.86L7.03,8.96c0,0-0.24,0.57,0.12,0.94c0.37,0.37,0.31,0.72,0.31,0.72S7.46,10.97,7.67,10.99z"/>
		<g>
			<g>
				<path class="st4" d="M9.08,7.32C8.65,7.35,8.24,7.55,7.93,7.88C7.63,8.21,7.46,8.63,7.46,9.06c0,0.43,0.18,0.82,0.49,1.11
					c0.31,0.28,0.72,0.42,1.16,0.38s0.84-0.24,1.15-0.57c0.31-0.33,0.47-0.75,0.47-1.18c0-0.43-0.18-0.82-0.49-1.11
					C9.93,7.42,9.52,7.28,9.08,7.32L9.08,7.32z"/>
				<path class="st5" d="M9.22,7.31c0.39,0,0.75,0.13,1.03,0.39c0.31,0.28,0.49,0.67,0.49,1.11c0,0.43-0.16,0.85-0.47,1.18
					c-0.31,0.33-0.71,0.53-1.15,0.57c-0.04,0-0.09,0.01-0.13,0.01c-0.39,0-0.75-0.13-1.03-0.39C7.64,9.89,7.47,9.49,7.46,9.06
					c0-0.43,0.16-0.85,0.47-1.18c0.31-0.33,0.71-0.53,1.15-0.57C9.13,7.31,9.17,7.31,9.22,7.31 M9.22,7.29c-0.04,0-0.09,0-0.14,0.01
					C8.64,7.33,8.23,7.54,7.92,7.87C7.61,8.2,7.44,8.63,7.45,9.06c0,0.44,0.18,0.83,0.5,1.12c0.28,0.25,0.65,0.39,1.04,0.39
					c0.04,0,0.09,0,0.14-0.01c0.44-0.04,0.85-0.24,1.16-0.57c0.31-0.33,0.48-0.76,0.47-1.19c0-0.44-0.18-0.83-0.5-1.12
					C9.97,7.43,9.6,7.29,9.22,7.29L9.22,7.29z"/>
			</g>
			<polygon class="st6" points="7.61,9.59 7.64,9.62 8.25,9.57 8.23,7.71 8.21,7.69 			"/>
			<polygon class="st6" points="8.99,9.48 9.03,9.54 10.56,9.41 10.59,9.36 			"/>
			<polygon class="st6" points="8.23,9.83 8.26,9.89 8.26,10.32 8.23,10.31 			"/>
			<g>
				<path class="st7" d="M8.99,9.48l1.6-0.13c0.06-0.17,0.09-0.36,0.09-0.55c-0.01-0.87-0.73-1.52-1.6-1.45
					c-0.04,0-0.07,0.01-0.11,0.01L8.99,9.48z"/>
				<path class="st7" d="M8.22,9.55L8.21,7.69c-0.42,0.32-0.7,0.82-0.7,1.37c0,0.19,0.04,0.37,0.1,0.54L8.22,9.55z"/>
				<path class="st7" d="M8.23,9.83L7.76,9.87c0.12,0.18,0.28,0.33,0.48,0.44L8.23,9.83z"/>
				<path class="st7" d="M8.99,9.77L9,10.51c0.04,0,0.07,0,0.11,0c0.57-0.05,1.07-0.38,1.34-0.85L8.99,9.77z"/>
			</g>
		</g>
		<path class="st8" d="M11.28,9c-0.08,0.1-0.17,0.24-0.19,0.43c-0.04,0.38-0.44,0.64-0.44,0.64s-0.5,0.28-0.68,0.47
			c-0.17,0.18-0.34,0.25-0.56,0.33c-0.22,0.07-0.94-0.04-1.26-0.07c-0.17-0.02-0.4,0.07-0.58,0.15c0.03,0.03,0.06,0.04,0.11,0.05
			c0,0,0.14,0.15,0.52,0.12c0.38-0.03,1.08,0.04,1.14,0.06c0.06,0.02,0.3,0.09,0.65-0.27c0.36-0.36,0.74-0.47,0.74-0.47
			s0.38-0.38,0.54-0.79C11.34,9.43,11.32,9.19,11.28,9z"/>
		<path class="st9" d="M10.91,8.59c-0.01-0.15-0.02-0.3-0.06-0.45c-0.05-0.18-0.1-0.34-0.26-0.47c-0.09-0.07-0.19-0.1-0.27-0.16l0,0
			v0c-0.01-0.03-0.04-0.04-0.06-0.05c-0.22-0.09-0.41-0.23-0.62-0.34c-0.15-0.08-0.31-0.1-0.47-0.07C9.1,7.06,9.05,7.07,9,7.07
			c-0.1,0.06-0.22,0.08-0.33,0.14c-0.19,0.1-0.37,0.2-0.54,0.33C8.01,7.64,7.9,7.73,7.77,7.79C7.57,7.87,7.46,8.03,7.39,8.22
			c-0.08,0.2-0.05,0.41-0.06,0.62C7.32,8.93,7.27,9.03,7.3,9.12c0,0.03,0,0.06,0,0.08c0,0.07-0.03,0.15,0,0.22
			c0.04,0.11,0.07,0.22,0.13,0.32C7.45,9.8,7.48,9.85,7.55,9.9C7.52,9.82,7.51,9.76,7.48,9.7c-0.05-0.1-0.1-0.21-0.11-0.33
			c-0.01-0.2,0.01-0.41,0.02-0.61C7.4,8.5,7.48,8.27,7.64,8.08c0.17-0.2,0.37-0.36,0.58-0.52c0.15-0.11,0.3-0.2,0.47-0.27
			c0.38-0.17,0.74-0.2,1.12-0.01c0.16,0.08,0.3,0.18,0.47,0.24c0.03,0.04,0.07,0.06,0.11,0.09c0.1,0.07,0.2,0.15,0.27,0.27
			c0.19,0.34,0.2,0.71,0.21,1.08c0,0.12-0.02,0.24-0.06,0.35c-0.07,0.23-0.19,0.43-0.33,0.62c-0.15,0.2-0.33,0.36-0.54,0.47
			c-0.2,0.1-0.41,0.18-0.64,0.22c-0.33,0.06-0.65,0.08-0.97-0.05c-0.24-0.1-0.46-0.22-0.6-0.45c-0.02-0.03-0.03-0.07-0.1-0.06
			c0.07,0.13,0.14,0.24,0.21,0.36c0.09,0.17,0.25,0.23,0.43,0.27c0.17,0.04,0.34,0.03,0.51,0.04c0.23,0,0.46,0,0.68-0.03
			c0.18-0.03,0.35-0.08,0.49-0.2c0.12-0.1,0.24-0.2,0.37-0.28c0.23-0.13,0.4-0.31,0.5-0.55C10.97,9.32,10.94,8.95,10.91,8.59z"/>
		<path class="st0" d="M9.48,11.19c-0.07,0.01-0.13-0.01-0.15-0.02c-0.06-0.02-0.76-0.09-1.13-0.06c-0.36,0.03-0.51-0.1-0.53-0.12
			c-0.22-0.02-0.21-0.36-0.21-0.37c0,0,0.05-0.35-0.31-0.72C6.79,9.55,7.01,9,7.03,8.96l0.02-0.38c-0.04-0.69,0.39-0.87,0.4-0.87
			l0.27-0.14c0.01,0,0.74-0.4,1.12-0.67C9.02,6.75,9.28,6.7,9.5,6.76c0.13,0.03,0.22,0.1,0.25,0.18c0.05,0.11,0.18,0.17,0.3,0.22
			c0.07,0.03,0.14,0.06,0.18,0.1c0.09,0.09,0.53,0.27,0.53,0.27c0.01,0,0.37,0.13,0.33,0.34c-0.04,0.2,0.07,0.74,0.07,0.77
			c0.01,0.03,0.26,0.6,0.11,1.01c-0.15,0.41-0.53,0.79-0.54,0.79l0,0l0,0c0,0-0.39,0.12-0.74,0.47C9.78,11.12,9.6,11.18,9.48,11.19z
			 M9.24,6.76C9.1,6.77,8.96,6.82,8.83,6.91C8.45,7.18,7.72,7.58,7.71,7.58L7.44,7.72c-0.01,0-0.42,0.18-0.38,0.86L7.04,8.97
			c0,0.01-0.24,0.57,0.12,0.94c0.37,0.37,0.31,0.73,0.31,0.73c0,0-0.01,0.33,0.2,0.35l0,0l0,0c0,0,0.15,0.14,0.52,0.11
			c0.38-0.03,1.08,0.04,1.14,0.06c0.06,0.03,0.3,0.08,0.64-0.27c0.34-0.34,0.71-0.46,0.74-0.47c0.03-0.03,0.39-0.39,0.53-0.79
			c0.15-0.41-0.11-0.99-0.11-1l0,0c0-0.02-0.11-0.57-0.07-0.77c0.04-0.2-0.32-0.32-0.32-0.32c-0.02-0.01-0.45-0.18-0.54-0.28
			c-0.03-0.04-0.1-0.06-0.17-0.09C9.92,7.12,9.79,7.06,9.74,6.95C9.71,6.87,9.62,6.81,9.49,6.78C9.41,6.76,9.33,6.75,9.24,6.76z"/>
	</g>
</g>
</svg>
