<?xml version="1.0" encoding="utf-8"?>
<!-- Generator: Adobe Illustrator 24.3.0, SVG Export Plug-In . SVG Version: 6.00 Build 0)  -->
<svg version="1.1" id="Calque_1" xmlns="http://www.w3.org/2000/svg" xmlns:xlink="http://www.w3.org/1999/xlink" x="0px" y="0px"
	 viewBox="0 0 19 19" style="enable-background:new 0 0 19 19;" xml:space="preserve">
<style type="text/css">
	.st0{fill:url(#SVGID_1_);}
	.st1{fill:#061326;}
	.st2{fill:#FEFEFE;}
	.st3{fill:#1799DF;}
	.st4{fill:#CD4054;}
	.st5{fill:url(#SVGID_2_);}
	.st6{fill:#1A1A19;}
	.st7{fill:url(#SVGID_3_);}
	.st8{fill:url(#SVGID_4_);}
	.st9{fill:url(#SVGID_5_);}
	.st10{fill:url(#SVGID_6_);}
	.st11{fill:url(#SVGID_7_);}
	.st12{fill:url(#SVGID_8_);}
	.st13{fill:url(#SVGID_9_);}
	.st14{fill:url(#SVGID_10_);}
	.st15{fill:#1F201E;}
	.st16{fill:url(#SVGID_11_);}
	.st17{fill:url(#SVGID_12_);}
	.st18{fill:url(#SVGID_13_);}
	.st19{fill:url(#SVGID_14_);}
	.st20{fill:url(#SVGID_15_);}
	.st21{fill:url(#SVGID_16_);}
	.st22{opacity:0.53;fill:#512916;}
	.st23{fill:url(#SVGID_17_);}
	.st24{fill:url(#SVGID_18_);}
	.st25{opacity:0.23;fill:url(#SVGID_19_);}
	.st26{fill:url(#SVGID_20_);}
	.st27{fill:url(#SVGID_21_);}
	.st28{fill:url(#SVGID_22_);}
	.st29{fill:url(#SVGID_23_);}
	.st30{fill:url(#SVGID_24_);}
	.st31{fill:url(#SVGID_25_);}
	.st32{fill:url(#SVGID_26_);}
	.st33{fill:url(#SVGID_27_);}
	.st34{fill:url(#SVGID_28_);}
	.st35{fill:url(#SVGID_29_);}
	.st36{fill:url(#SVGID_30_);}
	.st37{fill:url(#SVGID_31_);}
	.st38{fill:url(#SVGID_32_);}
	.st39{fill:url(#SVGID_33_);}
	.st40{fill:url(#SVGID_34_);}
	.st41{fill:url(#SVGID_35_);}
	.st42{fill:url(#SVGID_36_);}
	.st43{fill:url(#SVGID_37_);}
	.st44{fill:url(#SVGID_38_);}
	.st45{fill:url(#SVGID_39_);}
	.st46{fill:url(#SVGID_40_);}
	.st47{fill:url(#SVGID_41_);}
	.st48{fill:url(#SVGID_42_);}
	.st49{opacity:0.23;fill:url(#SVGID_43_);}
	.st50{fill:url(#SVGID_44_);}
	.st51{fill:url(#SVGID_45_);}
	.st52{fill:url(#SVGID_46_);}
	.st53{fill:url(#SVGID_47_);}
	.st54{fill:url(#SVGID_48_);}
	.st55{fill:url(#SVGID_49_);}
	.st56{fill:url(#SVGID_50_);}
	.st57{fill:url(#SVGID_51_);}
	.st58{fill:url(#SVGID_52_);}
	.st59{fill:url(#SVGID_53_);}
	.st60{fill:url(#SVGID_54_);}
	.st61{fill:url(#SVGID_55_);}
	.st62{fill:url(#SVGID_56_);}
	.st63{fill:url(#SVGID_57_);}
	.st64{fill:url(#SVGID_58_);}
	.st65{fill:url(#SVGID_59_);}
	.st66{fill:url(#SVGID_60_);}
	.st67{fill:url(#SVGID_61_);}
	.st68{fill:url(#SVGID_62_);}
	.st69{fill:url(#SVGID_63_);}
	.st70{fill:url(#SVGID_64_);}
	.st71{fill:url(#SVGID_65_);}
	.st72{fill:url(#SVGID_66_);}
	.st73{opacity:0.23;fill:url(#SVGID_67_);}
	.st74{fill:url(#SVGID_68_);}
	.st75{fill:url(#SVGID_69_);}
	.st76{fill:url(#SVGID_70_);}
	.st77{fill:url(#SVGID_71_);}
	.st78{fill:url(#SVGID_72_);}
	.st79{fill:url(#SVGID_73_);}
	.st80{fill:url(#SVGID_74_);}
	.st81{fill:url(#SVGID_75_);}
	.st82{fill:url(#SVGID_76_);}
	.st83{fill:url(#SVGID_77_);}
	.st84{fill:url(#SVGID_78_);}
	.st85{fill:url(#SVGID_79_);}
	.st86{fill:url(#SVGID_80_);}
	.st87{fill:url(#SVGID_81_);}
	.st88{fill:url(#SVGID_82_);}
	.st89{fill:url(#SVGID_83_);}
	.st90{fill:url(#SVGID_84_);}
	.st91{fill:url(#SVGID_85_);}
	.st92{fill:url(#SVGID_86_);}
</style>
<g>
	<ellipse class="st1" cx="9.35" cy="17.18" rx="8.81" ry="1.36"/>
	<g>
		
			<radialGradient id="SVGID_1_" cx="-1.2919" cy="-128.4745" r="7.7866" gradientTransform="matrix(0.9609 0.277 -0.277 0.9609 -25.2904 131.4112)" gradientUnits="userSpaceOnUse">
			<stop  offset="0" style="stop-color:#00BF0C"/>
			<stop  offset="1" style="stop-color:#007F1D"/>
		</radialGradient>
		<path class="st0" d="M18.53,12.15c-0.15-0.85-0.49-1.65-1.02-2.39c-0.09-0.13-0.18-0.27-0.28-0.39c-0.28-0.35-0.59-0.68-0.91-1.01
			c-0.25-0.26-0.48-0.53-0.72-0.8c-0.11-0.14-0.22-0.27-0.32-0.42c-0.27-0.4-0.55-0.78-0.76-1.21c-0.17-0.28-0.3-0.58-0.43-0.88
			c-0.23-0.54-0.41-1.09-0.56-1.64c-0.05-0.19-0.16-0.34-0.38-0.4c-0.22-0.06-0.39,0.01-0.53,0.15c-0.24,0.22-0.49,0.44-0.75,0.64
			c-1.22,0.95-2.59,1.64-4.16,2.02C7.09,5.98,6.46,6.14,5.88,6.4C5.24,6.68,4.67,7.04,4.17,7.48C3.87,7.75,3.59,8.02,3.39,8.36l0,0
			C3.37,8.38,3.35,8.4,3.34,8.42c-0.38,0.55-0.62,1.16-0.71,1.82c-0.13,0.94,0.02,1.86,0.49,2.74c0.01,0.05,0.03,0.09,0.06,0.12
			c0.11,0.16,0.21,0.32,0.3,0.49c0.01,0.02,0.03,0.05,0.04,0.07c0.63,0.88,1.44,1.59,2.4,2.17c1.64,0.99,3.43,1.56,5.33,1.8
			c1.27,0.16,2.53,0.11,3.73-0.25C17.55,16.65,18.95,14.59,18.53,12.15z"/>
		<path class="st1" d="M8.96,17.44c-1.13-0.33-2.19-0.79-3.17-1.38c-1.03-0.62-1.86-1.37-2.48-2.24c-0.02-0.03-0.04-0.06-0.05-0.08
			c0-0.01-0.01-0.01-0.01-0.02l0,0c-0.08-0.15-0.17-0.29-0.28-0.46c-0.04-0.04-0.08-0.11-0.1-0.19c-0.48-0.9-0.65-1.87-0.5-2.86
			c0.1-0.7,0.35-1.36,0.76-1.93C3.15,8.24,3.17,8.22,3.19,8.2C3.41,7.83,3.72,7.54,4,7.29c0.5-0.44,1.1-0.82,1.78-1.13
			c0.62-0.27,1.27-0.44,1.89-0.59c1.47-0.36,2.84-1.02,4.06-1.97c0.25-0.2,0.5-0.41,0.73-0.62c0.23-0.22,0.49-0.29,0.77-0.21
			c0,0,0,0,0.01,0c0.2,0.06,0.45,0.2,0.55,0.58c0.14,0.55,0.33,1.09,0.55,1.61c0.11,0.26,0.25,0.56,0.41,0.85l0.01,0.02
			c0.17,0.34,0.38,0.66,0.61,1c0.04,0.06,0.08,0.12,0.12,0.18c0.06,0.09,0.13,0.18,0.21,0.27c0.03,0.04,0.07,0.08,0.1,0.13
			c0.07,0.08,0.14,0.16,0.21,0.24c0.16,0.18,0.32,0.37,0.49,0.54c0.31,0.32,0.63,0.66,0.93,1.03c0.07,0.09,0.14,0.19,0.2,0.28
			c0.03,0.04,0.05,0.08,0.08,0.12c0.55,0.78,0.91,1.62,1.06,2.49l0,0c0.22,1.26-0.02,2.45-0.69,3.44c-0.67,0.98-1.71,1.71-3.03,2.1
			c-1.17,0.34-2.46,0.43-3.84,0.26C10.44,17.8,9.69,17.65,8.96,17.44z M3.71,13.48c0.01,0.01,0.01,0.02,0.02,0.03
			c0,0.01,0.01,0.02,0.01,0.02c0.58,0.81,1.36,1.52,2.32,2.1c1.54,0.93,3.3,1.52,5.23,1.77c1.32,0.17,2.51,0.09,3.63-0.24
			c2.44-0.72,3.76-2.66,3.36-4.96l0,0c-0.14-0.8-0.46-1.56-0.97-2.28c-0.03-0.04-0.06-0.09-0.09-0.13
			c-0.06-0.09-0.12-0.17-0.18-0.25c-0.28-0.35-0.59-0.68-0.9-0.99c-0.18-0.18-0.34-0.37-0.51-0.56c-0.07-0.08-0.14-0.16-0.22-0.24
			l-0.01-0.01c-0.03-0.04-0.07-0.08-0.1-0.13c-0.08-0.1-0.16-0.2-0.23-0.31c-0.04-0.06-0.08-0.12-0.12-0.18
			c-0.23-0.33-0.47-0.68-0.65-1.05c-0.18-0.31-0.32-0.63-0.44-0.9c-0.23-0.54-0.42-1.11-0.57-1.68c-0.04-0.15-0.11-0.2-0.2-0.22
			C13,3.24,12.92,3.24,12.81,3.35C12.56,3.58,12.31,3.8,12.04,4c-1.28,1-2.71,1.69-4.25,2.07c-0.6,0.15-1.23,0.31-1.81,0.57
			C5.35,6.92,4.79,7.27,4.34,7.67C4.07,7.91,3.79,8.17,3.61,8.49L3.6,8.51L3.58,8.53C3.57,8.54,3.56,8.55,3.55,8.56
			c0,0-0.01,0.01-0.01,0.01c-0.35,0.51-0.58,1.09-0.67,1.71c-0.13,0.9,0.03,1.77,0.47,2.58l0.02,0.04l0,0.03c0,0,0,0,0.01,0.01
			l0.01,0.01l0.01,0.01C3.52,13.15,3.61,13.31,3.71,13.48z M3.36,12.92L3.36,12.92L3.36,12.92z"/>
		<path class="st2" d="M12.63,12.76c-1.02-0.42-1.54-1.99-0.49-2.92c0.89-0.67,2.04-0.24,2.48,0.65c0.02,0.04,0.05,0.08,0.07,0.13
			c0.13,0.38,0.18,0.76,0.06,1.16c-0.25,0.85-1.06,1.3-1.91,1.05C12.77,12.8,12.7,12.78,12.63,12.76z"/>
		<path class="st1" d="M12.81,12.95C12.81,12.95,12.81,12.95,12.81,12.95c-0.06-0.02-0.1-0.03-0.15-0.05l-0.08-0.02
			c-0.57-0.24-1.01-0.81-1.12-1.47c-0.11-0.63,0.11-1.24,0.59-1.67l0.01-0.01c0.42-0.32,0.92-0.42,1.42-0.31c0.53,0.12,1,0.5,1.25,1
			c0.01,0.03,0.03,0.05,0.04,0.08c0.01,0.01,0.02,0.03,0.02,0.04l0.01,0.01l0,0.01c0.15,0.46,0.17,0.85,0.06,1.24
			c-0.13,0.44-0.41,0.81-0.79,1.01C13.7,13.03,13.25,13.08,12.81,12.95z M12.67,12.64l0.06,0.02c0.05,0.01,0.09,0.03,0.14,0.04
			c0,0,0.01,0,0.01,0c0.37,0.11,0.75,0.07,1.07-0.1c0.32-0.18,0.56-0.48,0.67-0.86c0.1-0.33,0.08-0.67-0.06-1.07
			c-0.01-0.01-0.01-0.02-0.02-0.03c-0.02-0.03-0.03-0.06-0.05-0.09c-0.22-0.44-0.62-0.76-1.08-0.87c-0.42-0.1-0.85-0.01-1.21,0.26
			c-0.42,0.37-0.59,0.88-0.5,1.43C11.81,11.94,12.19,12.44,12.67,12.64z"/>
		<path class="st3" d="M10.3,13.68c-0.14-0.01-0.26-0.04-0.38-0.11C10.04,13.6,10.17,13.64,10.3,13.68z"/>
		<path class="st2" d="M10.46,10.04c-0.12,0.59-0.42,1.04-0.96,1.31c-0.72,0.36-1.39,0.26-2-0.26c-0.6-0.68-0.53-1.67,0.15-2.3
			c0.56-0.52,1.57-0.75,2.38-0.04C10.39,9.11,10.49,9.55,10.46,10.04z"/>
		<path class="st1" d="M8.2,11.63c-0.27-0.08-0.53-0.22-0.79-0.44L7.4,11.17C6.75,10.44,6.82,9.38,7.56,8.7
			c0.63-0.58,1.71-0.78,2.55-0.05l0.01,0.01c0.35,0.35,0.51,0.81,0.47,1.39l0,0.02c-0.13,0.66-0.48,1.13-1.03,1.4
			C9.09,11.7,8.63,11.75,8.2,11.63z M7.59,11c0.58,0.49,1.19,0.57,1.86,0.24c0.48-0.24,0.78-0.64,0.89-1.21
			c0.03-0.51-0.1-0.88-0.39-1.18C9.21,8.21,8.27,8.38,7.73,8.89C7.1,9.47,7.04,10.37,7.59,11z"/>
		<path class="st1" d="M13.71,10.99c-0.1,0.36-0.45,0.55-0.81,0.45c-0.4-0.12-0.64-0.55-0.52-0.95c0.1-0.35,0.46-0.55,0.82-0.45
			C13.59,10.15,13.82,10.59,13.71,10.99z"/>
		<path class="st1" d="M9.32,9.61c-0.11,0.4-0.54,0.64-0.94,0.52c-0.36-0.1-0.55-0.45-0.45-0.81c0.11-0.4,0.55-0.64,0.95-0.53
			C9.23,8.9,9.43,9.25,9.32,9.61z"/>
		<g>
			<path class="st1" d="M15.15,13.73c-0.19-0.33-0.59-0.47-0.94-0.33c-0.23,0.09-0.46,0.19-0.7,0.26c-1.07,0.3-2.13,0.33-3.2,0.03
				c-0.28-0.07-0.23-0.05-0.77-0.23C9,13.28,7.67,12.45,7,11.58c-0.15-0.19-0.26-0.41-0.47-0.55c-0.32-0.15-0.62-0.14-0.89,0.1
				c-0.25,0.23-0.31,0.51-0.21,0.83c0.04,0.08,0.08,0.16,0.12,0.24c0.19,0.24,0.37,0.49,0.58,0.72c1.17,1.29,2.64,2.05,4.34,2.37
				c1.44,0.27,2.84,0.14,4.19-0.43c0.11-0.05,0.23-0.08,0.31-0.18c0,0,0,0,0,0c0,0,0,0,0,0C15.26,14.44,15.34,14.06,15.15,13.73z"/>
			<path class="st4" d="M13.53,15.1c0.11-0.39-0.15-0.85-0.68-1.29c-0.85,0.15-1.7,0.12-2.55-0.12c-0.28-0.07-0.23-0.05-0.77-0.23
				c-0.38-0.13-1.15-0.58-1.81-1.14c-0.7,0.09-1.18,0.34-1.3,0.74c-0.01,0.05-0.02,0.1-0.03,0.16c1.13,1.12,2.5,1.8,4.07,2.09
				c1.02,0.19,2.02,0.18,2.99-0.04C13.49,15.21,13.51,15.16,13.53,15.1z"/>
			<path class="st1" d="M7.66,12.55c0.67,0.55,1.42,0.98,1.81,1.12c0.26,0.09,0.38,0.13,0.48,0.16c0.06,0.02,0.11,0.03,0.17,0.04
				c0.04,0.01,0.08,0.02,0.13,0.03c0.83,0.23,1.68,0.28,2.54,0.14c0.42,0.37,0.61,0.73,0.54,1c0,0.01,0,0.02-0.01,0.02
				c-0.9,0.19-1.84,0.2-2.8,0.02c-0.28-0.05-0.55-0.12-0.81-0.19c-1.18-0.34-2.21-0.93-3.07-1.76c0-0.01,0-0.01,0-0.02
				C6.71,12.84,7.08,12.64,7.66,12.55 M7.72,12.32c-0.7,0.09-1.18,0.34-1.3,0.74c-0.01,0.05-0.02,0.1-0.03,0.16
				c0.92,0.92,2.01,1.54,3.24,1.89c0.27,0.08,0.55,0.14,0.83,0.2c1.02,0.19,2.02,0.18,2.99-0.04c0.03-0.05,0.05-0.1,0.07-0.15
				c0.11-0.39-0.15-0.85-0.68-1.29c-0.85,0.15-1.7,0.12-2.55-0.12c-0.14-0.04-0.2-0.05-0.3-0.07c-0.09-0.03-0.21-0.07-0.47-0.15
				C9.16,13.33,8.38,12.88,7.72,12.32L7.72,12.32z"/>
		</g>
	</g>
	<g>
		<g>
			<path class="st15" d="M6.27,15.81l0.68-0.18l0.18-0.67l-0.49-0.5l-0.68,0.18l-0.18,0.67L6.27,15.81 M3.91,1.09l0.16,0.16
				L5.1,2.29L4.58,4.2L2.68,4.7L1.29,3.3l0.39-1.42l0.06-0.21L1.57,1.81C0.69,2.57,0.34,3.73,0.63,4.85C0.91,5.92,1.76,6.74,2.84,7
				l2.41,9.11c0.12,0.46,0.6,0.74,1.07,0.62l1.05-0.28c0.46-0.12,0.74-0.6,0.62-1.07L5.58,6.28c0.81-0.76,1.14-1.89,0.86-2.96
				C6.14,2.2,5.25,1.36,4.12,1.13L3.91,1.09L3.91,1.09z M6.02,14.69l0.6-0.16l0.44,0.44l-0.16,0.6l-0.6,0.16l-0.44-0.44L6.02,14.69
				L6.02,14.69z"/>
			<path class="st1" d="M8.03,16.51c-0.15,0.15-0.35,0.26-0.56,0.32l-1.05,0.28c-0.33,0.09-0.67,0.04-0.96-0.13
				c-0.29-0.17-0.5-0.44-0.59-0.77l-2.35-8.9C1.41,6.97,0.55,6.08,0.25,4.94c-0.33-1.26,0.07-2.58,1.06-3.43l1.13-0.98L1.72,3.19
				L2.8,4.27l1.47-0.39l0.4-1.47L2.73,0.46l1.47,0.3c1.28,0.26,2.28,1.2,2.61,2.46c0.3,1.13-0.01,2.33-0.8,3.18l2.35,8.9
				c0.09,0.33,0.04,0.67-0.13,0.96C8.18,16.35,8.11,16.43,8.03,16.51z M5.51,15.6l0.11,0.41c0.03,0.12,0.11,0.23,0.22,0.29
				c0.11,0.06,0.24,0.08,0.37,0.05l1.05-0.28c0.12-0.03,0.23-0.11,0.29-0.22c0.06-0.11,0.08-0.24,0.05-0.37L7.5,15.08l-0.24,0.87
				l-1.11,0.29L5.51,15.6z M5.64,14.32l1.11-0.29l0.64,0.64L5.14,6.15l0.17-0.16c0.71-0.66,0.99-1.65,0.75-2.58
				c-0.11-0.41-0.3-0.77-0.57-1.07L4.9,4.52L2.56,5.13l-1.59-1.6C0.89,3.93,0.9,4.34,1.01,4.75C1.25,5.68,1.99,6.4,2.93,6.62
				l0.23,0.05l2.25,8.52L5.64,14.32z M6.41,15.3l0.17-0.04l0.04-0.16L6.5,14.97l-0.17,0.04l-0.04,0.16L6.41,15.3z"/>
		</g>
		
			<radialGradient id="SVGID_2_" cx="92.8338" cy="233.5148" r="7.8101" gradientTransform="matrix(0.9669 -0.2553 0.2553 0.9669 -143.0619 -191.1224)" gradientUnits="userSpaceOnUse">
			<stop  offset="0" style="stop-color:#B2B2B2"/>
			<stop  offset="1" style="stop-color:#575756"/>
		</radialGradient>
		<path class="st5" d="M4.11,1.2l1.07,1.08L4.64,4.25L2.66,4.78L1.21,3.32l0.4-1.46C0.79,2.57,0.4,3.71,0.69,4.83
			c0.29,1.1,1.16,1.88,2.2,2.12l2.42,9.15c0.11,0.43,0.56,0.69,0.98,0.57l1.05-0.28c0.43-0.11,0.69-0.56,0.57-0.98L5.5,6.25
			c0.79-0.71,1.16-1.83,0.87-2.93C6.08,2.21,5.17,1.41,4.11,1.2z M6.94,15.63l-0.68,0.18l-0.49-0.5l0.18-0.67l0.68-0.18l0.49,0.5
			L6.94,15.63z"/>
		
			<radialGradient id="SVGID_3_" cx="92.0131" cy="226.0652" r="7.7055" gradientTransform="matrix(0.9669 -0.2553 0.2553 0.9669 -143.0619 -191.1224)" gradientUnits="userSpaceOnUse">
			<stop  offset="0" style="stop-color:#B2B2B2"/>
			<stop  offset="1" style="stop-color:#575756"/>
		</radialGradient>
		<path class="st7" d="M5.5,2.37c0.26,0.29,0.45,0.65,0.55,1.04C6.3,4.36,6,5.35,5.28,6.01L5.13,6.14l0.05,0.2l2.22,8.41l-0.04-0.04
			l-0.49-0.5l-0.14-0.14l-0.19,0.05l-0.68,0.18l-0.19,0.05l-0.05,0.19l-0.18,0.67l-0.01,0.05L3.22,6.86l-0.05-0.2l-0.2-0.04
			C2.01,6.4,1.27,5.69,1.02,4.74c-0.1-0.4-0.11-0.8-0.04-1.18l1.44,1.45l0.14,0.14L2.74,5.1l1.98-0.52l0.19-0.05l0.05-0.19L5.5,2.37
			 M7.46,14.99l0.13,0.5c0.07,0.25-0.08,0.51-0.33,0.57l-1.05,0.28c-0.25,0.07-0.51-0.08-0.57-0.33l-0.13-0.5l0.04,0.04l0.49,0.5
			l0.14,0.14l0.19-0.05l0.68-0.18l0.19-0.05l0.05-0.19l0.18-0.67L7.46,14.99 M4.11,1.2l1.07,1.08L4.64,4.25L2.66,4.78L1.21,3.32
			l0.4-1.46C0.79,2.57,0.4,3.71,0.69,4.83c0.29,1.1,1.16,1.88,2.2,2.12l2.42,9.15c0.11,0.43,0.56,0.69,0.98,0.57l1.05-0.28
			c0.43-0.11,0.69-0.56,0.57-0.98L5.5,6.25c0.79-0.71,1.16-1.83,0.87-2.93C6.08,2.21,5.17,1.41,4.11,1.2L4.11,1.2z M6.27,15.81
			l-0.49-0.5l0.18-0.67l0.68-0.18l0.49,0.5l-0.18,0.67L6.27,15.81L6.27,15.81z"/>
	</g>
</g>
</svg>
