<?xml version="1.0" encoding="utf-8"?>
<!-- Generator: Adobe Illustrator 24.3.0, SVG Export Plug-In . SVG Version: 6.00 Build 0)  -->
<svg version="1.1" id="Calque_1" xmlns="http://www.w3.org/2000/svg" xmlns:xlink="http://www.w3.org/1999/xlink" x="0px" y="0px"
	 viewBox="0 0 19 19" style="enable-background:new 0 0 19 19;" xml:space="preserve">
<style type="text/css">
	.st0{fill:url(#SVGID_1_);}
	.st1{fill:#061326;}
	.st2{fill:#FEFEFE;}
	.st3{fill:#1799DF;}
	.st4{fill:#CD4054;}
	.st5{fill:url(#SVGID_2_);}
	.st6{fill:url(#SVGID_3_);}
	.st7{fill:url(#SVGID_4_);}
	.st8{opacity:0.2;}
	.st9{fill:#FFFAEF;}
	.st10{opacity:0.1;fill:#FFFAEF;}
	.st11{fill:url(#SVGID_5_);}
	.st12{fill:url(#SVGID_6_);}
	.st13{fill:url(#SVGID_7_);}
	.st14{fill:url(#SVGID_8_);}
	.st15{fill:url(#SVGID_9_);}
	.st16{fill:url(#SVGID_10_);}
</style>
<g>
	<g>
		<g>
			<radialGradient id="SVGID_1_" cx="6.1902" cy="7.8505" r="8.5635" gradientUnits="userSpaceOnUse">
				<stop  offset="7.537689e-03" style="stop-color:#FCEA10"/>
				<stop  offset="1" style="stop-color:#F39200"/>
			</radialGradient>
			<path class="st0" d="M17.96,9.49c-0.41-0.86-1.02-1.59-1.8-2.21c-0.14-0.11-0.27-0.23-0.41-0.33c-0.41-0.29-0.84-0.54-1.27-0.79
				c-0.34-0.2-0.67-0.41-1-0.62C13.31,5.42,13.15,5.31,13,5.19c-0.4-0.34-0.82-0.66-1.17-1.05c-0.26-0.25-0.5-0.52-0.72-0.8
				c-0.4-0.5-0.77-1.02-1.09-1.56C9.9,1.59,9.74,1.47,9.5,1.47c-0.25,0-0.4,0.13-0.52,0.32C8.8,2.09,8.6,2.4,8.39,2.69
				c-1,1.37-2.24,2.52-3.78,3.4C3.99,6.45,3.37,6.81,2.83,7.27C2.25,7.75,1.74,8.31,1.35,8.93C1.12,9.3,0.9,9.67,0.8,10.09h0
				c-0.01,0.03-0.03,0.05-0.04,0.08c-0.24,0.7-0.3,1.42-0.2,2.15c0.15,1.04,0.59,1.96,1.36,2.74c0.02,0.05,0.06,0.08,0.1,0.11
				c0.16,0.14,0.32,0.28,0.47,0.43c0.02,0.02,0.04,0.05,0.07,0.07c0.93,0.74,2.01,1.25,3.2,1.56c2.03,0.55,4.1,0.61,6.18,0.28
				c1.4-0.22,2.7-0.66,3.87-1.4C18.29,14.54,19.14,11.93,17.96,9.49z"/>
			<path class="st1" d="M9.45,17.99c-1.3,0-2.56-0.16-3.77-0.49c-1.27-0.34-2.38-0.89-3.3-1.62c-0.03-0.02-0.05-0.05-0.07-0.07
				C2.31,15.81,2.3,15.81,2.3,15.8l0,0c-0.13-0.13-0.27-0.26-0.44-0.4c-0.05-0.04-0.12-0.09-0.16-0.17
				c-0.78-0.81-1.25-1.78-1.4-2.87c-0.11-0.77-0.04-1.54,0.21-2.27c0.01-0.04,0.03-0.07,0.04-0.09C0.66,9.53,0.9,9.13,1.11,8.78
				c0.39-0.62,0.91-1.2,1.54-1.73c0.57-0.48,1.21-0.86,1.82-1.21C5.92,5.02,7.16,3.9,8.16,2.52c0.21-0.28,0.4-0.58,0.58-0.88
				c0.18-0.3,0.43-0.45,0.76-0.46c0,0,0,0,0.01,0c0.22,0,0.53,0.08,0.76,0.45c0.32,0.53,0.68,1.05,1.07,1.53
				c0.2,0.24,0.43,0.52,0.7,0.77l0.02,0.02c0.28,0.31,0.61,0.58,0.95,0.87c0.06,0.05,0.12,0.1,0.18,0.15
				c0.09,0.08,0.19,0.15,0.3,0.22c0.05,0.03,0.1,0.07,0.15,0.1c0.1,0.06,0.2,0.13,0.3,0.19c0.22,0.14,0.45,0.29,0.68,0.42
				c0.42,0.24,0.87,0.51,1.29,0.81c0.11,0.08,0.21,0.16,0.3,0.24c0.04,0.03,0.08,0.07,0.12,0.1c0.82,0.66,1.45,1.43,1.88,2.31l0,0
				c0.61,1.26,0.72,2.59,0.32,3.85c-0.4,1.24-1.29,2.33-2.56,3.14c-1.13,0.72-2.47,1.2-3.98,1.44
				C11.13,17.92,10.28,17.99,9.45,17.99z M2.69,15.4c0.01,0.01,0.02,0.02,0.02,0.03c0.01,0.01,0.02,0.02,0.02,0.02
				c0.85,0.68,1.9,1.19,3.09,1.51c1.91,0.51,3.95,0.61,6.07,0.28c1.45-0.23,2.68-0.67,3.76-1.36c2.36-1.5,3.16-3.96,2.04-6.27l0,0
				c-0.39-0.8-0.97-1.51-1.72-2.11c-0.05-0.04-0.09-0.07-0.13-0.11c-0.09-0.08-0.18-0.15-0.27-0.21c-0.4-0.28-0.84-0.54-1.25-0.78
				c-0.24-0.14-0.48-0.29-0.71-0.44c-0.1-0.06-0.2-0.13-0.3-0.19L13.3,5.76c-0.05-0.04-0.1-0.07-0.15-0.1
				c-0.11-0.08-0.23-0.16-0.34-0.25c-0.06-0.05-0.12-0.1-0.18-0.15c-0.34-0.28-0.7-0.58-1.01-0.92c-0.29-0.27-0.53-0.56-0.74-0.82
				c-0.41-0.5-0.78-1.04-1.12-1.6C9.69,1.78,9.6,1.75,9.5,1.75c-0.1,0-0.19,0.03-0.28,0.18C9.03,2.24,8.83,2.56,8.61,2.85
				C7.56,4.3,6.26,5.47,4.75,6.33c-0.59,0.34-1.21,0.7-1.74,1.15c-0.58,0.49-1.06,1.03-1.42,1.6c-0.21,0.33-0.42,0.69-0.52,1.08
				l-0.01,0.03l-0.01,0.03c-0.01,0.01-0.01,0.02-0.02,0.04c0,0-0.01,0.01-0.01,0.01c-0.22,0.65-0.28,1.33-0.18,2.01
				c0.14,0.99,0.57,1.86,1.28,2.59l0.04,0.04l0.01,0.03c0,0,0.01,0,0.01,0.01l0.02,0.01l0.01,0.01C2.39,15.12,2.54,15.25,2.69,15.4z
				 M2.16,14.92L2.16,14.92L2.16,14.92z"/>
			<path class="st2" d="M11.9,11.93c-1.2-0.13-2.23-1.63-1.41-2.94c0.74-0.98,2.08-0.88,2.82-0.07c0.04,0.04,0.07,0.08,0.11,0.11
				c0.25,0.36,0.42,0.75,0.42,1.21c0,0.97-0.73,1.7-1.7,1.69C12.06,11.93,11.98,11.93,11.9,11.93z"/>
			<path class="st1" d="M12.15,12.07c0,0-0.01,0-0.01,0c-0.05,0-0.11,0-0.16,0l-0.09,0c-0.67-0.08-1.31-0.55-1.63-1.21
				C9.95,10.22,10,9.51,10.37,8.92l0.01-0.01c0.35-0.46,0.85-0.73,1.41-0.76c0.6-0.03,1.21,0.22,1.63,0.68
				c0.02,0.02,0.05,0.05,0.07,0.07c0.01,0.01,0.02,0.02,0.04,0.04l0.01,0.01l0.01,0.01c0.3,0.44,0.45,0.85,0.44,1.29
				c0,0.51-0.19,0.98-0.53,1.31C13.12,11.89,12.66,12.07,12.15,12.07z M11.91,11.79l0.07,0c0.05,0,0.11,0,0.16,0c0,0,0.01,0,0.01,0
				c0.43,0,0.82-0.15,1.1-0.44c0.29-0.28,0.45-0.68,0.45-1.12c0-0.37-0.12-0.73-0.39-1.12c-0.01-0.01-0.02-0.02-0.03-0.03
				c-0.03-0.03-0.05-0.05-0.08-0.08c-0.36-0.39-0.89-0.61-1.41-0.59c-0.48,0.02-0.9,0.25-1.19,0.64c-0.33,0.52-0.36,1.11-0.09,1.67
				C10.79,11.31,11.34,11.72,11.91,11.79z"/>
			<path class="st3" d="M9.72,13.61c-0.15,0.03-0.29,0.04-0.44,0C9.42,13.61,9.57,13.61,9.72,13.61z"/>
			<path class="st2" d="M8.78,9.71c0.06,0.66-0.13,1.23-0.62,1.68c-0.65,0.6-1.39,0.7-2.2,0.33c-0.84-0.53-1.07-1.6-0.54-2.47
				c0.43-0.72,1.43-1.27,2.51-0.77C8.42,8.75,8.67,9.19,8.78,9.71z"/>
			<path class="st1" d="M6.88,12.08c-0.31,0-0.63-0.07-0.96-0.23l-0.02-0.01c-0.91-0.58-1.16-1.72-0.59-2.66
				c0.49-0.81,1.57-1.35,2.69-0.83l0.01,0c0.48,0.27,0.78,0.7,0.92,1.32l0,0.02c0.06,0.73-0.16,1.34-0.66,1.79
				C7.84,11.88,7.37,12.08,6.88,12.08z M6.04,11.6c0.77,0.34,1.43,0.24,2.04-0.31c0.43-0.39,0.62-0.92,0.57-1.55
				c-0.12-0.54-0.37-0.9-0.78-1.13C6.9,8.16,5.97,8.63,5.55,9.33C5.06,10.13,5.27,11.11,6.04,11.6z"/>
			<path class="st1" d="M13.17,9.65c0,0.41-0.31,0.72-0.72,0.72c-0.46,0-0.84-0.39-0.84-0.84c0-0.41,0.32-0.72,0.73-0.72
				C12.79,8.81,13.17,9.2,13.17,9.65z"/>
			<path class="st1" d="M8.12,9.53c0,0.46-0.38,0.84-0.84,0.84c-0.41,0-0.72-0.31-0.73-0.72c0-0.45,0.39-0.84,0.84-0.84
				C7.8,8.81,8.12,9.12,8.12,9.53z"/>
			<g>
				<path class="st1" d="M14.86,12.18c-0.3-0.29-0.76-0.32-1.1-0.06c-0.22,0.17-0.43,0.34-0.66,0.49c-1.03,0.65-2.15,1-3.38,1.01
					c-0.32,0.01-0.26,0.02-0.88-0.01c-0.62-0.03-2.28-0.5-3.25-1.21c-0.21-0.16-0.4-0.35-0.66-0.44c-0.38-0.06-0.7,0.04-0.91,0.38
					c-0.2,0.32-0.17,0.64,0.03,0.95c0.07,0.07,0.14,0.14,0.2,0.22c0.28,0.2,0.55,0.41,0.83,0.58c1.63,1,3.41,1.37,5.31,1.18
					c1.6-0.16,3.04-0.72,4.3-1.73c0.1-0.08,0.22-0.15,0.27-0.28c0,0,0,0,0,0c0,0,0,0,0,0C15.2,12.9,15.16,12.47,14.86,12.18z"/>
				<path class="st4" d="M13.57,14.13c0-0.45-0.42-0.86-1.11-1.16c-0.85,0.42-1.76,0.64-2.73,0.65c-0.32,0.01-0.26,0.02-0.88-0.01
					c-0.44-0.02-1.39-0.26-2.26-0.65c-0.71,0.3-1.15,0.72-1.15,1.17c0,0.06,0.01,0.12,0.02,0.17c1.53,0.84,3.19,1.14,4.94,0.97
					c1.13-0.11,2.18-0.42,3.15-0.96C13.56,14.25,13.57,14.19,13.57,14.13z"/>
				<path class="st1" d="M6.58,13.22c0.88,0.38,1.8,0.61,2.25,0.63c0.3,0.02,0.45,0.02,0.56,0.02c0.07,0,0.12,0,0.19-0.01
					c0.04,0,0.09,0,0.15-0.01c0.95-0.01,1.86-0.22,2.73-0.62c0.55,0.26,0.87,0.58,0.87,0.89c0,0.01,0,0.02,0,0.03
					c-0.89,0.48-1.89,0.77-2.95,0.87c-0.31,0.03-0.61,0.05-0.91,0.05c-1.35,0-2.62-0.31-3.78-0.93c0-0.01,0-0.01,0-0.02
					C5.67,13.81,6,13.49,6.58,13.22 M6.58,12.96c-0.71,0.3-1.15,0.72-1.15,1.17c0,0.06,0.01,0.12,0.02,0.17
					c1.26,0.69,2.59,1.01,4,1.01c0.31,0,0.62-0.02,0.94-0.05c1.13-0.11,2.18-0.42,3.15-0.96c0.02-0.06,0.02-0.12,0.02-0.18
					c0-0.45-0.42-0.86-1.11-1.16c-0.85,0.42-1.76,0.64-2.73,0.65c-0.16,0.01-0.23,0.01-0.33,0.01c-0.1,0-0.24-0.01-0.54-0.02
					C8.41,13.59,7.45,13.35,6.58,12.96L6.58,12.96z"/>
			</g>
			<ellipse transform="matrix(0.8197 -0.5727 0.5727 0.8197 -3.009 4.1373)" class="st2" cx="5.07" cy="6.85" rx="0.99" ry="0.4"/>
			
				<ellipse transform="matrix(0.8197 -0.5727 0.5727 0.8197 -2.0654 4.7725)" class="st2" cx="6.55" cy="5.67" rx="0.65" ry="0.21"/>
		</g>
		<g>
			<linearGradient id="SVGID_2_" gradientUnits="userSpaceOnUse" x1="2.8918" y1="10.1302" x2="16.1441" y2="10.1302">
				<stop  offset="0" style="stop-color:#6B13D4"/>
				<stop  offset="1" style="stop-color:#340094"/>
			</linearGradient>
			<path class="st5" d="M13.23,7.21c-0.08,0-0.16,0-0.23,0.01c0,0,0-0.01,0-0.01h-3.5H8.83H6.04c0,0,0,0.01,0,0.01
				C5.96,7.22,5.89,7.21,5.81,7.21c-1.61,0-2.92,1.31-2.92,2.92c0,1.61,1.31,2.92,2.92,2.92c1.5,0,2.73-1.13,2.9-2.58l0,0
				c0.18-1.1,0.81-0.99,0.81-0.99s0.63-0.11,0.81,0.99l0,0c0.16,1.45,1.4,2.58,2.9,2.58c1.61,0,2.92-1.31,2.92-2.92
				C16.14,8.52,14.84,7.21,13.23,7.21z"/>
			<g class="st8">
				<path class="st9" d="M5.81,13.05c0.13,0,0.27-0.01,0.4-0.03c0.51-2.54,2.12-4.58,3.31-5.8H9.49H8.83H7.42
					c-1.99,1.66-3.2,3.95-3.68,4.98C4.27,12.72,5,13.05,5.81,13.05z"/>
				<path class="st9" d="M10.73,7.21h-0.55C8.92,8.15,7.4,9.87,6.76,12.89c0.19-0.06,0.36-0.15,0.53-0.25
					C7.61,11.32,8.51,8.62,10.73,7.21z"/>
				<path class="st9" d="M11.57,12.53c0.56-2.13,1.85-3.87,2.92-5.03c-0.38-0.18-0.81-0.28-1.26-0.28c-0.08,0-0.16,0-0.23,0.01
					c0,0,0-0.01,0-0.01h-0.32c-1.02,0.85-1.84,1.87-2.46,2.8c0.05,0.12,0.09,0.27,0.12,0.45l0,0
					C10.43,11.32,10.89,12.06,11.57,12.53z"/>
				<path class="st9" d="M15.1,7.9c-0.08-0.07-0.17-0.13-0.26-0.19c-1.1,0.99-2.26,2.59-2.81,5.09c0.14,0.06,0.29,0.12,0.44,0.16
					C12.68,11.95,13.35,9.52,15.1,7.9z"/>
			</g>
			<path class="st1" d="M13.23,13.2c-1.56,0-2.86-1.16-3.05-2.71l0,0c-0.13-0.8-0.5-0.86-0.62-0.86c-0.02,0-0.03,0-0.03,0L9.51,9.63
				L9.49,9.62c0,0-0.01,0-0.02,0c-0.11,0-0.48,0.06-0.62,0.86l0,0.01c-0.18,1.54-1.49,2.71-3.04,2.71c-1.69,0-3.07-1.38-3.07-3.07
				c0-1.69,1.38-3.07,3.07-3.07h7.42c1.69,0,3.07,1.38,3.07,3.07C16.29,11.82,14.92,13.2,13.23,13.2z M10.46,10.31h0.01l0.02,0.13
				c0.16,1.4,1.34,2.45,2.75,2.45c1.52,0,2.76-1.24,2.76-2.76s-1.24-2.76-2.76-2.76H5.81c-1.52,0-2.76,1.24-2.76,2.76
				s1.24,2.76,2.76,2.76c1.41,0,2.59-1.05,2.75-2.45l0.02-0.13h0.01C8.77,9.4,9.3,9.32,9.47,9.32c0.02,0,0.04,0,0.05,0
				c0.01,0,0.03,0,0.05,0C9.73,9.32,10.26,9.4,10.46,10.31z"/>
			<path class="st10" d="M3.97,8.81c0,0-0.92,1.04-0.17,2.55c0.75,1.51,3.19,1.16,3.76-0.17c0.57-1.33-1.63-0.04-2.39-1.56
				C4.69,8.66,4.47,8.49,3.97,8.81z"/>
			<path class="st10" d="M11.53,8.81c0,0-0.92,1.04-0.17,2.55c0.75,1.51,3.19,1.16,3.76-0.17c0.57-1.33-1.63-0.04-2.39-1.56
				C12.25,8.66,12.02,8.49,11.53,8.81z"/>
			<path class="st9" d="M13.14,7.64c0,0,1.31,0,1.86,0.78c0.55,0.79,0.14,1.26-0.27,1.26C14.32,9.69,12.33,7.53,13.14,7.64z"/>
			<rect x="1.34" y="8.88" class="st1" width="1.77" height="0.3"/>
			<rect x="15.95" y="8.88" class="st1" width="1.78" height="0.3"/>
		</g>
	</g>
</g>
</svg>
