<?xml version="1.0" encoding="utf-8"?>
<!-- Generator: Adobe Illustrator 24.3.0, SVG Export Plug-In . SVG Version: 6.00 Build 0)  -->
<svg version="1.1" id="Calque_1" xmlns="http://www.w3.org/2000/svg" xmlns:xlink="http://www.w3.org/1999/xlink" x="0px" y="0px"
	 viewBox="0 0 19 19" style="enable-background:new 0 0 19 19;" xml:space="preserve">
<style type="text/css">
	.st0{fill:#1D1D1B;}
	.st1{fill:#1A1A19;}
	.st2{fill:url(#SVGID_1_);}
	.st3{fill:url(#SVGID_2_);}
	.st4{fill:url(#SVGID_3_);}
	.st5{fill:url(#SVGID_4_);}
	.st6{fill:url(#SVGID_5_);}
	.st7{fill:url(#SVGID_6_);}
	.st8{fill:url(#SVGID_7_);}
	.st9{fill:url(#SVGID_8_);}
	.st10{fill:#1F201E;}
	.st11{fill:url(#SVGID_9_);}
	.st12{fill:url(#SVGID_10_);}
	.st13{fill:url(#SVGID_11_);}
	.st14{fill:url(#SVGID_12_);}
	.st15{fill:url(#SVGID_13_);}
	.st16{fill:url(#SVGID_14_);}
	.st17{opacity:0.53;fill:#512916;}
	.st18{fill:url(#SVGID_15_);}
	.st19{fill:url(#SVGID_16_);}
	.st20{opacity:0.23;fill:url(#SVGID_17_);}
	.st21{fill:url(#SVGID_18_);}
	.st22{fill:#061326;}
	.st23{fill:#FEFEFE;}
	.st24{fill:#1799DF;}
	.st25{fill:#CD4054;}
	.st26{fill:url(#SVGID_19_);}
	.st27{fill:url(#SVGID_20_);}
	.st28{fill:url(#SVGID_21_);}
	.st29{fill:url(#SVGID_22_);}
	.st30{fill:url(#SVGID_23_);}
	.st31{fill:url(#SVGID_24_);}
	.st32{fill:url(#SVGID_25_);}
	.st33{fill:url(#SVGID_26_);}
	.st34{fill:url(#SVGID_27_);}
	.st35{fill:url(#SVGID_28_);}
	.st36{fill:url(#SVGID_29_);}
	.st37{fill:url(#SVGID_30_);}
	.st38{fill:url(#SVGID_31_);}
	.st39{fill:url(#SVGID_32_);}
	.st40{fill:url(#SVGID_33_);}
	.st41{fill:url(#SVGID_34_);}
	.st42{fill:url(#SVGID_35_);}
	.st43{fill:url(#SVGID_36_);}
	.st44{fill:url(#SVGID_37_);}
	.st45{fill:url(#SVGID_38_);}
	.st46{fill:url(#SVGID_39_);}
	.st47{fill:url(#SVGID_40_);}
	.st48{opacity:0.23;fill:url(#SVGID_41_);}
	.st49{fill:url(#SVGID_42_);}
	.st50{fill:url(#SVGID_43_);}
	.st51{fill:url(#SVGID_44_);}
	.st52{fill:url(#SVGID_45_);}
	.st53{fill:url(#SVGID_46_);}
	.st54{fill:url(#SVGID_47_);}
	.st55{fill:url(#SVGID_48_);}
	.st56{fill:url(#SVGID_49_);}
	.st57{fill:url(#SVGID_50_);}
</style>
<g>
	<g>
		<rect x="0.51" y="2.52" class="st1" width="14.28" height="6.62"/>
		
			<linearGradient id="SVGID_1_" gradientUnits="userSpaceOnUse" x1="7.6569" y1="-169.4339" x2="7.6569" y2="-167.9969" gradientTransform="matrix(1 0 0 -1 0 -161.831)">
			<stop  offset="5.025126e-03" style="stop-color:#4E3932"/>
			<stop  offset="1" style="stop-color:#734033"/>
		</linearGradient>
		<rect x="1.87" y="5.98" class="st2" width="11.58" height="1.79"/>
		
			<linearGradient id="SVGID_2_" gradientUnits="userSpaceOnUse" x1="7.6569" y1="-167.5044" x2="7.6569" y2="-166.0674" gradientTransform="matrix(1 0 0 -1 0 -161.831)">
			<stop  offset="5.025126e-03" style="stop-color:#C77F61"/>
			<stop  offset="1" style="stop-color:#B2603E"/>
		</linearGradient>
		<rect x="1.87" y="4.05" class="st3" width="11.58" height="1.79"/>
		
			<linearGradient id="SVGID_3_" gradientUnits="userSpaceOnUse" x1="7.6569" y1="-165.5749" x2="7.6569" y2="-164.1379" gradientTransform="matrix(1 0 0 -1 0 -161.831)">
			<stop  offset="5.025126e-03" style="stop-color:#C77F61"/>
			<stop  offset="1" style="stop-color:#B2603E"/>
		</linearGradient>
		<rect x="1.87" y="2.12" class="st4" width="11.58" height="1.79"/>
	</g>
	<polygon class="st1" points="18.46,0.26 14.78,2.55 14.78,9.08 18.46,6.79 	"/>
	
		<linearGradient id="SVGID_4_" gradientUnits="userSpaceOnUse" x1="16.4297" y1="-169.1345" x2="16.4297" y2="-166.2547" gradientTransform="matrix(1 0 0 -1 0 -161.831)">
		<stop  offset="5.025126e-03" style="stop-color:#4E3932"/>
		<stop  offset="1" style="stop-color:#734033"/>
	</linearGradient>
	<polygon class="st5" points="17.68,4.05 15.18,5.84 15.18,7.63 17.68,5.84 	"/>
	
		<linearGradient id="SVGID_5_" gradientUnits="userSpaceOnUse" x1="16.4297" y1="-167.205" x2="16.4297" y2="-164.3252" gradientTransform="matrix(1 0 0 -1 0 -161.831)">
		<stop  offset="5.025126e-03" style="stop-color:#C77F61"/>
		<stop  offset="1" style="stop-color:#B2603E"/>
	</linearGradient>
	<polygon class="st6" points="17.68,2.12 15.18,3.91 15.18,5.7 17.68,3.91 	"/>
	<g>
		<rect x="0.51" y="8.08" class="st1" width="14.28" height="8.29"/>
		<linearGradient id="SVGID_6_" gradientUnits="userSpaceOnUse" x1="7.6569" y1="9.626" x2="7.6569" y2="11.063">
			<stop  offset="5.025126e-03" style="stop-color:#4E3932"/>
			<stop  offset="1" style="stop-color:#734033"/>
		</linearGradient>
		<rect x="1.87" y="9.46" class="st7" width="11.58" height="1.79"/>
		<linearGradient id="SVGID_7_" gradientUnits="userSpaceOnUse" x1="7.6569" y1="11.5555" x2="7.6569" y2="12.9925">
			<stop  offset="5.025126e-03" style="stop-color:#C77F61"/>
			<stop  offset="1" style="stop-color:#B2603E"/>
		</linearGradient>
		<rect x="1.87" y="11.39" class="st8" width="11.58" height="1.79"/>
		<linearGradient id="SVGID_8_" gradientUnits="userSpaceOnUse" x1="7.6569" y1="13.485" x2="7.6569" y2="14.922">
			<stop  offset="5.025126e-03" style="stop-color:#C77F61"/>
			<stop  offset="1" style="stop-color:#B2603E"/>
		</linearGradient>
		<rect x="1.87" y="13.32" class="st9" width="11.58" height="1.79"/>
	</g>
	<g>
		<polygon class="st10" points="4.2,18.74 0.52,16.45 0.52,8.15 4.2,10.44 		"/>
		<linearGradient id="SVGID_9_" gradientUnits="userSpaceOnUse" x1="2.1743" y1="9.9254" x2="2.1743" y2="12.8052">
			<stop  offset="5.025126e-03" style="stop-color:#C77F61"/>
			<stop  offset="1" style="stop-color:#B2603E"/>
		</linearGradient>
		<polygon class="st11" points="3.42,13.18 0.93,11.39 0.93,9.6 3.42,11.39 		"/>
		<linearGradient id="SVGID_10_" gradientUnits="userSpaceOnUse" x1="2.1743" y1="11.8549" x2="2.1743" y2="14.7347">
			<stop  offset="5.025126e-03" style="stop-color:#C77F61"/>
			<stop  offset="1" style="stop-color:#B2603E"/>
		</linearGradient>
		<polygon class="st12" points="3.42,15.11 0.93,13.32 0.93,11.53 3.42,13.32 		"/>
		<linearGradient id="SVGID_11_" gradientUnits="userSpaceOnUse" x1="2.1743" y1="13.7845" x2="2.1743" y2="16.6642">
			<stop  offset="5.025126e-03" style="stop-color:#C77F61"/>
			<stop  offset="1" style="stop-color:#B2603E"/>
		</linearGradient>
		<polygon class="st13" points="3.42,17.04 0.93,15.25 0.93,13.46 3.42,15.25 		"/>
	</g>
	<polygon class="st1" points="18.46,18.74 14.78,16.45 14.78,8.15 18.46,10.44 	"/>
	<linearGradient id="SVGID_12_" gradientUnits="userSpaceOnUse" x1="16.4297" y1="9.9254" x2="16.4297" y2="12.8052">
		<stop  offset="5.025126e-03" style="stop-color:#4E3932"/>
		<stop  offset="1" style="stop-color:#734033"/>
	</linearGradient>
	<polygon class="st14" points="17.68,13.18 15.18,11.39 15.18,9.6 17.68,11.39 	"/>
	<linearGradient id="SVGID_13_" gradientUnits="userSpaceOnUse" x1="16.4297" y1="11.8549" x2="16.4297" y2="14.7347">
		<stop  offset="5.025126e-03" style="stop-color:#C77F61"/>
		<stop  offset="1" style="stop-color:#B2603E"/>
	</linearGradient>
	<polygon class="st15" points="17.68,15.11 15.18,13.32 15.18,11.53 17.68,13.32 	"/>
	<linearGradient id="SVGID_14_" gradientUnits="userSpaceOnUse" x1="16.4297" y1="13.7845" x2="16.4297" y2="16.6642">
		<stop  offset="5.025126e-03" style="stop-color:#C77F61"/>
		<stop  offset="1" style="stop-color:#B2603E"/>
	</linearGradient>
	<polygon class="st16" points="17.68,17.04 15.18,15.25 15.18,13.46 17.68,15.25 	"/>
	<polygon class="st17" points="1.66,14.43 1.74,10.19 0.92,9.57 0.92,13.86 0.93,15.25 2.01,16.03 3.42,17.05 3.42,15.68 	"/>
	<g>
		<polygon class="st10" points="4.2,0.26 0.52,2.55 0.52,9.08 4.2,6.79 		"/>
		
			<linearGradient id="SVGID_15_" gradientUnits="userSpaceOnUse" x1="2.1743" y1="-169.1345" x2="2.1743" y2="-166.2547" gradientTransform="matrix(1 0 0 -1 0 -161.831)">
			<stop  offset="5.025126e-03" style="stop-color:#C77F61"/>
			<stop  offset="1" style="stop-color:#B2603E"/>
		</linearGradient>
		<polygon class="st18" points="3.42,4.05 0.93,5.84 0.93,7.63 3.42,5.84 		"/>
		
			<linearGradient id="SVGID_16_" gradientUnits="userSpaceOnUse" x1="2.1743" y1="-167.205" x2="2.1743" y2="-164.3252" gradientTransform="matrix(1 0 0 -1 0 -161.831)">
			<stop  offset="5.025126e-03" style="stop-color:#C77F61"/>
			<stop  offset="1" style="stop-color:#B2603E"/>
		</linearGradient>
		<polygon class="st19" points="3.42,2.12 0.93,3.91 0.93,5.7 3.42,3.91 		"/>
	</g>
	<polygon class="st17" points="1.56,4.4 3.43,3.11 3.43,2.11 1.98,3.15 0.92,3.91 0.92,5.63 0.91,7.65 1.62,7.13 	"/>
	
		<radialGradient id="SVGID_17_" cx="9.8708" cy="8.6144" r="9.1347" gradientTransform="matrix(1 0 0 0.3492 0 5.6065)" gradientUnits="userSpaceOnUse">
		<stop  offset="0" style="stop-color:#000000"/>
		<stop  offset="1" style="stop-color:#1F201E"/>
	</radialGradient>
	<polygon class="st20" points="1.26,8.61 4.2,6.79 18.49,6.79 15.52,8.61 18.49,10.44 4.2,10.44 	"/>
	<g>
		
			<radialGradient id="SVGID_18_" cx="1.2324" cy="-128.5488" r="3.1051" gradientTransform="matrix(0.9609 0.277 -0.277 0.9609 -24.1825 131.5677)" gradientUnits="userSpaceOnUse">
			<stop  offset="0" style="stop-color:#00BF0C"/>
			<stop  offset="1" style="stop-color:#007F1D"/>
		</radialGradient>
		<path class="st21" d="M16.39,10.2c-0.06-0.34-0.2-0.66-0.41-0.95c-0.04-0.05-0.07-0.11-0.11-0.16c-0.11-0.14-0.24-0.27-0.36-0.4
			c-0.1-0.1-0.19-0.21-0.29-0.32c-0.04-0.06-0.09-0.11-0.13-0.17c-0.11-0.16-0.22-0.31-0.3-0.48c-0.07-0.11-0.12-0.23-0.17-0.35
			c-0.09-0.21-0.17-0.43-0.22-0.65c-0.02-0.08-0.06-0.14-0.15-0.16c-0.09-0.02-0.15,0-0.21,0.06c-0.09,0.09-0.19,0.17-0.3,0.25
			c-0.49,0.38-1.03,0.65-1.66,0.81c-0.25,0.06-0.5,0.13-0.74,0.23c-0.25,0.11-0.48,0.25-0.68,0.43c-0.12,0.1-0.23,0.21-0.31,0.35h0
			c-0.01,0.01-0.02,0.02-0.02,0.02c-0.15,0.22-0.25,0.46-0.28,0.73c-0.05,0.38,0.01,0.74,0.2,1.09c0,0.02,0.01,0.03,0.03,0.05
			c0.04,0.06,0.08,0.13,0.12,0.2c0.01,0.01,0.01,0.02,0.02,0.03c0.25,0.35,0.58,0.64,0.96,0.87c0.65,0.4,1.37,0.62,2.13,0.72
			c0.51,0.06,1.01,0.04,1.49-0.1C16,12,16.56,11.17,16.39,10.2z"/>
		<path class="st22" d="M12.57,12.31c-0.45-0.13-0.88-0.31-1.26-0.55c-0.41-0.25-0.74-0.55-0.99-0.89
			c-0.01-0.01-0.01-0.02-0.02-0.03c0,0,0,0,0-0.01l0,0c-0.03-0.06-0.07-0.12-0.11-0.18c-0.01-0.02-0.03-0.04-0.04-0.07
			c-0.19-0.36-0.26-0.74-0.2-1.14c0.04-0.28,0.14-0.54,0.3-0.77c0.01-0.01,0.02-0.02,0.02-0.03c0.09-0.15,0.21-0.26,0.32-0.36
			c0.2-0.18,0.44-0.33,0.71-0.45c0.25-0.11,0.51-0.18,0.76-0.24c0.59-0.14,1.13-0.41,1.62-0.79c0.1-0.08,0.2-0.16,0.29-0.25
			c0.09-0.09,0.2-0.11,0.31-0.08c0,0,0,0,0,0c0.08,0.02,0.18,0.08,0.22,0.23c0.06,0.22,0.13,0.43,0.22,0.64
			c0.04,0.1,0.1,0.22,0.17,0.34l0,0.01c0.07,0.14,0.15,0.26,0.25,0.4c0.02,0.02,0.03,0.05,0.05,0.07c0.02,0.04,0.05,0.07,0.08,0.11
			c0.01,0.02,0.03,0.03,0.04,0.05c0.03,0.03,0.06,0.06,0.09,0.1c0.06,0.07,0.13,0.15,0.2,0.22c0.12,0.13,0.25,0.26,0.37,0.41
			c0.03,0.04,0.06,0.08,0.08,0.11c0.01,0.02,0.02,0.03,0.03,0.05c0.22,0.31,0.36,0.65,0.42,0.99l0,0c0.09,0.5-0.01,0.98-0.28,1.37
			c-0.27,0.39-0.68,0.68-1.21,0.84c-0.47,0.14-0.98,0.17-1.53,0.1C13.16,12.46,12.86,12.39,12.57,12.31z M10.48,10.73
			c0,0,0,0.01,0.01,0.01c0,0,0,0.01,0.01,0.01c0.23,0.32,0.54,0.6,0.93,0.84c0.61,0.37,1.31,0.61,2.09,0.71
			c0.53,0.07,1,0.04,1.45-0.1c0.97-0.29,1.5-1.06,1.34-1.98l0,0C16.23,9.9,16.1,9.6,15.9,9.31c-0.01-0.02-0.02-0.03-0.04-0.05
			c-0.02-0.04-0.05-0.07-0.07-0.1c-0.11-0.14-0.24-0.27-0.36-0.4c-0.07-0.07-0.14-0.15-0.2-0.22c-0.03-0.03-0.06-0.07-0.09-0.1
			l0-0.01c-0.01-0.02-0.03-0.03-0.04-0.05c-0.03-0.04-0.06-0.08-0.09-0.12c-0.02-0.02-0.03-0.05-0.05-0.07
			c-0.09-0.13-0.19-0.27-0.26-0.42c-0.07-0.12-0.13-0.25-0.18-0.36c-0.09-0.22-0.17-0.44-0.23-0.67c-0.02-0.06-0.04-0.08-0.08-0.09
			c-0.04-0.01-0.07-0.01-0.11,0.04c-0.1,0.09-0.2,0.18-0.3,0.26c-0.51,0.4-1.08,0.67-1.7,0.82C11.87,7.84,11.61,7.9,11.38,8
			c-0.25,0.11-0.47,0.25-0.66,0.41c-0.11,0.09-0.22,0.2-0.29,0.32l-0.01,0.01l-0.01,0.01c0,0-0.01,0.01-0.01,0.01c0,0,0,0,0,0
			c-0.14,0.2-0.23,0.43-0.27,0.68c-0.05,0.36,0.01,0.7,0.19,1.03l0.01,0.02l0,0.01c0,0,0,0,0,0l0,0.01l0,0.01
			C10.4,10.6,10.44,10.66,10.48,10.73z M10.34,10.51L10.34,10.51L10.34,10.51z"/>
		<path class="st23" d="M14.03,10.45c-0.41-0.17-0.61-0.79-0.2-1.16c0.36-0.27,0.81-0.1,0.99,0.26c0.01,0.02,0.02,0.03,0.03,0.05
			c0.05,0.15,0.07,0.3,0.02,0.46c-0.1,0.34-0.42,0.52-0.76,0.42C14.09,10.46,14.06,10.45,14.03,10.45z"/>
		<path class="st22" d="M14.11,10.52C14.11,10.52,14.1,10.52,14.11,10.52c-0.02-0.01-0.04-0.01-0.06-0.02l-0.03-0.01
			c-0.23-0.09-0.4-0.32-0.45-0.58c-0.04-0.25,0.04-0.49,0.23-0.67l0,0c0.17-0.13,0.37-0.17,0.57-0.12c0.21,0.05,0.4,0.2,0.5,0.4
			c0.01,0.01,0.01,0.02,0.02,0.03c0,0.01,0.01,0.01,0.01,0.02l0,0l0,0c0.06,0.18,0.07,0.34,0.03,0.49c-0.05,0.18-0.16,0.32-0.32,0.4
			C14.46,10.55,14.28,10.57,14.11,10.52z M14.05,10.4l0.02,0.01c0.02,0.01,0.04,0.01,0.06,0.02c0,0,0,0,0,0
			c0.15,0.04,0.3,0.03,0.43-0.04c0.13-0.07,0.22-0.19,0.27-0.34c0.04-0.13,0.03-0.27-0.02-0.43c0,0,0-0.01-0.01-0.01
			c-0.01-0.01-0.01-0.02-0.02-0.04c-0.09-0.17-0.25-0.3-0.43-0.35c-0.17-0.04-0.34,0-0.48,0.1c-0.17,0.15-0.24,0.35-0.2,0.57
			C13.71,10.12,13.86,10.32,14.05,10.4z"/>
		<path class="st24" d="M13.1,10.81c-0.05,0-0.11-0.02-0.15-0.04C13,10.78,13.05,10.8,13.1,10.81z"/>
		<path class="st23" d="M13.17,9.36C13.12,9.59,13,9.78,12.79,9.88c-0.29,0.14-0.56,0.1-0.8-0.1c-0.24-0.27-0.21-0.67,0.06-0.92
			c0.22-0.21,0.63-0.3,0.95-0.02C13.14,8.99,13.18,9.17,13.17,9.36z"/>
		<path class="st22" d="M12.27,9.99c-0.11-0.03-0.21-0.09-0.31-0.18l-0.01-0.01c-0.26-0.29-0.23-0.72,0.06-0.99
			c0.25-0.23,0.68-0.31,1.02-0.02l0,0c0.14,0.14,0.2,0.32,0.19,0.55l0,0.01c-0.05,0.26-0.19,0.45-0.41,0.56
			C12.62,10.02,12.44,10.04,12.27,9.99z M12.02,9.74c0.23,0.2,0.47,0.23,0.74,0.1c0.19-0.09,0.31-0.26,0.36-0.48
			c0.01-0.2-0.04-0.35-0.16-0.47C12.67,8.63,12.3,8.7,12.08,8.9C11.83,9.13,11.81,9.49,12.02,9.74z"/>
		<path class="st22" d="M14.46,9.74c-0.04,0.14-0.18,0.22-0.32,0.18c-0.16-0.05-0.26-0.22-0.21-0.38c0.04-0.14,0.18-0.22,0.33-0.18
			C14.42,9.41,14.51,9.58,14.46,9.74z"/>
		<path class="st22" d="M12.72,9.19c-0.05,0.16-0.22,0.26-0.38,0.21c-0.14-0.04-0.22-0.18-0.18-0.32c0.04-0.16,0.22-0.26,0.38-0.21
			C12.68,8.91,12.76,9.05,12.72,9.19z"/>
		<g>
			<path class="st22" d="M15.04,10.83c-0.08-0.13-0.23-0.19-0.38-0.13c-0.09,0.04-0.18,0.08-0.28,0.1
				c-0.42,0.12-0.85,0.13-1.28,0.01c-0.11-0.03-0.09-0.02-0.31-0.09c-0.21-0.07-0.74-0.4-1.01-0.75c-0.06-0.08-0.1-0.16-0.19-0.22
				C11.48,9.7,11.35,9.7,11.25,9.8c-0.1,0.09-0.12,0.2-0.09,0.33c0.02,0.03,0.03,0.06,0.05,0.1c0.08,0.1,0.15,0.2,0.23,0.29
				c0.47,0.51,1.05,0.82,1.73,0.94c0.57,0.11,1.13,0.05,1.67-0.17c0.04-0.02,0.09-0.03,0.12-0.07c0,0,0,0,0,0c0,0,0,0,0,0
				C15.09,11.12,15.11,10.96,15.04,10.83z"/>
			<path class="st25" d="M14.39,11.38c0.05-0.16-0.06-0.34-0.27-0.52c-0.34,0.06-0.68,0.05-1.02-0.05
				c-0.11-0.03-0.09-0.02-0.31-0.09c-0.15-0.05-0.46-0.23-0.72-0.45c-0.28,0.03-0.47,0.13-0.52,0.29c-0.01,0.02-0.01,0.04-0.01,0.06
				c0.45,0.45,1,0.72,1.62,0.83c0.41,0.08,0.8,0.07,1.19-0.02C14.38,11.42,14.39,11.4,14.39,11.38z"/>
			<path class="st22" d="M12.05,10.36c0.27,0.22,0.57,0.39,0.72,0.45c0.1,0.04,0.15,0.05,0.19,0.06c0.02,0.01,0.04,0.01,0.07,0.02
				c0.01,0,0.03,0.01,0.05,0.01c0.33,0.09,0.67,0.11,1.01,0.06c0.17,0.15,0.24,0.29,0.21,0.4c0,0,0,0.01,0,0.01
				c-0.36,0.08-0.73,0.08-1.12,0.01c-0.11-0.02-0.22-0.05-0.32-0.08c-0.47-0.14-0.88-0.37-1.23-0.7c0,0,0,0,0-0.01
				C11.67,10.48,11.82,10.4,12.05,10.36 M12.08,10.27c-0.28,0.03-0.47,0.13-0.52,0.29c-0.01,0.02-0.01,0.04-0.01,0.06
				c0.37,0.37,0.8,0.61,1.29,0.76c0.11,0.03,0.22,0.06,0.33,0.08c0.41,0.08,0.8,0.07,1.19-0.02c0.01-0.02,0.02-0.04,0.03-0.06
				c0.05-0.16-0.06-0.34-0.27-0.52c-0.34,0.06-0.68,0.05-1.02-0.05c-0.06-0.01-0.08-0.02-0.12-0.03c-0.04-0.01-0.08-0.03-0.19-0.06
				C12.65,10.67,12.34,10.49,12.08,10.27L12.08,10.27z"/>
		</g>
	</g>
	<g>
		
			<radialGradient id="SVGID_19_" cx="-23.3909" cy="78.0588" r="3.2399" gradientTransform="matrix(0.9711 -0.2388 0.2388 0.9711 10.2055 -73.1917)" gradientUnits="userSpaceOnUse">
			<stop  offset="0" style="stop-color:#6B13D4"/>
			<stop  offset="1" style="stop-color:#340094"/>
		</radialGradient>
		<path class="st26" d="M10.58,7.98c-0.23-0.28-0.52-0.49-0.86-0.65C9.66,7.31,9.6,7.28,9.54,7.25C9.37,7.18,9.19,7.13,9,7.08
			C8.86,7.03,8.72,6.98,8.58,6.94c-0.07-0.03-0.14-0.05-0.2-0.08C8.2,6.77,8.01,6.68,7.85,6.57C7.73,6.51,7.62,6.43,7.51,6.35
			C7.32,6.2,7.14,6.04,6.97,5.87C6.91,5.81,6.84,5.78,6.75,5.8C6.66,5.83,6.62,5.89,6.59,5.97C6.55,6.1,6.51,6.22,6.45,6.35
			C6.21,6.94,5.86,7.48,5.37,7.94c-0.2,0.19-0.39,0.38-0.55,0.59c-0.17,0.23-0.3,0.48-0.39,0.75c-0.05,0.16-0.1,0.31-0.1,0.48l0,0
			c0,0.01-0.01,0.02-0.01,0.03c-0.02,0.28,0.02,0.55,0.12,0.81c0.15,0.37,0.39,0.67,0.75,0.89c0.01,0.02,0.03,0.02,0.05,0.03
			c0.07,0.04,0.14,0.07,0.21,0.12c0.01,0.01,0.02,0.01,0.03,0.02c0.41,0.19,0.85,0.28,1.32,0.29c0.8,0.02,1.56-0.15,2.3-0.46
			c0.49-0.21,0.93-0.49,1.3-0.86C11.16,9.81,11.24,8.78,10.58,7.98z"/>
		<path class="st22" d="M8.23,11.88c-0.48,0.12-0.95,0.17-1.43,0.16c-0.5-0.01-0.96-0.11-1.36-0.3c-0.01-0.01-0.02-0.01-0.03-0.02
			c0,0,0,0-0.01,0l0,0c-0.06-0.04-0.12-0.07-0.2-0.11c-0.02-0.01-0.05-0.02-0.08-0.05c-0.36-0.23-0.62-0.54-0.78-0.93
			c-0.11-0.27-0.15-0.56-0.13-0.85c0-0.02,0-0.03,0.01-0.04c0-0.18,0.05-0.35,0.1-0.5c0.09-0.26,0.22-0.52,0.41-0.77
			C4.91,8.25,5.11,8.05,5.3,7.86c0.46-0.43,0.81-0.96,1.06-1.55c0.05-0.12,0.09-0.25,0.13-0.38C6.53,5.81,6.61,5.73,6.73,5.7
			c0,0,0,0,0,0c0.08-0.02,0.2-0.02,0.32,0.1c0.17,0.17,0.34,0.32,0.53,0.47C7.67,6.33,7.78,6.41,7.9,6.48l0.01,0
			c0.13,0.09,0.28,0.16,0.43,0.23c0.03,0.01,0.05,0.03,0.08,0.04c0.04,0.02,0.08,0.04,0.13,0.06c0.02,0.01,0.04,0.02,0.06,0.02
			C8.66,6.85,8.7,6.87,8.74,6.88c0.09,0.03,0.19,0.07,0.29,0.09C9.21,7.02,9.4,7.08,9.58,7.15c0.05,0.02,0.09,0.04,0.13,0.06
			c0.02,0.01,0.04,0.02,0.05,0.03c0.36,0.17,0.66,0.4,0.9,0.68l0,0c0.34,0.41,0.5,0.89,0.46,1.38c-0.04,0.49-0.26,0.97-0.66,1.38
			c-0.35,0.37-0.8,0.67-1.33,0.89C8.84,11.7,8.53,11.8,8.23,11.88z M5.51,11.54c0,0,0.01,0,0.01,0.01c0,0,0.01,0,0.01,0.01
			c0.38,0.17,0.8,0.27,1.27,0.28c0.75,0.02,1.5-0.13,2.25-0.45c0.51-0.21,0.92-0.49,1.26-0.84c0.73-0.76,0.8-1.74,0.18-2.49l0,0
			c-0.21-0.26-0.49-0.47-0.82-0.62C9.66,7.42,9.64,7.41,9.62,7.4C9.58,7.38,9.54,7.37,9.5,7.35C9.33,7.28,9.15,7.23,8.97,7.18
			c-0.1-0.03-0.2-0.06-0.3-0.1C8.63,7.07,8.59,7.05,8.55,7.04l-0.01,0C8.52,7.03,8.5,7.02,8.48,7.01c-0.05-0.02-0.1-0.04-0.15-0.06
			C8.3,6.94,8.28,6.92,8.25,6.91C8.1,6.84,7.94,6.76,7.8,6.66C7.67,6.59,7.55,6.5,7.45,6.43C7.26,6.28,7.07,6.12,6.9,5.94
			C6.85,5.9,6.82,5.9,6.78,5.91C6.74,5.91,6.71,5.93,6.69,6C6.65,6.13,6.61,6.26,6.55,6.39C6.3,7.02,5.93,7.56,5.45,8.02
			C5.26,8.19,5.07,8.39,4.91,8.6c-0.17,0.23-0.3,0.47-0.38,0.72C4.49,9.45,4.44,9.6,4.44,9.76l0,0.01l0,0.01c0,0,0,0.01,0,0.01
			c0,0,0,0,0,0.01c-0.02,0.26,0.02,0.51,0.11,0.76c0.14,0.35,0.38,0.63,0.7,0.83l0.02,0.01l0.01,0.01c0,0,0,0,0,0l0.01,0l0.01,0
			C5.37,11.46,5.44,11.5,5.51,11.54z M5.27,11.41L5.27,11.41L5.27,11.41z"/>
		<path class="st23" d="M8.58,9.43C8.13,9.49,7.61,9.03,7.8,8.48C7.98,8.05,8.48,7.97,8.83,8.2c0.02,0.01,0.03,0.02,0.05,0.03
			C9,8.34,9.1,8.47,9.14,8.63c0.09,0.36-0.11,0.69-0.47,0.77C8.64,9.41,8.61,9.42,8.58,9.43z"/>
		<path class="st22" d="M8.69,9.46C8.68,9.46,8.68,9.46,8.69,9.46C8.66,9.46,8.64,9.47,8.62,9.47L8.59,9.48
			C8.33,9.51,8.06,9.4,7.88,9.18C7.71,8.98,7.66,8.71,7.75,8.46l0,0c0.09-0.2,0.25-0.34,0.45-0.41c0.22-0.07,0.46-0.03,0.66,0.1
			c0.01,0.01,0.02,0.01,0.03,0.02c0.01,0,0.01,0.01,0.02,0.01l0,0l0,0c0.15,0.13,0.24,0.27,0.28,0.43C9.24,8.81,9.21,9,9.12,9.15
			C9.02,9.3,8.87,9.41,8.69,9.46z M8.57,9.37L8.6,9.37c0.02,0,0.04-0.01,0.06-0.01c0,0,0,0,0,0c0.16-0.04,0.29-0.13,0.37-0.26
			c0.08-0.13,0.1-0.29,0.06-0.45C9.06,8.51,8.98,8.39,8.85,8.27c0,0-0.01,0-0.01-0.01C8.82,8.25,8.81,8.25,8.8,8.24
			C8.63,8.13,8.42,8.09,8.23,8.15C8.06,8.2,7.92,8.32,7.85,8.49C7.77,8.72,7.82,8.94,7.96,9.12C8.12,9.3,8.35,9.4,8.57,9.37z"/>
		<path class="st24" d="M7.93,10.24c-0.05,0.03-0.1,0.04-0.16,0.04C7.82,10.27,7.88,10.25,7.93,10.24z"/>
		<path class="st23" d="M7.23,8.9C7.31,9.13,7.3,9.36,7.16,9.57C6.97,9.85,6.71,9.95,6.38,9.89C6.03,9.77,5.84,9.4,5.96,9.03
			c0.09-0.3,0.41-0.6,0.85-0.51C7.01,8.57,7.14,8.71,7.23,8.9z"/>
		<path class="st22" d="M6.75,9.94c-0.11,0.03-0.24,0.03-0.37,0l-0.01,0C5.98,9.81,5.78,9.41,5.91,9.01
			c0.11-0.34,0.45-0.64,0.91-0.55l0,0c0.2,0.05,0.35,0.19,0.46,0.4l0,0.01C7.37,9.14,7.35,9.38,7.2,9.6
			C7.08,9.78,6.93,9.89,6.75,9.94z M6.4,9.84c0.31,0.06,0.55-0.04,0.72-0.3c0.12-0.18,0.15-0.39,0.07-0.62
			C7.09,8.73,6.97,8.62,6.8,8.57C6.4,8.49,6.1,8.75,6.01,9.05C5.9,9.39,6.07,9.73,6.4,9.84z"/>
		<path class="st22" d="M8.96,8.65C9,8.81,8.91,8.95,8.76,8.98C8.59,9.02,8.42,8.92,8.38,8.75C8.34,8.6,8.43,8.46,8.58,8.42
			C8.74,8.38,8.92,8.49,8.96,8.65z"/>
		<path class="st22" d="M7.09,9.07c0.04,0.17-0.06,0.34-0.23,0.38C6.71,9.49,6.57,9.4,6.53,9.25C6.49,9.09,6.6,8.91,6.76,8.87
			C6.91,8.83,7.06,8.92,7.09,9.07z"/>
		<g>
			<path class="st22" d="M9.69,9.26C9.55,9.18,9.38,9.21,9.28,9.33C9.22,9.41,9.16,9.5,9.08,9.57c-0.32,0.33-0.7,0.56-1.15,0.67
				c-0.12,0.03-0.09,0.03-0.32,0.08c-0.23,0.04-0.88,0.02-1.3-0.15c-0.09-0.04-0.18-0.09-0.28-0.1c-0.14,0.01-0.25,0.08-0.3,0.22
				c-0.04,0.13-0.01,0.25,0.1,0.35c0.03,0.02,0.06,0.04,0.09,0.06c0.12,0.05,0.24,0.1,0.36,0.14c0.69,0.22,1.38,0.19,2.06-0.05
				c0.57-0.2,1.05-0.54,1.42-1.02c0.03-0.04,0.07-0.08,0.07-0.13c0,0,0,0,0,0c0,0,0,0,0,0C9.88,9.49,9.83,9.33,9.69,9.26z"/>
			<path class="st25" d="M9.39,10.09C9.35,9.92,9.16,9.81,8.88,9.76c-0.27,0.23-0.59,0.39-0.94,0.48c-0.12,0.03-0.09,0.03-0.32,0.08
				c-0.16,0.03-0.54,0.03-0.89-0.04c-0.23,0.18-0.36,0.37-0.32,0.53c0.01,0.02,0.01,0.04,0.02,0.06c0.64,0.17,1.27,0.13,1.9-0.09
				c0.41-0.14,0.76-0.35,1.07-0.64C9.4,10.13,9.4,10.11,9.39,10.09z"/>
			<path class="st22" d="M6.74,10.38c0.36,0.06,0.72,0.06,0.88,0.03c0.11-0.02,0.17-0.03,0.21-0.04c0.03-0.01,0.05-0.01,0.07-0.02
				c0.01,0,0.03-0.01,0.05-0.02c0.35-0.09,0.66-0.25,0.95-0.47C9.13,9.91,9.27,10,9.3,10.11c0,0,0,0.01,0,0.01
				c-0.29,0.26-0.62,0.45-1.01,0.59c-0.11,0.04-0.22,0.07-0.33,0.1c-0.5,0.12-0.99,0.12-1.47,0c0,0,0,0,0-0.01
				C6.46,10.68,6.55,10.53,6.74,10.38 M6.72,10.29c-0.23,0.18-0.36,0.37-0.32,0.53c0.01,0.02,0.01,0.04,0.02,0.06
				c0.52,0.14,1.04,0.14,1.56,0.01c0.11-0.03,0.23-0.06,0.34-0.1c0.41-0.14,0.76-0.35,1.07-0.64c0-0.02,0-0.05-0.01-0.07
				C9.35,9.92,9.16,9.81,8.88,9.76c-0.27,0.23-0.59,0.39-0.94,0.48c-0.06,0.02-0.08,0.02-0.12,0.03c-0.04,0.01-0.09,0.02-0.2,0.04
				C7.45,10.35,7.07,10.35,6.72,10.29L6.72,10.29z"/>
		</g>
	</g>
	<rect x="4.2" y="0.28" class="st10" width="14.28" height="6.51"/>
	
		<linearGradient id="SVGID_20_" gradientUnits="userSpaceOnUse" x1="11.3431" y1="-165.1429" x2="11.3431" y2="-163.7059" gradientTransform="matrix(1 0 0 -1 0 -161.831)">
		<stop  offset="5.025126e-03" style="stop-color:#C77F61"/>
		<stop  offset="1" style="stop-color:#B2603E"/>
	</linearGradient>
	<rect x="5.55" y="1.69" class="st27" width="11.58" height="1.79"/>
	
		<linearGradient id="SVGID_21_" gradientUnits="userSpaceOnUse" x1="11.3431" y1="-167.0724" x2="11.3431" y2="-165.6354" gradientTransform="matrix(1 0 0 -1 0 -161.831)">
		<stop  offset="5.025126e-03" style="stop-color:#C77F61"/>
		<stop  offset="1" style="stop-color:#B2603E"/>
	</linearGradient>
	<rect x="5.55" y="3.62" class="st28" width="11.58" height="1.79"/>
	<polygon class="st17" points="6.92,4.05 6.92,1.68 5.55,1.68 5.55,4.05 5.55,5.41 6.92,5.41 17.12,5.41 17.12,4.05 	"/>
	<rect x="4.2" y="10.44" class="st10" width="14.28" height="8.29"/>
	<linearGradient id="SVGID_22_" gradientUnits="userSpaceOnUse" x1="11.3431" y1="11.9875" x2="11.3431" y2="13.4245">
		<stop  offset="5.025126e-03" style="stop-color:#C77F61"/>
		<stop  offset="1" style="stop-color:#B2603E"/>
	</linearGradient>
	<rect x="5.55" y="11.83" class="st29" width="11.58" height="1.79"/>
	<linearGradient id="SVGID_23_" gradientUnits="userSpaceOnUse" x1="11.3431" y1="13.917" x2="11.3431" y2="15.354">
		<stop  offset="5.025126e-03" style="stop-color:#C77F61"/>
		<stop  offset="1" style="stop-color:#B2603E"/>
	</linearGradient>
	<rect x="5.55" y="13.75" class="st30" width="11.58" height="1.79"/>
	<linearGradient id="SVGID_24_" gradientUnits="userSpaceOnUse" x1="11.3431" y1="15.8465" x2="11.3431" y2="17.2835">
		<stop  offset="5.025126e-03" style="stop-color:#C77F61"/>
		<stop  offset="1" style="stop-color:#B2603E"/>
	</linearGradient>
	<rect x="5.55" y="15.68" class="st31" width="11.58" height="1.79"/>
	<polygon class="st17" points="6.92,16.1 6.92,11.81 5.55,11.81 5.55,16.1 5.55,17.46 6.92,17.46 17.12,17.46 17.12,16.1 	"/>
</g>
</svg>
