<?xml version="1.0" encoding="utf-8"?>
<!-- Generator: Adobe Illustrator 24.3.0, SVG Export Plug-In . SVG Version: 6.00 Build 0)  -->
<svg version="1.1" id="Calque_1" xmlns="http://www.w3.org/2000/svg" xmlns:xlink="http://www.w3.org/1999/xlink" x="0px" y="0px"
	 viewBox="0 0 19 19" style="enable-background:new 0 0 19 19;" xml:space="preserve">
<style type="text/css">
	.st0{fill:#B3E3F2;}
	.st1{fill:url(#SVGID_1_);}
	.st2{fill:url(#SVGID_2_);}
	.st3{opacity:0.16;fill:url(#SVGID_3_);}
	.st4{opacity:0.16;fill:url(#SVGID_4_);}
	.st5{opacity:0.16;fill:url(#SVGID_5_);}
	.st6{opacity:0.16;fill:url(#SVGID_6_);}
	.st7{opacity:0.16;fill:url(#SVGID_7_);}
	.st8{fill:#FFFFFF;}
	.st9{fill:url(#SVGID_8_);}
	.st10{fill:url(#SVGID_9_);}
	.st11{fill:#061326;}
	.st12{fill:url(#SVGID_10_);}
	.st13{fill:url(#SVGID_11_);}
	.st14{opacity:0.16;fill:url(#SVGID_12_);}
	.st15{opacity:0.16;fill:url(#SVGID_13_);}
	.st16{opacity:0.16;fill:url(#SVGID_14_);}
	.st17{opacity:0.16;fill:url(#SVGID_15_);}
	.st18{opacity:0.16;fill:url(#SVGID_16_);}
	.st19{fill:url(#SVGID_17_);}
	.st20{fill:url(#SVGID_18_);}
	.st21{fill:url(#SVGID_19_);}
	.st22{fill:url(#SVGID_20_);}
	.st23{opacity:0.16;fill:url(#SVGID_21_);}
	.st24{opacity:0.16;fill:url(#SVGID_22_);}
	.st25{opacity:0.16;fill:url(#SVGID_23_);}
	.st26{opacity:0.16;fill:url(#SVGID_24_);}
	.st27{opacity:0.16;fill:url(#SVGID_25_);}
	.st28{fill:url(#SVGID_26_);}
	.st29{fill:url(#SVGID_27_);}
	.st30{fill:url(#SVGID_28_);}
	.st31{fill:url(#SVGID_29_);}
	.st32{opacity:0.16;fill:url(#SVGID_30_);}
	.st33{opacity:0.16;fill:url(#SVGID_31_);}
	.st34{opacity:0.16;fill:url(#SVGID_32_);}
	.st35{opacity:0.16;fill:url(#SVGID_33_);}
	.st36{opacity:0.16;fill:url(#SVGID_34_);}
	.st37{fill:url(#SVGID_35_);}
	.st38{fill:url(#SVGID_36_);}
</style>
<g>
	<g>
		<path class="st0" d="M5.45,8.13L3.37,3.52C3.17,3.48,2.99,3.35,2.9,3.15L2.56,2.38c-0.15-0.33,0-0.72,0.33-0.86l1.67-0.75
			c0.33-0.15,0.72,0,0.86,0.33l0.35,0.77c0.09,0.2,0.07,0.42-0.03,0.6l2.08,4.61c2.53-0.5,5.15,0.78,6.26,3.23
			c1.29,2.85,0.02,6.21-2.84,7.5s-6.21,0.02-7.5-2.84C2.63,12.51,3.41,9.69,5.45,8.13z"/>
		<radialGradient id="SVGID_1_" cx="8.9163" cy="15.0812" r="3.8847" gradientUnits="userSpaceOnUse">
			<stop  offset="0" style="stop-color:#00BF0C"/>
			<stop  offset="1" style="stop-color:#007F1D"/>
		</radialGradient>
		<path class="st1" d="M4,12.62c0,1.87,1.08,3.66,2.89,4.48c2.47,1.12,5.38,0.02,6.5-2.46c0.3-0.66,0.44-1.34,0.43-2.02H4z"/>
		
			<radialGradient id="SVGID_2_" cx="24.7396" cy="-291.4761" r="3.4776" gradientTransform="matrix(1 0 0 1.413 -15.8233 424.4922)" gradientUnits="userSpaceOnUse">
			<stop  offset="0.3966" style="stop-color:#007F1D"/>
			<stop  offset="0.9944" style="stop-color:#006837"/>
		</radialGradient>
		<ellipse class="st2" cx="8.92" cy="12.62" rx="4.91" ry="0.29"/>
		<radialGradient id="SVGID_3_" cx="5.5154" cy="14.6307" r="0.4505" gradientUnits="userSpaceOnUse">
			<stop  offset="0.329" style="stop-color:#007F1D"/>
			<stop  offset="0.9944" style="stop-color:#006837"/>
		</radialGradient>
		<circle class="st3" cx="5.52" cy="14.63" r="0.45"/>
		<radialGradient id="SVGID_4_" cx="8.0864" cy="15.9522" r="0.4505" gradientUnits="userSpaceOnUse">
			<stop  offset="0.329" style="stop-color:#007F1D"/>
			<stop  offset="0.9944" style="stop-color:#006837"/>
		</radialGradient>
		<circle class="st4" cx="8.09" cy="15.95" r="0.45"/>
		<radialGradient id="SVGID_5_" cx="8.537" cy="13.8257" r="0.4505" gradientUnits="userSpaceOnUse">
			<stop  offset="0.329" style="stop-color:#007F1D"/>
			<stop  offset="0.9944" style="stop-color:#006837"/>
		</radialGradient>
		<circle class="st5" cx="8.54" cy="13.83" r="0.45"/>
		<radialGradient id="SVGID_6_" cx="11.108" cy="15.1473" r="0.4505" gradientUnits="userSpaceOnUse">
			<stop  offset="0.329" style="stop-color:#007F1D"/>
			<stop  offset="0.9944" style="stop-color:#006837"/>
		</radialGradient>
		<circle class="st6" cx="11.11" cy="15.15" r="0.45"/>
		<radialGradient id="SVGID_7_" cx="12.455" cy="13.7777" r="0.4505" gradientUnits="userSpaceOnUse">
			<stop  offset="0.329" style="stop-color:#007F1D"/>
			<stop  offset="0.9944" style="stop-color:#006837"/>
		</radialGradient>
		<circle class="st7" cx="12.46" cy="13.78" r="0.45"/>
		<ellipse transform="matrix(0.7925 -0.6099 0.6099 0.7925 -3.4635 9.4408)" class="st8" cx="12.14" cy="9.81" rx="0.7" ry="1.74"/>
		<radialGradient id="SVGID_8_" cx="10.4917" cy="11.9301" r="0.6313" gradientUnits="userSpaceOnUse">
			<stop  offset="0.329" style="stop-color:#007F1D"/>
			<stop  offset="0.9944" style="stop-color:#006837"/>
		</radialGradient>
		<path class="st9" d="M10.85,12.62c0.29,0,0.56-0.08,0.76-0.2c-0.01-0.41-0.35-0.74-0.76-0.74c-0.41,0-0.75,0.33-0.76,0.74
			C10.29,12.54,10.56,12.62,10.85,12.62z"/>
		<radialGradient id="SVGID_9_" cx="6.4851" cy="12.2004" r="0.3719" gradientUnits="userSpaceOnUse">
			<stop  offset="0.3966" style="stop-color:#007F1D"/>
			<stop  offset="0.9944" style="stop-color:#006837"/>
		</radialGradient>
		<path class="st10" d="M6.76,12.62c0.17,0,0.33-0.04,0.45-0.12C7.2,12.26,7,12.07,6.76,12.07c-0.24,0-0.44,0.19-0.45,0.43
			C6.43,12.58,6.58,12.62,6.76,12.62z"/>
		
			<rect x="5.63" y="0.28" transform="matrix(-0.9136 0.4065 -0.4065 -0.9136 13.4043 4.8926)" class="st8" width="1.1" height="7.18"/>
		<path class="st11" d="M4.82,0.7c0.25,0,0.49,0.14,0.6,0.38l0.35,0.77c0.09,0.2,0.07,0.42-0.03,0.6l2.08,4.61
			C8.18,6.99,8.54,6.95,8.9,6.95c2.16,0,4.22,1.24,5.17,3.34c1.29,2.85,0.02,6.21-2.84,7.5c-0.76,0.34-1.55,0.5-2.33,0.5
			c-2.16,0-4.22-1.24-5.17-3.34c-1.1-2.45-0.33-5.26,1.71-6.83L3.37,3.52C3.17,3.48,2.99,3.35,2.9,3.15L2.56,2.38
			c-0.15-0.33,0-0.72,0.33-0.86l1.67-0.75C4.64,0.72,4.73,0.7,4.82,0.7 M4.82,0.07c-0.18,0-0.36,0.04-0.53,0.11L2.62,0.94
			c-0.31,0.14-0.55,0.4-0.67,0.72C1.83,1.98,1.84,2.33,1.98,2.64l0.35,0.77C2.45,3.67,2.65,3.88,2.9,4.01l1.78,3.94
			c-0.91,0.82-1.57,1.91-1.88,3.1c-0.36,1.38-0.23,2.86,0.36,4.16c1.02,2.25,3.27,3.71,5.75,3.71c0.9,0,1.77-0.19,2.59-0.56
			c1.53-0.69,2.71-1.94,3.3-3.52c0.6-1.57,0.54-3.29-0.15-4.82c-1.02-2.25-3.27-3.71-5.75-3.71c-0.24,0-0.47,0.01-0.71,0.04
			L6.42,2.43C6.48,2.15,6.46,1.86,6.34,1.6L5.99,0.83C5.79,0.37,5.33,0.07,4.82,0.07L4.82,0.07z"/>
	</g>
	<g>
		<path class="st11" d="M12.96,4.2c-0.02,0.09-0.04,0.15-0.05,0.2c-0.02,0.05-0.04,0.09-0.06,0.11c-0.02,0.02-0.05,0.03-0.08,0.03
			c-0.03,0-0.08-0.01-0.13-0.02l-0.78-0.17c-0.05-0.01-0.08-0.04-0.1-0.08c-0.02-0.04-0.02-0.08-0.01-0.12
			c0.03-0.12,0.05-0.22,0.07-0.31c0.02-0.09,0.05-0.16,0.07-0.23c0.02-0.07,0.04-0.12,0.06-0.16s0.04-0.08,0.07-0.1
			c0.08-0.09,0.17-0.15,0.27-0.2c0.09-0.05,0.19-0.09,0.28-0.12c0.09-0.03,0.18-0.06,0.27-0.08c0.09-0.02,0.17-0.06,0.24-0.09
			c0.07-0.04,0.13-0.09,0.19-0.15c0.05-0.06,0.09-0.14,0.11-0.25c0.02-0.07,0.02-0.14,0-0.22c-0.02-0.07-0.04-0.14-0.09-0.2
			c-0.04-0.06-0.09-0.12-0.16-0.16C13.07,1.82,13,1.79,12.93,1.78c-0.08-0.02-0.15-0.02-0.23,0c-0.08,0.02-0.15,0.04-0.21,0.09
			c-0.06,0.04-0.12,0.09-0.17,0.16c-0.05,0.06-0.08,0.13-0.09,0.2L12.21,2.3c-0.01,0.04-0.03,0.06-0.06,0.07
			c-0.03,0.01-0.07,0.01-0.11,0.01s-0.08-0.01-0.13-0.03s-0.09-0.02-0.12-0.03l-0.58-0.13c-0.06-0.01-0.09-0.04-0.1-0.07
			c-0.01-0.03-0.02-0.07-0.01-0.1l0.02-0.11c0.05-0.23,0.15-0.44,0.28-0.61c0.14-0.17,0.3-0.31,0.48-0.42s0.39-0.18,0.61-0.21
			s0.44-0.02,0.66,0.02c0.23,0.05,0.43,0.14,0.62,0.27c0.18,0.13,0.34,0.28,0.46,0.46c0.12,0.18,0.2,0.38,0.25,0.6
			c0.04,0.22,0.04,0.44-0.01,0.68c-0.04,0.16-0.08,0.3-0.14,0.41c-0.06,0.11-0.12,0.2-0.19,0.28c-0.07,0.08-0.15,0.14-0.23,0.19
			c-0.08,0.05-0.16,0.09-0.24,0.12c-0.08,0.03-0.16,0.07-0.24,0.09c-0.08,0.03-0.15,0.06-0.21,0.09c-0.06,0.04-0.12,0.08-0.16,0.13
			S12.98,4.12,12.96,4.2z M11.52,5.16c0.01-0.04,0.03-0.08,0.06-0.1c0.03-0.02,0.07-0.03,0.12-0.02l0.88,0.19
			c0.04,0.01,0.07,0.03,0.1,0.06c0.03,0.03,0.03,0.07,0.02,0.12l-0.18,0.81c-0.01,0.04-0.03,0.07-0.06,0.1
			c-0.03,0.03-0.07,0.03-0.12,0.02l-0.88-0.19c-0.1-0.02-0.13-0.08-0.11-0.19L11.52,5.16z"/>
	</g>
	<g>
		<path class="st11" d="M14.96,6.56c-0.06,0.04-0.1,0.06-0.14,0.08c-0.04,0.02-0.06,0.03-0.09,0.03c-0.02,0-0.04-0.01-0.06-0.03
			c-0.02-0.02-0.04-0.04-0.06-0.08l-0.32-0.5c-0.02-0.03-0.02-0.06-0.01-0.09c0.01-0.03,0.03-0.06,0.06-0.07
			c0.08-0.05,0.14-0.09,0.2-0.12c0.06-0.03,0.11-0.06,0.16-0.09c0.05-0.02,0.09-0.04,0.12-0.05s0.06-0.02,0.09-0.02
			c0.09,0,0.17,0.01,0.25,0.03c0.08,0.02,0.15,0.05,0.21,0.08c0.07,0.03,0.13,0.07,0.19,0.1c0.06,0.03,0.12,0.06,0.18,0.08
			c0.06,0.02,0.12,0.03,0.18,0.02c0.06,0,0.13-0.03,0.19-0.07c0.05-0.03,0.08-0.07,0.11-0.12c0.03-0.05,0.05-0.1,0.06-0.15
			c0.01-0.05,0.01-0.11,0-0.17c-0.01-0.06-0.03-0.11-0.06-0.16c-0.03-0.05-0.07-0.09-0.12-0.12c-0.05-0.03-0.1-0.05-0.16-0.07
			c-0.06-0.01-0.11-0.01-0.17-0.01c-0.06,0.01-0.11,0.03-0.16,0.06l-0.05,0.03c-0.02,0.02-0.05,0.02-0.07,0.01
			c-0.02-0.01-0.04-0.03-0.06-0.05s-0.04-0.05-0.06-0.08c-0.02-0.03-0.03-0.06-0.05-0.08L15.1,4.57c-0.02-0.04-0.03-0.07-0.02-0.09
			c0.01-0.03,0.03-0.05,0.05-0.06l0.07-0.05c0.15-0.1,0.31-0.15,0.47-0.18c0.16-0.02,0.32-0.01,0.48,0.03
			c0.15,0.04,0.3,0.11,0.43,0.21c0.13,0.1,0.25,0.22,0.34,0.37c0.09,0.15,0.16,0.3,0.19,0.47c0.03,0.16,0.03,0.33,0,0.49
			c-0.03,0.16-0.09,0.31-0.19,0.45c-0.09,0.14-0.21,0.26-0.37,0.35c-0.1,0.07-0.2,0.11-0.29,0.14c-0.09,0.03-0.17,0.04-0.25,0.05
			c-0.08,0-0.15-0.01-0.22-0.02c-0.07-0.02-0.13-0.04-0.2-0.06c-0.06-0.02-0.12-0.05-0.17-0.08c-0.05-0.03-0.11-0.05-0.16-0.06
			c-0.05-0.01-0.1-0.02-0.15-0.02C15.06,6.51,15.01,6.52,14.96,6.56z M13.69,6.3c0.03-0.02,0.06-0.03,0.08-0.02
			c0.03,0,0.05,0.02,0.07,0.05l0.36,0.57c0.02,0.02,0.02,0.05,0.02,0.08c0,0.03-0.02,0.06-0.05,0.08L13.65,7.4
			c-0.03,0.02-0.05,0.02-0.08,0.02c-0.03,0-0.06-0.02-0.08-0.06L13.13,6.8c-0.04-0.06-0.03-0.12,0.04-0.16L13.69,6.3z"/>
	</g>
	<g>
		<path class="st11" d="M9.53,4.27c0.02,0.06,0.03,0.1,0.03,0.13c0.01,0.03,0.01,0.06,0,0.08C9.56,4.5,9.54,4.52,9.52,4.53
			C9.5,4.54,9.48,4.55,9.44,4.56l-0.5,0.15C8.91,4.72,8.89,4.71,8.86,4.7C8.84,4.68,8.82,4.66,8.82,4.63
			c-0.02-0.08-0.04-0.14-0.06-0.2C8.75,4.37,8.73,4.32,8.73,4.28C8.72,4.24,8.71,4.2,8.71,4.17c0-0.03,0-0.06,0.01-0.08
			c0.02-0.08,0.05-0.14,0.09-0.2c0.04-0.06,0.08-0.11,0.12-0.16S9.01,3.64,9.06,3.6C9.1,3.55,9.14,3.51,9.17,3.47
			C9.2,3.42,9.22,3.37,9.23,3.32c0.01-0.05,0.01-0.11-0.01-0.18C9.2,3.1,9.18,3.06,9.14,3.02C9.11,2.98,9.07,2.95,9.03,2.93
			C8.99,2.91,8.94,2.89,8.89,2.89c-0.05-0.01-0.1,0-0.15,0.01C8.69,2.91,8.65,2.94,8.61,2.97C8.57,3,8.54,3.04,8.52,3.09
			C8.5,3.13,8.48,3.18,8.47,3.23c-0.01,0.05,0,0.1,0.01,0.15L8.5,3.42c0.01,0.02,0,0.04-0.01,0.06C8.47,3.5,8.46,3.51,8.43,3.52
			C8.41,3.53,8.38,3.54,8.35,3.55C8.32,3.56,8.29,3.56,8.27,3.57L7.9,3.68C7.87,3.69,7.84,3.69,7.82,3.67S7.79,3.64,7.78,3.62
			L7.76,3.55C7.72,3.4,7.7,3.25,7.73,3.11C7.75,2.97,7.8,2.84,7.87,2.72C7.94,2.6,8.03,2.5,8.15,2.41s0.24-0.15,0.39-0.2
			c0.15-0.04,0.29-0.06,0.44-0.04c0.15,0.01,0.28,0.05,0.41,0.12C9.5,2.35,9.61,2.44,9.71,2.55C9.8,2.66,9.87,2.79,9.91,2.94
			c0.03,0.1,0.05,0.19,0.05,0.28c0,0.08-0.01,0.16-0.02,0.22C9.92,3.5,9.9,3.56,9.87,3.62c-0.03,0.05-0.06,0.1-0.1,0.15
			C9.73,3.81,9.7,3.85,9.66,3.89C9.63,3.93,9.6,3.97,9.57,4.01C9.55,4.05,9.53,4.09,9.52,4.13C9.51,4.18,9.51,4.22,9.53,4.27z
			 M9.01,5.27C9,5.25,9,5.22,9.02,5.2c0.01-0.02,0.03-0.04,0.06-0.05l0.56-0.17c0.02-0.01,0.05-0.01,0.07,0.01
			C9.74,5,9.76,5.02,9.77,5.05l0.15,0.52c0.01,0.03,0.01,0.05,0,0.08C9.9,5.67,9.88,5.69,9.85,5.7L9.29,5.86
			c-0.06,0.02-0.1,0-0.12-0.07L9.01,5.27z"/>
	</g>
</g>
</svg>
