<?xml version="1.0" encoding="utf-8"?>
<!-- Generator: Adobe Illustrator 24.3.0, SVG Export Plug-In . SVG Version: 6.00 Build 0)  -->
<svg version="1.1" xmlns="http://www.w3.org/2000/svg" xmlns:xlink="http://www.w3.org/1999/xlink" x="0px" y="0px"
	 viewBox="0 0 112 112" style="enable-background:new 0 0 112 112;" xml:space="preserve">
<style type="text/css">
	.st0{display:none;}
	.st1{fill:#662D91;}
	.st2{opacity:0.44;}
	.st3{fill:url(#SVGID_1_);}
	.st4{fill:#061326;}
	.st5{fill:#FEFEFE;}
	.st6{fill:#CD4054;}
	.st7{fill:url(#SVGID_2_);}
	.st8{fill:#9E2D42;}
	.st9{fill:url(#SVGID_3_);}
	.st10{fill:#1799DF;}
	.st11{fill:url(#SVGID_4_);}
	.st12{fill:url(#SVGID_5_);}
	.st13{fill:#999999;}
	.st14{fill:url(#SVGID_6_);}
	.st15{fill:url(#SVGID_7_);}
	.st16{fill:url(#SVGID_8_);}
	.st17{fill:url(#SVGID_9_);}
	.st18{fill:url(#SVGID_10_);}
	.st19{fill:#F2F2F2;}
	.st20{fill:#CCCCCC;}
	.st21{fill:url(#SVGID_11_);}
	.st22{fill:url(#SVGID_12_);}
	.st23{fill:none;}
	.st24{opacity:0.15;fill:url(#SVGID_13_);}
	.st25{opacity:0.5;fill:url(#SVGID_14_);}
	.st26{fill:url(#SVGID_15_);}
	.st27{opacity:0.03;fill:none;stroke:#FFFFFF;stroke-width:2;stroke-miterlimit:10;}
	.st28{fill:#29ABE2;}
	.st29{fill:#FF0000;}
	.st30{fill:url(#SVGID_16_);}
	.st31{fill:url(#SVGID_17_);}
	.st32{fill:url(#SVGID_18_);}
	.st33{fill:url(#SVGID_19_);}
	.st34{fill:#FFFF00;}
	.st35{fill:url(#SVGID_20_);}
	.st36{fill:url(#SVGID_21_);}
	.st37{opacity:0.2;}
	.st38{fill:#FFFAEF;}
	.st39{opacity:0.1;fill:#FFFAEF;}
</style>
<g id="Calque_1" class="st0">
</g>
<g id="Calque_2">
	<linearGradient id="SVGID_1_" gradientUnits="userSpaceOnUse" x1="32.6151" y1="3.571" x2="78.9796" y2="101.6127">
		<stop  offset="0" style="stop-color:#6B13D4"/>
		<stop  offset="1" style="stop-color:#340094"/>
	</linearGradient>
	<path class="st3" d="M101.21,4.88c-2.31-1.5-4.8-2.69-7.4-3.51c-2.76-0.87-5.72-1.31-8.79-1.31c-2.72,0-5.38,0.36-7.91,1.07
		c-2.5,0.7-4.87,1.7-7.04,2.97c-2.19,1.28-4.21,2.84-6,4.64c-1.78,1.79-3.34,3.82-4.62,6.01c-1.28,2.2-2.29,4.58-2.98,7.08
		c-0.7,2.52-1.05,5.17-1.05,7.89c0,0.59,0.02,1.2,0.05,1.81c-0.01,0.1,0,0.2-0.01,0.31c-0.35-1.12-1.05-2.1-2.05-2.8
		c-1.08-0.76-2.24-1.15-3.44-1.15h-9.08c-1.67,0-3.15,0.64-4.18,1.81c-0.91,1.04-1.39,2.34-1.39,3.77v5.22
		c-0.22,0.01-0.45,0.02-0.67,0.02c-1.27,0-2.38-0.22-3.39-0.67c-1.03-0.46-1.89-1.07-2.62-1.86c-0.76-0.82-1.34-1.76-1.77-2.89
		c-0.21-0.54-0.37-1.11-0.47-1.72c-0.01-0.08-0.01-0.16,0-0.24c0.11-0.62,0.27-1.2,0.48-1.75c0.44-1.14,1.02-2.1,1.78-2.93
		c0.73-0.8,1.59-1.42,2.63-1.89c1-0.46,2.11-0.68,3.37-0.68c1.02,0,1.94,0.15,2.8,0.44c0.92,0.32,1.8,0.77,2.61,1.34l0.08,0.06
		l0.08,0.05c1.02,0.65,2.06,0.98,3.11,0.98c0.65,0,1.28-0.13,1.87-0.38c0.91-0.38,1.74-1.03,2.45-1.91l0.1-0.12l0.09-0.13l2.96-4.28
		c0.01-0.02,0.03-0.04,0.04-0.07l1.8-3.59l1.43-2.67l1.19-1.97c1.07-1.79,0.49-4.13-1.3-5.2L51.5,5.16
		c-0.06-0.04-0.11-0.08-0.16-0.12c-2.38-1.59-4.96-2.82-7.67-3.67c-2.76-0.87-5.72-1.31-8.79-1.31c-2.72,0-5.38,0.36-7.91,1.07
		c-2.49,0.7-4.86,1.7-7.04,2.97c-2.19,1.28-4.21,2.84-6,4.64c-1.78,1.8-3.34,3.82-4.62,6.01c-1.29,2.2-2.29,4.58-2.98,7.09
		c-0.7,2.52-1.05,5.17-1.05,7.89c0,0.59,0.02,1.2,0.05,1.81c-0.04,0.61-0.05,1.22-0.05,1.81c0,2.72,0.35,5.37,1.05,7.89
		c0.7,2.51,1.7,4.89,2.99,7.07c0.76,1.29,1.62,2.51,2.56,3.67c0.17,0.21,0.16,0.49,0,0.7c-0.74,0.98-1.13,2.17-1.13,3.49v8.29v38.31
		l0,3.62c0,1.67,0.64,3.16,1.8,4.17c1.02,0.89,2.32,1.37,3.77,1.37h33.75c2.45,0,4.07-1.23,4.88-2.77c0.25,0.43,0.54,0.84,0.9,1.19
		c1.06,1.02,2.47,1.58,3.97,1.58l38.34,0c2.17,0,4.27-1.08,5.31-2.98c0.47-0.86,0.72-1.8,0.72-2.76v-3.62v-4.69v-3.62
		c0-1.72-0.67-3.23-1.88-4.26c-1.05-0.88-2.33-1.35-3.73-1.35h-9.89c-0.48,0-0.74-0.56-0.43-0.92l14.7-17.52l0.36-0.43l0.23-0.51
		c0.32-0.7,0.5-1.36,0.54-2.01c0.02-0.25,0.03-0.51,0.03-0.79v-3.62v-3.12l0-2.2c0-0.14,0.06-0.28,0.16-0.38
		c1.02-1.06,1.58-2.42,1.58-3.9v-3.62V37.09v-0.97v-2.65c0-1.78-0.84-3.39-2.31-4.42c-1.08-0.76-2.24-1.15-3.44-1.15h-9.08
		c-1.67,0-3.15,0.64-4.18,1.8c-0.92,1.05-1.4,2.35-1.4,3.77v3.62v1.01v0.59c-0.22,0.01-0.45,0.02-0.67,0.02
		c-1.27,0-2.38-0.22-3.39-0.67c-0.23-0.1-0.46-0.22-0.71-0.36c-0.21-0.12-0.43-0.26-0.64-0.41c-0.48-0.33-0.91-0.7-1.27-1.1
		c-0.76-0.82-1.34-1.76-1.77-2.89c-0.21-0.54-0.37-1.11-0.48-1.73c-0.01-0.08-0.01-0.16,0-0.24c0.11-0.62,0.27-1.2,0.48-1.75
		c0.44-1.14,1.02-2.1,1.78-2.93c0.73-0.8,1.59-1.42,2.63-1.89c1-0.46,2.11-0.68,3.37-0.68c1.02,0,1.94,0.15,2.8,0.44
		c0.92,0.32,1.8,0.77,2.61,1.34l0.08,0.06l0.08,0.05c1.02,0.65,2.06,0.98,3.11,0.98c0.65,0,1.28-0.13,1.88-0.38
		c0.91-0.38,1.73-1.03,2.45-1.91l0.1-0.12l0.09-0.13l4.45-6.42l3.62-5.08c1.21-1.7,0.81-4.07-0.89-5.28L101.21,4.88z M55.71,37.59
		c0.17,1.24,0.42,2.47,0.75,3.66c0.7,2.51,1.7,4.89,3,7.07c0.45,0.76,0.94,1.5,1.45,2.22h-1.19c-1.97,0-3.26,0.84-3.99,1.54
		c-0.01,0.01-0.01,0.01-0.01,0.02V37.59z M69.86,74.75L55.35,91.87l-0.03,0.03c-0.85-1.96-2.74-3.24-5.12-3.24h-0.62
		c0.3-0.68,0.46-1.41,0.46-2.15V79.3v-3.62c0-0.44-0.05-0.86-0.14-1.27c-0.07-0.3,0.15-0.61,0.45-0.66c1.39-0.22,2.6-0.92,3.46-2.03
		c0.29-0.37,0.51-0.77,0.7-1.18c0.35,0.82,0.83,1.42,1.27,1.82c0.72,0.66,1.99,1.46,3.93,1.46h9.72
		C69.91,73.82,70.17,74.38,69.86,74.75z"/>
	<linearGradient id="SVGID_2_" gradientUnits="userSpaceOnUse" x1="64.9463" y1="102.4082" x2="54.804" y2="54.3532">
		<stop  offset="0" style="stop-color:#6B13D4"/>
		<stop  offset="1" style="stop-color:#340094"/>
	</linearGradient>
	<path class="st7" d="M85.45,38.18v0.42c-0.22,0.01-0.45,0.02-0.67,0.02c-0.37,0-0.72-0.02-1.06-0.06
		c-8.84,1.97-17.47,4.43-25.6,7.09c0.41,0.88,0.84,1.75,1.33,2.58c0.45,0.76,0.94,1.5,1.45,2.22h-1.19c-1.97,0-3.26,0.84-3.99,1.54
		c-0.01,0.01-0.01,0.01-0.01,0.02v-5.56c-19.75,6.62-36.26,14.24-44.96,18.53v37.72l0,3.62c0,1.67,0.64,3.16,1.8,4.17
		c1.02,0.89,2.32,1.37,3.77,1.37h33.75c2.45,0,4.07-1.23,4.88-2.77c0.25,0.43,0.54,0.84,0.9,1.19c1.06,1.02,2.47,1.58,3.97,1.58
		l38.34,0c2.17,0,4.27-1.08,5.31-2.98c0.47-0.86,0.72-1.8,0.72-2.76v-3.62V97.8v-3.62c0-1.72-0.67-3.23-1.88-4.26
		c-1.05-0.88-2.33-1.35-3.73-1.35h-9.89c-0.48,0-0.74-0.56-0.43-0.92l14.7-17.52l0.36-0.43l0.23-0.51c0.32-0.7,0.5-1.36,0.54-2.01
		c0.02-0.25,0.03-0.51,0.03-0.79v-3.62v-3.12l0-2.2c0-0.14,0.06-0.28,0.16-0.38c1.02-1.06,1.58-2.42,1.58-3.9v-3.62V37v-0.97v-1.21
		C99.03,35.57,92.19,36.73,85.45,38.18z M49.9,74.32c-0.07-0.3,0.15-0.61,0.45-0.66c1.39-0.22,2.6-0.92,3.46-2.03
		c0.29-0.37,0.51-0.77,0.7-1.18c0.35,0.82,0.83,1.42,1.27,1.82c0.72,0.66,1.99,1.46,3.93,1.46h9.72c0.48,0,0.74,0.56,0.43,0.92
		L55.35,91.78l-0.03,0.03c-0.85-1.96-2.74-3.24-5.12-3.24h-0.62c0.3-0.68,0.46-1.41,0.46-2.15v-7.21v-3.62
		C50.03,75.15,49.99,74.72,49.9,74.32z"/>
	<g>
		<g>
			<path d="M101.16,36.03c-0.38-0.27-0.73-0.4-1.07-0.4h-9.08c-0.49,0-0.86,0.14-1.1,0.42c-0.24,0.28-0.37,0.63-0.37,1.05v8.75
				c-0.87,0.18-1.69,0.32-2.45,0.43c-0.77,0.11-1.54,0.17-2.32,0.17c-1.85,0-3.54-0.34-5.07-1.03s-2.85-1.63-3.96-2.82
				c-1.1-1.19-1.96-2.59-2.59-4.19c-0.62-1.6-0.94-3.32-0.94-5.14c0-1.82,0.31-3.54,0.94-5.16c0.62-1.61,1.49-3.02,2.59-4.22
				c1.1-1.2,2.42-2.15,3.96-2.85c1.54-0.7,3.23-1.05,5.07-1.05c1.47,0,2.85,0.22,4.14,0.67c1.29,0.45,2.5,1.07,3.64,1.87
				c0.49,0.31,0.88,0.41,1.17,0.28c0.29-0.12,0.58-0.36,0.87-0.72l5.41-7.81c0.18-0.3,0.26-0.57,0.24-0.82l0.01,0V9.73l-2.11,0.05
				l0.3,1.85c-1.86-1.15-3.81-2.06-5.88-2.71C90.2,8.16,87.67,7.79,85,7.79c-2.36,0-4.62,0.31-6.79,0.92
				c-2.17,0.61-4.2,1.47-6.09,2.57s-3.61,2.43-5.16,3.99c-1.55,1.56-2.88,3.29-3.99,5.19c-1.11,1.9-1.97,3.94-2.57,6.11
				c-0.6,2.17-0.9,4.43-0.9,6.79c0,2.36,0.3,4.62,0.9,6.79c0.6,2.17,1.46,4.2,2.57,6.08c1.11,1.88,2.44,3.59,3.99,5.14
				c1.55,1.55,3.27,2.88,5.16,3.99s3.92,1.97,6.09,2.57c0.47,0.13,0.95,0.24,1.43,0.34H59.7c-0.49,0-0.87,0.13-1.15,0.4
				c-0.28,0.27-0.42,0.62-0.42,1.06v8.35c0,0.58,0.14,0.99,0.42,1.25c0.28,0.26,0.66,0.38,1.15,0.38h22.87l-24.1,28.43
				c-0.16,0.22-0.23,0.51-0.23,0.87v7.18c0,0.51,0.15,0.91,0.45,1.2s0.67,0.43,1.12,0.43h38.75c0.44,0,0.81-0.18,1.08-0.53
				c0.28-0.36,0.42-0.72,0.42-1.1v-8.31c0-0.51-0.15-0.89-0.43-1.14c-0.29-0.24-0.65-0.37-1.07-0.37H75.62l24.17-28.81
				c0.11-0.24,0.17-0.44,0.18-0.6s0.02-0.32,0.02-0.5v-6.74c0-0.49-0.15-0.86-0.45-1.1c-0.3-0.24-0.66-0.37-1.08-0.37h-7.25
				c0.71-0.13,1.41-0.27,2.11-0.44c1.38-0.33,2.7-0.76,3.97-1.27c1.27-0.51,2.43-1.12,3.47-1.84c0.65-0.38,0.97-0.87,0.97-1.47V37.1
				C101.73,36.65,101.54,36.3,101.16,36.03z"/>
		</g>
		<path class="st19" d="M101.16,32.41c-0.38-0.27-0.73-0.4-1.07-0.4h-9.08c-0.49,0-0.86,0.14-1.1,0.42
			c-0.24,0.28-0.37,0.63-0.37,1.05v8.75c-0.87,0.18-1.69,0.32-2.45,0.43c-0.77,0.11-1.54,0.17-2.32,0.17
			c-1.85,0-3.54-0.34-5.07-1.03s-2.85-1.63-3.96-2.82c-1.1-1.19-1.96-2.59-2.59-4.19c-0.62-1.6-0.94-3.32-0.94-5.14
			c0-1.82,0.31-3.54,0.94-5.16c0.62-1.61,1.49-3.02,2.59-4.22c1.1-1.2,2.42-2.15,3.96-2.85c1.54-0.7,3.23-1.05,5.07-1.05
			c1.47,0,2.85,0.22,4.14,0.67c1.29,0.45,2.5,1.07,3.64,1.87c0.49,0.31,0.88,0.41,1.17,0.28c0.29-0.12,0.58-0.36,0.87-0.72
			l5.41-7.81c0.29-0.47,0.33-0.88,0.13-1.25c-0.2-0.37-0.49-0.66-0.87-0.88c-2.09-1.4-4.32-2.48-6.69-3.22
			C90.2,4.54,87.67,4.17,85,4.17c-2.36,0-4.62,0.31-6.79,0.92c-2.17,0.61-4.2,1.47-6.09,2.57s-3.61,2.43-5.16,3.99
			c-1.55,1.56-2.88,3.29-3.99,5.19c-1.11,1.9-1.97,3.94-2.57,6.11c-0.6,2.17-0.9,4.43-0.9,6.79c0,2.36,0.3,4.62,0.9,6.79
			c0.6,2.17,1.46,4.2,2.57,6.08c1.11,1.88,2.44,3.59,3.99,5.14c1.55,1.55,3.27,2.88,5.16,3.99s3.92,1.97,6.09,2.57
			c0.47,0.13,0.95,0.24,1.43,0.34H59.7c-0.49,0-0.87,0.13-1.15,0.4c-0.28,0.27-0.42,0.62-0.42,1.06v8.35c0,0.58,0.14,0.99,0.42,1.25
			c0.28,0.26,0.66,0.38,1.15,0.38h22.87l-24.1,28.43c-0.16,0.22-0.23,0.51-0.23,0.87v7.18c0,0.51,0.15,0.91,0.45,1.2
			c0.3,0.29,0.67,0.43,1.12,0.43h38.75c0.44,0,0.81-0.18,1.08-0.53c0.28-0.36,0.42-0.72,0.42-1.1v-8.31c0-0.51-0.15-0.89-0.43-1.14
			c-0.29-0.24-0.65-0.37-1.07-0.37H75.62l24.17-28.81c0.11-0.24,0.17-0.44,0.18-0.6c0.01-0.16,0.02-0.32,0.02-0.5v-6.74
			c0-0.49-0.15-0.86-0.45-1.1c-0.3-0.24-0.66-0.37-1.08-0.37h-7.25c0.71-0.13,1.41-0.27,2.11-0.44c1.38-0.33,2.7-0.76,3.97-1.27
			c1.27-0.51,2.43-1.12,3.47-1.84c0.65-0.38,0.97-0.87,0.97-1.47V33.48C101.73,33.03,101.54,32.67,101.16,32.41z"/>
		<path class="st20" d="M99.64,103.68c0.28-0.36,0.42-0.72,0.42-1.1v-8.31c0-0.51-0.15-0.89-0.43-1.14
			c-0.29-0.24-0.65-0.37-1.07-0.37H75.62l24.17-28.81c0.11-0.24,0.17-0.44,0.18-0.6c0.01-0.16,0.02-0.32,0.02-0.5v-6.74
			c0-0.49-0.15-0.86-0.45-1.1c-0.3-0.24-0.66-0.37-1.08-0.37h-7.25c0.71-0.13,1.41-0.27,2.11-0.44c1.38-0.33,2.7-0.76,3.97-1.27
			s2.43-1.12,3.47-1.84c0.65-0.38,0.97-0.87,0.97-1.47V36.13c-3.98,0.54-8.05,1.2-12.18,1.98v4.11c-0.87,0.18-1.69,0.32-2.45,0.43
			c-0.77,0.11-1.54,0.17-2.32,0.17c-1.85,0-3.54-0.34-5.07-1.03c-0.72-0.32-1.39-0.71-2.01-1.14c-4.49,1.07-9.04,2.29-13.62,3.64
			c0.86,1.23,1.82,2.39,2.9,3.46c1.55,1.55,3.27,2.88,5.16,3.99c1.89,1.11,3.92,1.97,6.09,2.57c0.47,0.13,0.95,0.24,1.43,0.34H59.7
			c-0.49,0-0.87,0.13-1.15,0.4c-0.28,0.27-0.42,0.62-0.42,1.06v8.35c0,0.58,0.14,0.99,0.42,1.25c0.28,0.26,0.66,0.38,1.15,0.38
			h22.87l-24.1,28.43c-0.16,0.22-0.23,0.51-0.23,0.87v7.18c0,0.51,0.15,0.91,0.45,1.2s0.67,0.43,1.12,0.43h38.75
			C99,104.22,99.36,104.04,99.64,103.68z"/>
		
			<ellipse transform="matrix(0.9999 -0.0166 0.0166 0.9999 -0.5351 1.6727)" class="st34" cx="100.79" cy="33.16" rx="3.28" ry="8.34"/>
		
			<ellipse transform="matrix(1.046704e-03 -1 1 1.046704e-03 3.4975 113.1332)" class="st34" cx="58.37" cy="54.82" rx="5.32" ry="2.09"/>
		
			<ellipse transform="matrix(0.5658 -0.8245 0.8245 0.5658 -33.734 122.8405)" class="st34" cx="99.77" cy="93.45" rx="4.64" ry="4.86"/>
	</g>
	<g>
		<g>
			
				<radialGradient id="SVGID_3_" cx="61.9925" cy="86.8362" r="26.0167" gradientTransform="matrix(0.8513 0.5247 -0.5247 0.8513 43.241 -35.9739)" gradientUnits="userSpaceOnUse">
				<stop  offset="0" style="stop-color:#ED1E79"/>
				<stop  offset="1" style="stop-color:#9E005D"/>
			</radialGradient>
			<path class="st9" d="M78.27,93.47c0.29-2.88-0.11-5.75-1.13-8.59c-0.18-0.5-0.33-1.02-0.54-1.51c-0.59-1.39-1.3-2.73-2.03-4.07
				c-0.57-1.05-1.07-2.14-1.6-3.21c-0.22-0.55-0.48-1.08-0.66-1.64c-0.51-1.51-1.07-3.02-1.35-4.57c-0.29-1.06-0.46-2.13-0.6-3.21
				c-0.25-1.93-0.36-3.86-0.34-5.79c0.01-0.66-0.2-1.25-0.85-1.64c-0.64-0.39-1.25-0.31-1.84,0c-0.96,0.51-1.96,0.97-2.97,1.38
				c-4.77,1.96-9.81,2.95-15.19,2.78c-2.18-0.07-4.35-0.11-6.48,0.21c-2.29,0.34-4.46,0.96-6.48,1.95
				c-1.18,0.58-2.34,1.21-3.28,2.13l0,0c-0.08,0.05-0.16,0.09-0.23,0.14c-1.73,1.44-3.03,3.19-3.93,5.23c-1.28,2.91-1.6,6-0.87,9.26
				c-0.02,0.16,0.03,0.3,0.1,0.45c0.2,0.62,0.38,1.23,0.53,1.86c0.02,0.09,0.04,0.19,0.07,0.28c1.23,3.41,3.22,6.43,5.78,9.14
				c4.39,4.66,9.64,8.11,15.54,10.59c3.96,1.66,8.04,2.61,12.24,2.55C71.08,107.06,77.43,101.68,78.27,93.47z"/>
			<path class="st4" d="M42.72,101.9c-3.36-2.07-6.36-4.5-8.97-7.27c-2.75-2.92-4.75-6.09-5.96-9.44c-0.04-0.11-0.06-0.21-0.08-0.29
				c0-0.02-0.01-0.04-0.02-0.07l0-0.01c-0.13-0.55-0.29-1.1-0.5-1.74c-0.08-0.17-0.16-0.41-0.16-0.69c-0.72-3.34-0.4-6.59,0.94-9.67
				c0.95-2.18,2.36-4.04,4.17-5.55c0.1-0.08,0.19-0.13,0.26-0.18c1.04-0.99,2.31-1.66,3.42-2.21c2-0.98,4.27-1.67,6.73-2.03
				c2.23-0.33,4.5-0.29,6.63-0.21c5.06,0.17,10.05-0.74,14.84-2.71c0.98-0.4,1.96-0.86,2.9-1.35c0.94-0.49,1.84-0.48,2.68,0.02
				c0.01,0,0.01,0.01,0.02,0.01c0.58,0.36,1.26,1.06,1.24,2.37c-0.02,1.89,0.09,3.8,0.33,5.67c0.12,0.93,0.28,2.03,0.57,3.09
				l0.02,0.07c0.23,1.26,0.64,2.48,1.08,3.76c0.08,0.23,0.16,0.46,0.23,0.69c0.12,0.35,0.27,0.69,0.42,1.06
				c0.07,0.17,0.14,0.33,0.21,0.5c0.16,0.32,0.32,0.65,0.47,0.97c0.35,0.72,0.71,1.47,1.1,2.18c0.71,1.31,1.45,2.7,2.06,4.14
				c0.16,0.37,0.28,0.74,0.4,1.1c0.05,0.15,0.1,0.31,0.16,0.46c1.08,3.01,1.48,6.02,1.18,8.96l0,0c-0.43,4.25-2.27,7.86-5.32,10.45
				c-3.02,2.57-7.04,3.97-11.62,4.03c-4.08,0.06-8.31-0.82-12.58-2.62C47.16,104.4,44.87,103.22,42.72,101.9z M29.36,84.43
				c0.01,0.03,0.02,0.07,0.02,0.1c0.01,0.03,0.02,0.07,0.02,0.08c1.12,3.12,3.01,6.1,5.59,8.84c4.11,4.36,9.24,7.86,15.25,10.39
				c4.11,1.73,8,2.54,11.9,2.49c8.49-0.12,14.48-5.2,15.27-12.95l0,0c0.27-2.68-0.09-5.45-1.09-8.22c-0.06-0.17-0.11-0.33-0.17-0.49
				c-0.11-0.34-0.22-0.66-0.35-0.97c-0.58-1.37-1.3-2.73-1.99-4c-0.4-0.75-0.77-1.51-1.13-2.25c-0.16-0.33-0.32-0.66-0.48-0.98
				l-0.02-0.06c-0.07-0.17-0.14-0.33-0.21-0.5c-0.16-0.38-0.33-0.78-0.47-1.19c-0.08-0.23-0.15-0.45-0.23-0.68
				c-0.44-1.28-0.89-2.6-1.14-3.97c-0.31-1.15-0.48-2.31-0.61-3.29c-0.25-1.95-0.37-3.94-0.34-5.91c0.01-0.52-0.17-0.74-0.44-0.9
				c-0.27-0.16-0.54-0.22-1.01,0.03c-0.99,0.52-2.01,0.99-3.04,1.42c-5.02,2.06-10.25,3.01-15.54,2.84
				c-2.06-0.07-4.24-0.11-6.33,0.2c-2.29,0.34-4.38,0.97-6.23,1.87c-1.07,0.52-2.18,1.11-3.05,1.97l-0.07,0.07l-0.08,0.05
				c-0.03,0.02-0.07,0.04-0.11,0.06c-0.01,0.01-0.03,0.02-0.04,0.02c-1.6,1.33-2.84,2.98-3.68,4.91c-1.22,2.77-1.49,5.71-0.82,8.73
				l0.03,0.16l-0.01,0.09c0,0.01,0.01,0.02,0.01,0.03l0.02,0.05l0.02,0.05C29.04,83.21,29.22,83.81,29.36,84.43z M28.75,82.34
				L28.75,82.34L28.75,82.34z"/>
			<path class="st5" d="M58.73,90.13c-2.9-2.27-3.17-7.79,1.03-9.84c3.47-1.36,6.77,1.05,7.41,4.31c0.03,0.16,0.07,0.31,0.11,0.47
				c0.07,1.34-0.11,2.62-0.84,3.79c-1.56,2.51-4.58,3.23-7.09,1.67C59.14,90.39,58.93,90.26,58.73,90.13z"/>
			<path class="st4" d="M59.14,90.9c-0.01-0.01-0.02-0.01-0.03-0.02c-0.14-0.09-0.28-0.18-0.42-0.27l-0.23-0.15
				c-1.62-1.27-2.51-3.51-2.28-5.72c0.22-2.13,1.46-3.9,3.39-4.84l0.03-0.01c1.63-0.64,3.35-0.54,4.85,0.28
				c1.6,0.88,2.77,2.5,3.13,4.34c0.02,0.1,0.04,0.2,0.07,0.3c0.01,0.05,0.02,0.1,0.04,0.15l0.01,0.04l0,0.04
				c0.08,1.62-0.2,2.91-0.9,4.04c-0.82,1.32-2.05,2.22-3.46,2.55C61.93,91.96,60.44,91.7,59.14,90.9z M58.98,89.78l0.18,0.12
				c0.14,0.09,0.27,0.18,0.41,0.26c0.01,0,0.02,0.01,0.02,0.01c1.11,0.68,2.37,0.91,3.55,0.63c1.2-0.28,2.24-1.05,2.93-2.17
				c0.6-0.97,0.85-2.08,0.78-3.51c-0.01-0.04-0.02-0.07-0.03-0.11c-0.03-0.11-0.05-0.23-0.08-0.34c-0.31-1.6-1.32-3-2.7-3.76
				c-1.27-0.7-2.73-0.78-4.11-0.24c-1.68,0.83-2.7,2.3-2.9,4.16C56.83,86.75,57.59,88.69,58.98,89.78z"/>
			<path class="st10" d="M50.4,90.98c-0.43-0.14-0.81-0.38-1.13-0.7C49.64,90.52,50.02,90.75,50.4,90.98z"/>
			<path class="st5" d="M54.19,79.43c-0.9,1.78-2.29,2.98-4.27,3.36c-2.64,0.5-4.71-0.42-6.22-2.64c-1.32-2.72-0.22-5.85,2.54-7.26
				c2.27-1.17,5.73-1.01,7.71,1.99C54.78,76.36,54.72,77.88,54.19,79.43z"/>
			<path class="st4" d="M45.48,82.5c-0.8-0.49-1.51-1.2-2.13-2.12l-0.03-0.05c-1.42-2.93-0.25-6.3,2.72-7.83
				c2.55-1.31,6.2-0.99,8.26,2.14l0.02,0.03c0.82,1.45,0.9,3.05,0.27,4.89l-0.02,0.05c-1.01,1.99-2.54,3.2-4.57,3.59
				C48.28,83.53,46.77,83.3,45.48,82.5z M44.07,79.93c1.44,2.1,3.32,2.9,5.77,2.44c1.74-0.33,3.08-1.38,3.96-3.11
				c0.55-1.6,0.48-2.93-0.21-4.16c-1.79-2.7-4.95-2.97-7.15-1.84C43.89,74.57,42.88,77.43,44.07,79.93z"/>
			<path class="st4" d="M65.63,86.26c-0.66,1.06-1.95,1.37-3.01,0.71c-1.18-0.73-1.56-2.35-0.84-3.52c0.65-1.05,1.98-1.36,3.03-0.71
				C65.99,83.47,66.37,85.08,65.63,86.26z"/>
			<path class="st4" d="M52.76,77.89c-0.72,1.19-2.32,1.57-3.51,0.84c-1.06-0.65-1.37-1.96-0.73-3.02c0.72-1.17,2.35-1.57,3.52-0.84
				C53.1,75.52,53.41,76.83,52.76,77.89z"/>
			<g>
				<path class="st4" d="M65.96,95.5c-0.31-1.23-1.46-2.04-2.75-1.9c-0.83,0.09-1.65,0.2-2.48,0.21c-3.7,0.03-7.16-0.86-10.34-2.78
					c-0.84-0.48-0.71-0.36-2.26-1.43c-1.55-1.07-5.1-4.93-6.48-8.31c-0.3-0.74-0.47-1.55-1.01-2.18c-0.89-0.75-1.89-1-2.96-0.47
					c-1.02,0.5-1.47,1.37-1.44,2.49c0.06,0.29,0.12,0.59,0.18,0.88c0.41,0.95,0.76,1.92,1.23,2.84c2.62,5.2,6.65,8.97,11.85,11.52
					c4.38,2.15,9,2.99,13.86,2.38c0.4-0.05,0.81-0.05,1.16-0.3c0,0,0,0,0,0c0,0,0,0,0,0C65.7,97.9,66.27,96.73,65.96,95.5z"/>
				<path class="st6" d="M59.51,98.48c0.71-1.16,0.27-2.89-1.03-4.77c-2.86-0.28-5.57-1.15-8.09-2.68
					c-0.84-0.48-0.71-0.36-2.26-1.43c-1.09-0.75-3.19-2.9-4.81-5.29c-2.32-0.35-4.12,0.02-4.84,1.2c-0.09,0.15-0.17,0.31-0.22,0.48
					c2.62,4.61,6.42,8.02,11.23,10.37c3.1,1.52,6.33,2.38,9.67,2.54C59.3,98.78,59.42,98.64,59.51,98.48z"/>
				<path class="st4" d="M42.9,84.99c1.66,2.38,3.69,4.44,4.81,5.21c0.75,0.52,1.12,0.77,1.41,0.94c0.18,0.11,0.33,0.19,0.51,0.29
					c0.11,0.06,0.23,0.13,0.39,0.22c2.46,1.49,5.16,2.41,8.05,2.74c1.02,1.56,1.32,2.9,0.83,3.69c-0.01,0.02-0.03,0.04-0.04,0.07
					c-3.07-0.19-6.11-1.02-9.03-2.45c-0.84-0.41-1.66-0.86-2.43-1.34c-3.49-2.15-6.29-4.99-8.31-8.43c0.01-0.02,0.02-0.03,0.03-0.05
					C39.61,85.08,40.98,84.75,42.9,84.99 M43.32,84.31c-2.32-0.35-4.12,0.02-4.84,1.2c-0.09,0.15-0.17,0.31-0.22,0.48
					c2.15,3.78,5.1,6.76,8.74,9c0.8,0.49,1.63,0.95,2.49,1.37c3.1,1.52,6.33,2.38,9.67,2.54c0.14-0.13,0.25-0.27,0.35-0.43
					c0.71-1.16,0.27-2.89-1.03-4.77c-2.86-0.28-5.57-1.15-8.09-2.68c-0.43-0.25-0.61-0.33-0.88-0.51c-0.26-0.16-0.62-0.4-1.38-0.92
					C47.04,88.85,44.95,86.7,43.32,84.31L43.32,84.31z"/>
			</g>
			
				<ellipse transform="matrix(0.9983 -0.0575 0.0575 0.9983 -3.7163 2.9328)" class="st5" cx="49.15" cy="66.1" rx="3.01" ry="1.22"/>
			
				<ellipse transform="matrix(0.9983 -0.0575 0.0575 0.9983 -3.6669 3.2599)" class="st5" cx="54.86" cy="65.4" rx="1.96" ry="0.65"/>
		</g>
		<g>
			
				<linearGradient id="SVGID_4_" gradientUnits="userSpaceOnUse" x1="51.9718" y1="93.762" x2="92.2333" y2="93.762" gradientTransform="matrix(0.8513 0.5247 -0.5247 0.8513 43.241 -35.9739)">
				<stop  offset="0" style="stop-color:#6B13D4"/>
				<stop  offset="1" style="stop-color:#340094"/>
			</linearGradient>
			<path class="st11" d="M69.67,80.05c-0.2-0.13-0.41-0.24-0.62-0.35c0.01-0.01,0.01-0.02,0.02-0.02l-9.05-5.58l-1.71-1.05
				l-7.22-4.45c0,0.01-0.01,0.02-0.01,0.03c-0.19-0.14-0.39-0.27-0.59-0.4c-4.16-2.57-9.62-1.27-12.19,2.89
				c-2.57,4.16-1.27,9.62,2.89,12.19c3.88,2.39,8.87,1.43,11.61-2.07l0,0c2.22-2.55,3.67-1.25,3.67-1.25s1.82,0.72,0.53,3.84l0,0
				c-1.89,4.02-0.5,8.91,3.37,11.3c4.16,2.57,9.62,1.27,12.19-2.89C75.13,88.07,73.83,82.62,69.67,80.05z"/>
			<g class="st37">
				<path class="st38" d="M41.18,83.3c0.35,0.21,0.71,0.4,1.07,0.56c5.37-5.75,12.78-8.48,17.8-9.74l-0.04-0.02l-1.71-1.05
					l-3.65-2.25c-7.8,1.11-14.57,5.1-17.44,7.01C37.73,80.01,39.1,82.02,41.18,83.3z"/>
				<path class="st38" d="M63.22,76.07L61.8,75.2c-4.77,0.41-11.43,2.43-17.9,9.21c0.59,0.13,1.18,0.2,1.77,0.21
					C48.59,81.73,55.23,76.16,63.22,76.07z"/>
				<path class="st38" d="M56.9,91.14c4.83-4.61,10.96-7.06,15.56-8.34c-0.69-1.08-1.63-2.02-2.8-2.74
					c-0.2-0.13-0.41-0.24-0.62-0.35c0.01-0.01,0.01-0.02,0.02-0.02l-0.84-0.52c-4.01,0.57-7.75,1.91-10.82,3.32
					c-0.07,0.39-0.19,0.83-0.4,1.34l0,0C55.89,86.19,55.91,88.86,56.9,91.14z"/>
				<path class="st38" d="M73.42,84.8c-0.1-0.31-0.22-0.62-0.36-0.92c-4.43,0.81-9.96,3.09-15.38,8.68
					c0.26,0.39,0.56,0.76,0.89,1.11C60.7,91.44,66.31,86.21,73.42,84.8z"/>
			</g>
			<path class="st4" d="M60.13,95.52c-4.03-2.48-5.55-7.57-3.56-11.86l0.01-0.01c0.93-2.28,0.07-3.03-0.22-3.21
				c-0.04-0.03-0.07-0.04-0.07-0.04l-0.08-0.03l-0.05-0.05c0,0-0.02-0.02-0.06-0.04c-0.29-0.18-1.35-0.61-2.97,1.25l-0.01,0.01
				c-2.93,3.7-8.16,4.63-12.19,2.14c-4.37-2.7-5.74-8.45-3.04-12.82c2.7-4.37,8.45-5.74,12.82-3.04l19.19,11.83
				c4.37,2.7,5.74,8.45,3.04,12.82C70.25,96.85,64.5,98.22,60.13,95.52z M57.56,83.64l0.03,0.02l-0.17,0.37
				c-1.82,3.87-0.44,8.47,3.2,10.72c3.94,2.43,9.13,1.2,11.56-2.74s1.2-9.13-2.74-11.56L50.23,68.61c-3.94-2.43-9.13-1.2-11.56,2.74
				s-1.2,9.13,2.74,11.56c3.64,2.24,8.38,1.4,11.01-1.96l0.25-0.32l0.03,0.02c1.96-2.06,3.45-1.4,3.87-1.14
				c0.05,0.03,0.09,0.06,0.12,0.08c0.03,0.02,0.08,0.04,0.13,0.07C57.26,79.93,58.52,80.96,57.56,83.64z"/>
			<path class="st39" d="M43.19,69.42c0,0-4.03,1.22-4.5,6.31c-0.47,5.09,6.4,8.07,9.99,5.54c3.59-2.53-4.16-2.69-3.69-7.85
				C45.28,70.2,44.97,69.39,43.19,69.42z"/>
			<path class="st39" d="M62.73,81.46c0,0-4.03,1.22-4.5,6.31c-0.47,5.09,6.4,8.07,9.99,5.54c3.59-2.53-4.16-2.69-3.69-7.85
				C64.82,82.24,64.5,81.43,62.73,81.46z"/>
			<path class="st38" d="M68.74,81.01c0,0,3.39,2.08,3.56,5c0.17,2.92-1.64,3.48-2.69,2.83C68.55,88.19,66.85,79.43,68.74,81.01z"/>
			
				<rect x="37.85" y="64.51" transform="matrix(0.5247 -0.8513 0.8513 0.5247 -38.9971 64.5547)" class="st4" width="0.92" height="5.37"/>
			
				<rect x="75.66" y="87.79" transform="matrix(0.5247 -0.8513 0.8513 0.5247 -40.8649 107.8098)" class="st4" width="0.92" height="5.41"/>
		</g>
	</g>
	<g>
		<g>
			<path d="M50.19,96.39H27.76v-8.55h16.72c0.47,0,0.82-0.14,1.07-0.43c0.25-0.29,0.37-0.59,0.37-0.9V79.3c0-0.47-0.14-0.8-0.42-1
				c-0.28-0.2-0.63-0.3-1.05-0.3H27.76v-8.28h21.63c0.51,0,0.9-0.17,1.17-0.52c0.27-0.34,0.4-0.7,0.4-1.08v-8.25
				c0-0.49-0.13-0.88-0.4-1.16c-0.27-0.29-0.65-0.43-1.14-0.43h-8.35c0.71-0.13,1.41-0.27,2.11-0.44c1.38-0.33,2.7-0.76,3.97-1.27
				c1.27-0.51,2.42-1.12,3.47-1.84c0.65-0.38,0.97-0.87,0.97-1.47V37.1c0-0.44-0.19-0.8-0.57-1.07c-0.38-0.27-0.73-0.4-1.07-0.4
				h-9.08c-0.49,0-0.86,0.14-1.1,0.42c-0.25,0.28-0.37,0.63-0.37,1.05v8.75c-0.87,0.18-1.69,0.32-2.45,0.43s-1.54,0.17-2.32,0.17
				c-1.85,0-3.54-0.34-5.07-1.03s-2.85-1.63-3.96-2.82c-1.1-1.19-1.96-2.59-2.59-4.19c-0.62-1.6-0.93-3.32-0.93-5.14
				c0-1.82,0.31-3.54,0.93-5.16c0.62-1.61,1.49-3.02,2.59-4.22c1.1-1.2,2.42-2.15,3.96-2.85c1.54-0.7,3.23-1.05,5.07-1.05
				c1.47,0,2.85,0.22,4.14,0.67c1.29,0.45,2.5,1.07,3.64,1.87c0.49,0.31,0.88,0.41,1.17,0.28c0.29-0.12,0.58-0.36,0.87-0.72
				l5.41-7.81c0.17-0.28,0.25-0.54,0.25-0.78l0,0l0.05-3.62L46.75,10l1.56,1.62c-1.86-1.15-3.81-2.07-5.89-2.72
				c-2.37-0.75-4.89-1.12-7.56-1.12c-2.36,0-4.62,0.31-6.79,0.92c-2.17,0.61-4.2,1.47-6.09,2.57c-1.89,1.1-3.61,2.43-5.16,3.99
				c-1.55,1.56-2.88,3.29-3.99,5.19c-1.11,1.9-1.97,3.94-2.57,6.11c-0.6,2.17-0.9,4.43-0.9,6.79c0,2.36,0.3,4.62,0.9,6.79
				c0.6,2.17,1.46,4.2,2.57,6.08c1.11,1.88,2.44,3.59,3.99,5.14c1.55,1.55,3.27,2.88,5.16,3.99c1.89,1.11,3.92,1.97,6.09,2.57
				c0.47,0.13,0.95,0.24,1.43,0.34H16.3c-0.47,0-0.83,0.14-1.08,0.42c-0.26,0.28-0.38,0.65-0.38,1.12v46.6
				c0,0.49,0.13,0.85,0.4,1.08c0.27,0.23,0.62,0.35,1.07,0.35h33.75c0.82,0,1.28-0.31,1.37-0.93c0.18-0.18,0.27-0.38,0.27-0.6v-8.39
				C51.69,96.9,51.19,96.39,50.19,96.39z"/>
		</g>
		<path class="st19" d="M50.19,92.77H27.76v-8.55h16.72c0.47,0,0.82-0.14,1.07-0.43c0.25-0.29,0.37-0.59,0.37-0.9v-7.21
			c0-0.47-0.14-0.8-0.42-1c-0.28-0.2-0.63-0.3-1.05-0.3H27.76V66.1h21.63c0.51,0,0.9-0.17,1.17-0.52c0.27-0.34,0.4-0.7,0.4-1.08
			v-8.25c0-0.49-0.13-0.88-0.4-1.16c-0.27-0.29-0.65-0.43-1.14-0.43h-8.35c0.71-0.13,1.41-0.27,2.11-0.44
			c1.38-0.33,2.7-0.76,3.97-1.27c1.27-0.51,2.42-1.12,3.47-1.84c0.65-0.38,0.97-0.87,0.97-1.47V33.48c0-0.44-0.19-0.8-0.57-1.07
			c-0.38-0.27-0.73-0.4-1.07-0.4h-9.08c-0.49,0-0.86,0.14-1.1,0.42c-0.25,0.28-0.37,0.63-0.37,1.05v8.75
			c-0.87,0.18-1.69,0.32-2.45,0.43c-0.77,0.11-1.54,0.17-2.32,0.17c-1.85,0-3.54-0.34-5.07-1.03c-1.54-0.69-2.85-1.63-3.96-2.82
			c-1.1-1.19-1.96-2.59-2.59-4.19c-0.62-1.6-0.93-3.32-0.93-5.14c0-1.82,0.31-3.54,0.93-5.16c0.62-1.61,1.49-3.02,2.59-4.22
			c1.1-1.2,2.42-2.15,3.96-2.85c1.54-0.7,3.23-1.05,5.07-1.05c1.47,0,2.85,0.22,4.14,0.67c1.29,0.45,2.5,1.07,3.64,1.87
			c0.49,0.31,0.88,0.41,1.17,0.28c0.29-0.12,0.58-0.36,0.87-0.72l5.41-7.81c0.29-0.47,0.33-0.88,0.13-1.25
			c-0.2-0.37-0.49-0.66-0.87-0.88c-2.09-1.4-4.32-2.48-6.69-3.22c-2.37-0.75-4.89-1.12-7.56-1.12c-2.36,0-4.62,0.31-6.79,0.92
			c-2.17,0.61-4.2,1.47-6.09,2.57c-1.89,1.1-3.61,2.43-5.16,3.99c-1.55,1.56-2.88,3.29-3.99,5.19c-1.11,1.9-1.97,3.94-2.57,6.11
			c-0.6,2.17-0.9,4.43-0.9,6.79c0,2.36,0.3,4.62,0.9,6.79c0.6,2.17,1.46,4.2,2.57,6.08c1.11,1.88,2.44,3.59,3.99,5.14
			c1.55,1.55,3.27,2.88,5.16,3.99c1.89,1.11,3.92,1.97,6.09,2.57c0.47,0.13,0.95,0.24,1.43,0.34H16.3c-0.47,0-0.83,0.14-1.08,0.42
			c-0.26,0.28-0.38,0.65-0.38,1.12v46.6c0,0.49,0.13,0.85,0.4,1.08c0.27,0.23,0.62,0.35,1.07,0.35h33.75c0.82,0,1.28-0.31,1.37-0.93
			c0.18-0.18,0.27-0.38,0.27-0.6V94.3C51.69,93.28,51.19,92.77,50.19,92.77z"/>
		<path class="st20" d="M51.42,103.29c0.18-0.18,0.27-0.38,0.27-0.6V94.3c0-1.02-0.5-1.53-1.5-1.53H27.76v-8.55h16.72
			c0.47,0,0.82-0.14,1.07-0.43c0.25-0.29,0.37-0.59,0.37-0.9v-7.21c0-0.47-0.14-0.8-0.42-1c-0.28-0.2-0.63-0.3-1.05-0.3H27.76V66.1
			h21.63c0.51,0,0.9-0.17,1.17-0.52c0.27-0.34,0.4-0.7,0.4-1.08v-8.25c0-0.49-0.13-0.88-0.4-1.16c-0.27-0.29-0.65-0.43-1.14-0.43
			h-8.35c0.71-0.13,1.41-0.27,2.11-0.44c1.38-0.33,2.7-0.76,3.97-1.27c1.27-0.51,2.42-1.12,3.47-1.84c0.65-0.38,0.97-0.87,0.97-1.47
			v-1.34c-13.48,4.69-25.88,10.2-36.75,16.18v38.31c0,0.49,0.13,0.85,0.4,1.08c0.27,0.23,0.62,0.35,1.07,0.35h33.75
			C50.88,104.22,51.33,103.91,51.42,103.29z"/>
		
			<ellipse transform="matrix(0.9946 -0.1033 0.1033 0.9946 -1.2193 1.7111)" class="st34" cx="15.91" cy="12.62" rx="6.59" ry="6.29"/>
		
			<ellipse transform="matrix(0.9946 -0.1033 0.1033 0.9946 -10.6325 2.2126)" class="st34" cx="16.04" cy="103.74" rx="5.22" ry="4.98"/>
	</g>
</g>
</svg>
