<?xml version="1.0" encoding="utf-8"?>
<!-- Generator: Adobe Illustrator 24.3.0, SVG Export Plug-In . SVG Version: 6.00 Build 0)  -->
<svg version="1.1" xmlns="http://www.w3.org/2000/svg" xmlns:xlink="http://www.w3.org/1999/xlink" x="0px" y="0px"
	 viewBox="0 0 112 112" style="enable-background:new 0 0 112 112;" xml:space="preserve">
<style type="text/css">
	.st0{display:none;}
	.st1{fill:#662D91;}
	.st2{fill:url(#SVGID_1_);}
	.st3{fill:#061326;}
	.st4{fill:#FEFEFE;}
	.st5{fill:url(#SVGID_2_);}
	.st6{fill:#1799DF;}
	.st7{fill:#CD4054;}
	.st8{fill:url(#SVGID_3_);}
	.st9{fill:url(#SVGID_4_);}
	.st10{fill:#999999;}
	.st11{fill:url(#SVGID_5_);}
	.st12{fill:url(#SVGID_6_);}
	.st13{fill:url(#SVGID_7_);}
	.st14{fill:url(#SVGID_8_);}
	.st15{fill:url(#SVGID_9_);}
	.st16{fill:#F2F2F2;}
	.st17{fill:#CCCCCC;}
	.st18{fill:#ECBC40;}
	.st19{fill:#924B38;}
	.st20{fill:#2D5533;}
	.st21{fill:#24452D;}
	.st22{fill:#2F5735;}
	.st23{fill:#3E733A;}
	.st24{fill:#427A39;}
	.st25{fill:#561C09;}
	.st26{fill:#5AA052;}
	.st27{fill:#509442;}
	.st28{fill:#2D542B;}
	.st29{fill:#356231;}
	.st30{fill:#3C6F36;}
	.st31{fill:#3F7737;}
	.st32{fill:#305A36;}
	.st33{fill:#41773A;}
	.st34{fill:#4B8B40;}
	.st35{fill:#396B39;}
	.st36{fill:#141518;}
	.st37{fill:#4C8B3F;}
	.st38{fill:#675029;}
	.st39{fill:#442610;}
	.st40{fill:#ECAD7A;}
	.st41{fill:#50200F;}
	.st42{fill:#562208;}
	.st43{fill:#6BAF84;}
	.st44{fill:#CC5621;}
	.st45{fill:#802C07;}
	.st46{fill:#5F180A;}
	.st47{fill:#B75E10;}
	.st48{fill:#611906;}
	.st49{fill:#621906;}
	.st50{fill:#B85D11;}
	.st51{fill:#6B1F09;}
	.st52{fill:#4E322C;}
	.st53{fill:#64522E;}
	.st54{fill:#356438;}
	.st55{fill:#3A6B39;}
	.st56{fill:#1E3B26;}
	.st57{fill:#224123;}
	.st58{fill:#645231;}
	.st59{fill:#447F3C;}
	.st60{fill:#3C6D3A;}
	.st61{fill:#457F3C;}
	.st62{fill:#4E903F;}
	.st63{fill:#4F9440;}
	.st64{fill:#3C6D39;}
	.st65{fill:#427A3B;}
	.st66{fill:#46813D;}
	.st67{fill:#3D713A;}
	.st68{fill:#7C2709;}
	.st69{fill:#624E2E;}
	.st70{fill:#284424;}
	.st71{fill:#427735;}
	.st72{fill:#66AE6F;}
	.st73{fill:#508864;}
	.st74{fill:#467247;}
	.st75{fill:#73B999;}
	.st76{fill:#6FB19E;}
	.st77{fill:#3C5E4D;}
	.st78{fill:#7AC0B0;}
	.st79{fill:#4D8167;}
	.st80{fill:#619D86;}
	.st81{fill:#745A46;}
	.st82{fill:#507C61;}
	.st83{fill:#F07F62;}
	.st84{fill:#7D2909;}
	.st85{fill:#E4B99E;}
	.st86{fill:#7B2809;}
	.st87{fill:#E4B89C;}
	.st88{fill:#D6CFCE;}
	.st89{fill:#1A321F;}
	.st90{fill:#70B889;}
	.st91{fill:#609E84;}
	.st92{fill:#476D60;}
	.st93{fill:#ABC9B1;}
	.st94{fill:#673B31;}
	.st95{fill:#57847A;}
	.st96{fill:#79C0AF;}
	.st97{fill:#B1C8BE;}
	.st98{fill:#F6EADD;}
	.st99{fill:#F4EADC;}
	.st100{fill:#D3B8B1;}
	.st101{fill:#C6A9A2;}
	.st102{fill:#CBAFA8;}
	.st103{fill:#CAAEA7;}
	.st104{fill:#B9D6D0;}
</style>
<g id="Calque_1" class="st0">
</g>
<g id="Calque_2">
	<g>
		<g>
			<g>
				<linearGradient id="SVGID_1_" gradientUnits="userSpaceOnUse" x1="13.1224" y1="2.4122" x2="96.4585" y2="98.7945">
					<stop  offset="0" style="stop-color:#6B13D4"/>
					<stop  offset="1" style="stop-color:#340094"/>
				</linearGradient>
				<path class="st2" d="M21.9,2.68c-0.41-0.29-0.84-0.57-1.28-0.83l-0.03-0.02l-0.03-0.02c-1.13-0.63-2.3-1.1-3.48-1.39
					C15.9,0.14,14.68,0,13.44,0c-1.63,0-3.15,0.21-4.51,0.62c-1.44,0.43-2.71,1.07-3.77,1.9C4.02,3.4,3.14,4.49,2.52,5.74
					C1.9,7.01,1.58,8.41,1.58,9.91c0,1.38,0.25,2.67,0.73,3.83c0.49,1.16,1.21,2.23,2.16,3.17c0.24,0.24,0.49,0.46,0.76,0.69
					c-0.06,0.04-0.13,0.09-0.19,0.13l-0.17,0.12L4.71,18l-2.86,2.74c-1.1,1.03-1.34,2.12-1.34,2.85c0,1.14,0.57,1.99,0.94,2.45
					l0.02,0.04l0.07,0.07l0.01,0.03l0.21,0.21l0.37,0.38l0,0l0.03,0.03l0.01,0c0.14,0.15,0.31,0.32,0.5,0.51l1.59,1.57l0.37,0.38
					l0,0l0.03,0.03l0.01,0c0.14,0.15,0.31,0.32,0.5,0.51c0.42,0.43,0.93,0.86,1.5,1.29c1.29,0.93,2.69,1.68,4.17,2.23
					c1.56,0.58,3.18,0.87,4.81,0.87c1.66,0,3.26-0.24,4.73-0.72c0.8-0.26,1.56-0.59,2.26-0.97c0.16,0.2,0.34,0.38,0.55,0.55
					c0.67,0.54,1.5,0.83,2.41,0.83h1.42v20.71c0,1.74,0.99,2.94,2.14,4.08c1.14,1.14,2.31,2.12,4.04,2.12H46.7h0.07l0.07,0
					c0.42-0.02,0.82-0.1,1.2-0.25c0.43,0.17,0.9,0.25,1.4,0.25h15.29c1.3,0,2.41-0.6,3.06-1.57c0.55,0.31,1.12,0.57,1.69,0.81
					c-1.1,0.35-2.21,0.77-3.3,1.28c-2.36,1.11-4.44,2.5-6.18,4.12c-1,0.94-2.03,1.99-2.84,3.31c-0.08,0.1-0.16,0.21-0.24,0.33
					c-1.46,2.21-2.36,4.68-2.68,7.34c-0.11,0.94-0.15,1.87-0.12,2.79c-1.47-1.98-3.31-3.72-5.49-5.18c-0.1-0.07-0.21-0.15-0.32-0.22
					c-0.32-0.22-0.68-0.47-1.1-0.72c-1.36-0.8-2.75-1.47-4.06-2.09c-0.61-0.29-1.26-0.63-1.89-0.96c-0.27-0.14-0.54-0.29-0.81-0.43
					c-0.13-0.08-0.25-0.15-0.38-0.22c-0.26-0.15-0.51-0.3-0.69-0.43l-0.52-0.36l-0.04-0.03c-0.98-0.68-1.82-1.27-2.52-1.92
					l-0.05-0.05l-0.05-0.04l-0.05-0.05l-0.05-0.04l-0.05-0.04c-0.65-0.51-1.28-1.15-1.81-1.71c-1.11-1.16-2.14-2.4-3.08-3.71
					c-1.09-1.52-2.67-2.35-4.45-2.35c-0.16,0-0.32,0.01-0.47,0.02c-2.02,0.19-3.6,1.31-4.49,3.16c-0.39,0.8-0.82,1.59-1.28,2.35
					c-2.25,3.73-5.17,6.85-8.65,9.26c-1.74,1.2-3.57,2.51-5.22,4.16c-1.85,1.85-3.34,3.86-4.44,5.97c-0.63,1.22-1.25,2.56-1.56,4.08
					c-0.04,0.12-0.08,0.25-0.12,0.39c-0.63,2.58-0.65,5.21-0.06,7.82c0.81,3.59,2.62,6.67,5.37,9.16c0.29,0.33,0.63,0.61,1.01,0.85
					c0.4,0.29,0.73,0.54,1.03,0.8l0.02,0.02l0.03,0.03c0.07,0.06,0.25,0.22,0.51,0.39c3.08,2.06,6.69,3.48,10.74,4.21
					c2.48,0.45,5.05,0.68,7.62,0.68c1.26,0,2.54-0.05,3.81-0.16c2.47-0.21,4.99-0.62,7.49-1.23c4.56-1.11,8.56-2.96,11.89-5.51
					c3.93-3,6.53-6.85,7.53-11.12c0.34-1.46,0.47-2.93,0.42-4.4c0.03,0.04,0.05,0.08,0.08,0.12c2.21,2.98,5.13,5.53,8.7,7.59
					c3.26,1.88,6.82,3.34,10.59,4.35c2.39,0.64,4.9,1.1,7.46,1.37c1.29,0.14,2.58,0.21,3.83,0.21c3.25,0,6.35-0.46,9.22-1.38
					c4.71-1.5,8.45-4.24,10.82-7.93c2.43-3.78,3.24-8.25,2.33-12.91c-0.61-3.13-1.94-6.11-3.97-8.86c-0.07-0.1-0.15-0.21-0.23-0.32
					c-0.22-0.32-0.48-0.67-0.79-1.05c-1.01-1.22-2.09-2.31-3.12-3.33c-0.48-0.48-0.98-1.02-1.46-1.54
					c-0.21-0.23-0.42-0.45-0.62-0.68c-0.09-0.11-0.19-0.22-0.28-0.34c-0.2-0.24-0.38-0.46-0.51-0.64l-0.38-0.53
					c-0.71-1-1.31-1.84-1.75-2.69l-0.03-0.06l-0.03-0.06l-0.03-0.06l-0.03-0.06l-0.04-0.06c-0.44-0.7-0.82-1.52-1.14-2.22
					c-0.66-1.46-1.21-2.99-1.65-4.53c-0.56-1.95-1.97-3.36-3.86-3.86c-0.5-0.13-0.97-0.19-1.43-0.19h0c-1.19,0-2.31,0.42-3.29,1.18
					c0.01-0.14,0.02-0.27,0.02-0.41c0-1.52-0.29-2.88-0.87-4.04c-0.56-1.13-1.35-2.11-2.34-2.91c-0.22-0.18-0.46-0.35-0.7-0.52
					c-0.01-0.02-0.02-0.04-0.04-0.05l1.87-2c0.29-0.31,0.51-0.61,0.69-0.91c0.34-0.59,0.52-1.24,0.52-1.91
					c0-0.81-0.27-1.58-0.82-2.3c-0.26-0.34-0.58-0.69-0.98-1.03c-0.32-0.27-0.67-0.55-1.05-0.82c-0.03-0.02-0.06-0.04-0.08-0.06
					c-0.07-0.14-0.17-0.27-0.26-0.41c0.12-0.03,0.24-0.05,0.36-0.09c1.68-0.47,3.19-1.25,4.49-2.33c1.33-1.11,2.38-2.56,3.14-4.32
					c0.08-0.18,0.15-0.36,0.22-0.55v1.14c0,1.09,0.53,2,1.25,2.82c0.36,0.41,0.61,0.74,0.99,1.13c0.47,0.47,0.98,0.9,1.49,1.36
					c0.71,0.64,1.62,1,2.55,1h4.88c1.1,0,2.1-0.44,2.82-1.25c0.64-0.71,0.99-1.63,0.99-2.57V14.82h2.71c1.19,0,2.29-0.54,3-1.47
					c0.54-0.72,0.83-1.55,0.83-2.41V6.8V6.66l-0.01-0.14c-0.1-1.07-0.67-1.93-1.41-2.65c-0.34-0.33-0.75-0.74-1.08-1.07
					c-0.54-0.54-0.81-0.95-1.41-1.42c-0.69-0.55-1.52-0.83-2.4-0.83h-17.9c-0.48,0-0.94,0.08-1.37,0.24
					c-0.43-0.16-0.9-0.24-1.38-0.24h-4.86c-1.06,0-2.03,0.41-2.74,1.16c-0.67,0.7-1.05,1.63-1.05,2.61v0.89
					c-0.25-0.52-0.69-0.9-1.1-1.34c-0.31-0.33-0.61-0.63-0.88-0.92c-0.53-0.55-0.97-1.1-1.6-1.58c-0.89-0.68-1.77-0.83-2.35-0.83
					h-4.98c-1.07,0-2.08,0.47-2.78,1.3c-0.59,0.69-0.91,1.55-0.91,2.47v14.07c0,0.36,0.03,0.69,0.04,1.04h-2.85V6.78V6.7l0-0.08
					c-0.06-1.05-0.65-1.87-1.31-2.68c-0.28-0.34-0.65-0.74-1.01-1.11c-0.5-0.5-0.93-0.92-1.48-1.39c-0.7-0.61-1.56-0.93-2.48-0.93
					h-4.92c-1.08,0-2.06,0.42-2.77,1.19c-0.65,0.7-1,1.62-1,2.58v4.19L43.2,6.4l-0.02-0.06l-0.03-0.06l-0.42-0.95L42.59,5
					l-0.21-0.28c-0.2-0.26-0.48-0.46-0.72-0.76C41.37,3.59,41.31,3.43,41,3.07c-0.3-0.35-0.35-0.42-0.4-0.52
					c-0.17-0.31-0.23-0.37-0.27-0.45c-0.04-0.08-0.15-0.31-0.21-0.39c-0.2-0.26-0.27-0.54-0.56-0.8c-0.68-0.59-1.94-0.38-2.86-0.38
					h-4.26c-0.46,0-0.93,0.09-1.37,0.26c-0.36,0.14-0.7,0.33-1.01,0.56c-0.3,0.22-0.56,0.48-0.78,0.76
					c-0.28,0.36-0.48,0.74-0.61,1.14l-1.73,4.49c-0.11-0.2-0.24-0.4-0.38-0.6c-0.28-0.37-0.62-0.73-1.04-1.1"/>
			</g>
		</g>
		<g>
			<linearGradient id="SVGID_2_" gradientUnits="userSpaceOnUse" x1="65.7147" y1="46.8072" x2="59.535" y2="22.6863">
				<stop  offset="0" style="stop-color:#6B13D4"/>
				<stop  offset="1" style="stop-color:#340094"/>
			</linearGradient>
			<path class="st5" d="M61.79,18.37c0,0.36,0.03,0.69,0.04,1.04h-2.85v-3.84L4.56,29.2l0.06,0.06l0,0l0.03,0.03l0.01,0
				c0.14,0.15,0.31,0.32,0.5,0.51c0.42,0.43,0.93,0.86,1.5,1.29c1.29,0.93,2.69,1.68,4.17,2.23c1.56,0.58,3.18,0.87,4.81,0.87
				c1.66,0,3.26-0.24,4.73-0.72c0.8-0.26,1.56-0.59,2.26-0.97c0.16,0.2,0.34,0.38,0.55,0.55c0.67,0.54,1.5,0.83,2.41,0.83h1.42
				v13.67l55.95-13.1c-0.12-0.09-0.22-0.18-0.35-0.27c-0.03-0.02-0.06-0.04-0.08-0.06c-0.07-0.14-0.17-0.27-0.26-0.41
				c0.12-0.03,0.24-0.05,0.36-0.09c1.68-0.47,3.19-1.25,4.49-2.33c1.33-1.11,2.38-2.56,3.14-4.32c0.08-0.18,0.15-0.36,0.22-0.55
				v1.14c0,1.09,0.53,2,1.25,2.82c0.36,0.41,0.61,0.74,0.99,1.13c0.18,0.18,0.37,0.36,0.57,0.53l12.17-2.85V14.82h2.71
				c1.19,0,2.29-0.54,3-1.47c0.54-0.72,0.83-1.55,0.83-2.41V6.8V6.66l-0.01-0.14c-0.1-1.07-0.67-1.93-1.41-2.65
				c-0.3-0.3-0.66-0.65-0.97-0.97L61.79,14.87V18.37z"/>
		</g>
		<g>
			<path class="st1" d="M37.11,18.99h-1.76c0.14-0.43,0.28-0.87,0.42-1.31c0.15-0.46,0.29-0.92,0.44-1.37L37.11,18.99z"/>
		</g>
		
			<radialGradient id="SVGID_3_" cx="72.6124" cy="71.4586" r="24.0851" gradientTransform="matrix(0.9635 0.2562 -0.2553 0.9666 25.2635 -18.5952)" gradientUnits="userSpaceOnUse">
			<stop  offset="0" style="stop-color:#00BF0C"/>
			<stop  offset="1" style="stop-color:#007F1D"/>
		</radialGradient>
		<path class="st8" d="M107.19,81.72c-0.51-2.63-1.63-5.07-3.29-7.31c-0.29-0.4-0.56-0.81-0.88-1.19c-0.89-1.07-1.88-2.07-2.88-3.07
			c-0.78-0.78-1.51-1.61-2.27-2.42c-0.34-0.42-0.71-0.83-1.02-1.27c-0.85-1.2-1.75-2.39-2.41-3.69c-0.54-0.86-0.97-1.77-1.38-2.68
			c-0.74-1.65-1.35-3.33-1.84-5.04c-0.17-0.59-0.51-1.05-1.19-1.23c-0.67-0.17-1.19,0.06-1.63,0.49c-0.72,0.71-1.47,1.38-2.26,2.02
			c-3.69,3.01-7.88,5.24-12.68,6.53c-1.94,0.52-3.87,1.07-5.67,1.92c-1.93,0.91-3.69,2.05-5.2,3.46c-0.89,0.83-1.75,1.7-2.33,2.76h0
			c-0.06,0.06-0.12,0.12-0.17,0.19c-1.15,1.74-1.83,3.64-2.07,5.69c-0.35,2.93,0.19,5.74,1.7,8.44c0.02,0.15,0.11,0.26,0.21,0.37
			c0.34,0.49,0.67,0.99,0.96,1.5c0.05,0.08,0.08,0.16,0.14,0.23c1.99,2.69,4.56,4.84,7.54,6.55c5.12,2.95,10.68,4.6,16.55,5.22
			c3.94,0.42,7.8,0.16,11.49-1.01C104.47,95.69,108.65,89.21,107.19,81.72z"/>
		<path class="st3" d="M78.05,98.7c-3.52-0.94-6.82-2.29-9.86-4.04c-3.21-1.85-5.82-4.13-7.78-6.77c-0.07-0.09-0.11-0.17-0.15-0.24
			c-0.01-0.02-0.02-0.04-0.03-0.05l-0.01-0.01c-0.26-0.46-0.55-0.9-0.9-1.41c-0.12-0.13-0.25-0.32-0.32-0.57
			c-1.53-2.76-2.12-5.73-1.74-8.82c0.26-2.18,1-4.21,2.2-6.03c0.06-0.1,0.13-0.17,0.18-0.22c0.65-1.16,1.59-2.09,2.43-2.87
			c1.51-1.41,3.32-2.62,5.4-3.6c1.88-0.89,3.9-1.46,5.8-1.97c4.51-1.2,8.68-3.35,12.38-6.38c0.76-0.62,1.5-1.29,2.2-1.97
			c0.7-0.69,1.5-0.92,2.37-0.7c0.01,0,0.01,0,0.02,0.01c0.61,0.16,1.39,0.6,1.73,1.77c0.48,1.68,1.09,3.34,1.8,4.94
			c0.36,0.8,0.79,1.73,1.33,2.59l0.03,0.06c0.54,1.05,1.23,2.02,1.96,3.05c0.13,0.18,0.26,0.37,0.39,0.55
			c0.2,0.28,0.42,0.54,0.66,0.83c0.11,0.13,0.21,0.26,0.32,0.39c0.23,0.24,0.45,0.49,0.68,0.73c0.5,0.55,1.02,1.11,1.55,1.64
			c0.97,0.97,2,2.01,2.93,3.12c0.24,0.29,0.45,0.58,0.65,0.86c0.09,0.12,0.17,0.25,0.26,0.37c1.76,2.38,2.91,4.94,3.43,7.63l0,0
			c0.75,3.88,0.09,7.57-1.91,10.69c-1.98,3.09-5.16,5.4-9.19,6.68c-3.59,1.14-7.56,1.49-11.81,1.05
			C82.63,99.73,80.29,99.3,78.05,98.7z M61.58,86.79c0.02,0.03,0.03,0.06,0.05,0.09c0.01,0.02,0.03,0.06,0.04,0.07
			c1.83,2.47,4.28,4.6,7.3,6.34c4.8,2.77,10.26,4.49,16.24,5.12c4.09,0.43,7.75,0.11,11.17-0.98c7.46-2.38,11.4-8.48,10.03-15.56
			l0,0c-0.47-2.45-1.54-4.8-3.15-6.99c-0.1-0.13-0.19-0.26-0.28-0.39c-0.19-0.27-0.37-0.53-0.57-0.77
			c-0.88-1.06-1.88-2.07-2.83-3.01c-0.56-0.55-1.09-1.13-1.6-1.69c-0.23-0.25-0.46-0.5-0.68-0.74l-0.04-0.04
			c-0.1-0.13-0.21-0.26-0.32-0.39c-0.25-0.29-0.5-0.6-0.73-0.93c-0.13-0.18-0.26-0.36-0.39-0.54c-0.73-1.02-1.48-2.07-2.07-3.22
			c-0.58-0.93-1.04-1.91-1.42-2.75c-0.74-1.66-1.38-3.39-1.88-5.15c-0.13-0.46-0.35-0.61-0.63-0.68c-0.28-0.07-0.53-0.05-0.88,0.29
			c-0.73,0.72-1.51,1.42-2.31,2.07c-3.88,3.17-8.25,5.41-12.97,6.68c-1.83,0.49-3.77,1.04-5.54,1.87c-1.93,0.91-3.61,2.03-5,3.33
			c-0.8,0.75-1.63,1.57-2.17,2.56l-0.04,0.08l-0.06,0.07c-0.02,0.03-0.05,0.06-0.08,0.08c-0.01,0.01-0.02,0.02-0.03,0.03
			c-1.06,1.61-1.71,3.4-1.94,5.34c-0.33,2.78,0.21,5.46,1.61,7.95l0.07,0.13l0.01,0.08c0.01,0.01,0.01,0.01,0.02,0.02l0.04,0.04
			l0.03,0.04C60.97,85.8,61.29,86.28,61.58,86.79z M60.48,85.11L60.48,85.11L60.48,85.11z"/>
		<path class="st4" d="M89.04,83.98c-3.17-1.23-4.88-6.05-1.72-9c2.7-2.13,6.26-0.88,7.69,1.84c0.07,0.13,0.15,0.26,0.22,0.39
			c0.42,1.17,0.6,2.35,0.27,3.58c-0.7,2.64-3.18,4.09-5.82,3.37C89.47,84.11,89.26,84.05,89.04,83.98z"/>
		<path class="st3" d="M89.61,84.56c-0.01,0-0.02,0-0.03-0.01c-0.15-0.04-0.3-0.08-0.44-0.13l-0.24-0.07
			c-1.77-0.69-3.16-2.44-3.54-4.46c-0.37-1.95,0.25-3.84,1.7-5.2l0.02-0.02c1.27-1,2.82-1.38,4.36-1.05
			c1.65,0.35,3.12,1.48,3.92,3.01c0.04,0.08,0.09,0.17,0.14,0.25c0.02,0.04,0.05,0.08,0.07,0.13l0.02,0.03l0.01,0.03
			c0.51,1.42,0.6,2.63,0.28,3.82c-0.37,1.38-1.21,2.52-2.38,3.19C92.36,84.75,90.98,84.92,89.61,84.56z M89.17,83.61l0.19,0.06
			c0.14,0.04,0.29,0.08,0.43,0.12c0.01,0,0.02,0,0.02,0.01c1.16,0.31,2.33,0.17,3.3-0.39c0.98-0.57,1.7-1.53,2.01-2.71
			c0.27-1.02,0.19-2.07-0.25-3.32c-0.02-0.03-0.03-0.06-0.05-0.09c-0.05-0.09-0.11-0.19-0.16-0.28c-0.7-1.33-1.97-2.31-3.39-2.61
			c-1.3-0.28-2.62,0.04-3.7,0.89c-1.26,1.18-1.77,2.76-1.45,4.46C86.46,81.5,87.66,83.01,89.17,83.61z"/>
		<path class="st6" d="M81.91,86.97c-0.42-0.01-0.82-0.12-1.19-0.32C81.12,86.76,81.52,86.87,81.91,86.97z"/>
		<path class="st4" d="M82.18,75.72c-0.32,1.82-1.22,3.25-2.88,4.12c-2.2,1.15-4.28,0.89-6.2-0.68c-1.89-2.05-1.75-5.12,0.3-7.11
			c1.69-1.64,4.8-2.43,7.35-0.3C81.88,72.84,82.23,74.2,82.18,75.72z"/>
		<path class="st3" d="M75.31,80.77c-0.84-0.22-1.65-0.66-2.45-1.31l-0.04-0.04c-2.04-2.22-1.9-5.51,0.32-7.66
			c1.9-1.84,5.21-2.54,7.87-0.32l0.02,0.02c1.11,1.07,1.61,2.46,1.54,4.27l-0.01,0.05c-0.36,2.04-1.39,3.52-3.08,4.4
			C78.05,80.94,76.66,81.13,75.31,80.77z M73.38,78.87c1.83,1.48,3.71,1.68,5.74,0.61c1.45-0.76,2.35-2.04,2.67-3.81
			c0.05-1.57-0.36-2.72-1.29-3.63c-2.3-1.91-5.17-1.31-6.81,0.29C71.78,74.17,71.65,76.98,73.38,78.87z"/>
		<path class="st3" d="M91.26,78.96c-0.3,1.12-1.36,1.73-2.47,1.44c-1.24-0.33-2.01-1.66-1.68-2.89c0.3-1.1,1.39-1.73,2.49-1.44
			C90.82,76.38,91.59,77.72,91.26,78.96z"/>
		<path class="st3" d="M77.66,74.98c-0.32,1.25-1.63,2.01-2.87,1.68c-1.11-0.3-1.74-1.37-1.45-2.48c0.32-1.23,1.66-2.02,2.89-1.69
			C77.32,72.79,77.94,73.87,77.66,74.98z"/>
		<g>
			<path class="st3" d="M96.86,86.81c-0.6-1-1.84-1.42-2.93-0.95c-0.71,0.3-1.4,0.62-2.14,0.85c-3.26,1.01-6.55,1.16-9.87,0.3
				c-0.87-0.2-0.72-0.13-2.38-0.66c-1.65-0.53-5.82-3.01-7.94-5.63c-0.47-0.58-0.83-1.24-1.47-1.66c-0.99-0.43-1.93-0.38-2.74,0.37
				c-0.77,0.71-0.93,1.61-0.61,2.59c0.13,0.24,0.26,0.49,0.4,0.73c0.61,0.73,1.19,1.5,1.84,2.18c3.7,3.9,8.27,6.17,13.54,7.04
				c4.44,0.73,8.75,0.24,12.88-1.6c0.34-0.15,0.7-0.26,0.95-0.58c0,0,0,0,0,0c0,0,0,0,0,0C97.27,89.01,97.47,87.82,96.86,86.81z"/>
			<path class="st7" d="M91.96,91.17c0.32-1.22-0.53-2.63-2.18-3.95c-2.6,0.52-5.22,0.47-7.86-0.21c-0.87-0.2-0.72-0.13-2.38-0.66
				c-1.17-0.38-3.59-1.72-5.66-3.4c-2.15,0.31-3.63,1.12-3.96,2.36c-0.04,0.16-0.06,0.32-0.07,0.48c3.54,3.39,7.81,5.39,12.69,6.19
				c3.15,0.52,6.22,0.42,9.22-0.34C91.85,91.5,91.92,91.34,91.96,91.17z"/>
			<path class="st3" d="M73.69,83.67c2.1,1.66,4.45,2.95,5.64,3.33c0.8,0.26,1.19,0.38,1.49,0.46c0.19,0.05,0.34,0.08,0.53,0.12
				c0.11,0.02,0.24,0.05,0.4,0.09c2.57,0.66,5.2,0.75,7.84,0.28c1.31,1.11,1.94,2.21,1.72,3.05c-0.01,0.02-0.01,0.05-0.02,0.07
				c-2.77,0.65-5.67,0.73-8.63,0.25c-0.85-0.14-1.7-0.32-2.5-0.53c-3.66-0.97-6.88-2.74-9.59-5.25c0-0.02,0.01-0.03,0.01-0.05
				C70.81,84.63,71.93,83.97,73.69,83.67 M73.88,82.95c-2.15,0.31-3.63,1.12-3.96,2.36c-0.04,0.16-0.06,0.32-0.07,0.48
				c2.91,2.78,6.3,4.62,10.12,5.64c0.84,0.22,1.69,0.4,2.57,0.55c3.15,0.52,6.22,0.42,9.22-0.34c0.08-0.15,0.15-0.31,0.19-0.48
				c0.32-1.22-0.53-2.63-2.18-3.95c-2.6,0.52-5.22,0.47-7.86-0.21c-0.45-0.1-0.62-0.13-0.92-0.21c-0.28-0.07-0.65-0.19-1.46-0.45
				C78.38,85.98,75.95,84.64,73.88,82.95L73.88,82.95z"/>
		</g>
		
			<ellipse transform="matrix(0.8991 -0.4378 0.4378 0.8991 -23.1002 36.7171)" class="st4" cx="68.09" cy="68.47" rx="2.77" ry="1.13"/>
		
			<ellipse transform="matrix(0.8992 -0.4376 0.4376 0.8992 -21.4802 38.4578)" class="st4" cx="72.72" cy="65.84" rx="1.81" ry="0.6"/>
		<g>
			
				<radialGradient id="SVGID_4_" cx="19.8427" cy="80.6694" r="24.0851" gradientTransform="matrix(0.9932 -0.084 0.0837 0.9965 -7.084 2.5598)" gradientUnits="userSpaceOnUse">
				<stop  offset="0" style="stop-color:#6B13D4"/>
				<stop  offset="1" style="stop-color:#340094"/>
			</radialGradient>
			<path class="st9" d="M52.07,82.98c-1.36-2.3-3.24-4.22-5.55-5.77c-0.41-0.28-0.8-0.57-1.23-0.83c-1.2-0.71-2.46-1.32-3.74-1.92
				c-1-0.47-1.96-1-2.94-1.51c-0.47-0.28-0.95-0.54-1.39-0.85c-1.21-0.85-2.45-1.66-3.51-2.66c-0.8-0.63-1.51-1.34-2.2-2.06
				c-1.25-1.3-2.39-2.68-3.42-4.13c-0.36-0.5-0.83-0.82-1.53-0.75c-0.69,0.06-1.1,0.46-1.37,1.02c-0.44,0.91-0.92,1.8-1.45,2.67
				c-2.46,4.08-5.66,7.6-9.75,10.42c-1.66,1.14-3.29,2.32-4.69,3.72c-1.51,1.51-2.79,3.17-3.74,5.02c-0.56,1.08-1.08,2.19-1.27,3.39
				h0c-0.03,0.08-0.07,0.16-0.09,0.24c-0.5,2.02-0.5,4.05-0.05,6.06c0.65,2.87,2.1,5.34,4.43,7.37c0.07,0.13,0.19,0.21,0.32,0.28
				c0.48,0.35,0.96,0.71,1.41,1.09c0.07,0.06,0.13,0.12,0.2,0.17c2.78,1.86,5.92,3.01,9.3,3.63c5.81,1.05,11.6,0.73,17.34-0.67
				c3.85-0.94,7.4-2.48,10.48-4.83C54.19,97.05,55.95,89.55,52.07,82.98z"/>
			<path class="st3" d="M30.31,108.81c-3.63,0.31-7.19,0.15-10.64-0.48c-3.64-0.66-6.87-1.92-9.6-3.75
				c-0.09-0.06-0.16-0.12-0.22-0.17c-0.02-0.01-0.03-0.03-0.05-0.04l-0.01-0.01c-0.4-0.34-0.82-0.66-1.32-1.02
				c-0.15-0.09-0.35-0.22-0.5-0.43c-2.37-2.09-3.91-4.68-4.6-7.72c-0.49-2.15-0.47-4.31,0.05-6.42c0.03-0.11,0.07-0.2,0.1-0.27
				c0.22-1.31,0.8-2.5,1.33-3.52c0.95-1.83,2.25-3.59,3.88-5.21c1.47-1.47,3.18-2.69,4.8-3.81c3.84-2.66,7.05-6.08,9.52-10.18
				c0.51-0.84,0.98-1.72,1.41-2.6c0.43-0.88,1.1-1.37,2-1.46c0.01,0,0.01,0,0.02,0c0.63-0.05,1.51,0.09,2.22,1.08
				c1.02,1.42,2.15,2.78,3.35,4.04c0.6,0.63,1.33,1.36,2.12,1.99l0.05,0.05c0.86,0.81,1.84,1.49,2.87,2.21
				c0.18,0.13,0.37,0.26,0.55,0.38c0.28,0.19,0.58,0.37,0.9,0.56c0.14,0.08,0.29,0.17,0.43,0.25c0.29,0.15,0.59,0.31,0.88,0.46
				c0.66,0.35,1.34,0.7,2.01,1.02c1.24,0.58,2.56,1.22,3.8,1.95c0.32,0.19,0.61,0.4,0.9,0.59c0.12,0.09,0.25,0.17,0.37,0.26
				c2.45,1.64,4.4,3.67,5.79,6.03l0,0c2.01,3.4,2.63,7.1,1.79,10.71c-0.83,3.58-3.05,6.83-6.42,9.4c-3,2.29-6.62,3.96-10.78,4.97
				C34.98,108.23,32.63,108.62,30.31,108.81z M10.81,103.16c0.03,0.02,0.05,0.04,0.08,0.06c0.02,0.02,0.05,0.04,0.06,0.05
				c2.55,1.71,5.58,2.89,9,3.51c5.44,0.99,11.17,0.77,17.02-0.66c4-0.97,7.33-2.51,10.19-4.7c6.23-4.76,7.89-11.84,4.23-18.04l0,0
				c-1.27-2.15-3.06-4.01-5.31-5.52c-0.13-0.09-0.26-0.18-0.4-0.27c-0.27-0.19-0.53-0.37-0.8-0.53c-1.19-0.7-2.46-1.31-3.67-1.88
				c-0.71-0.33-1.4-0.7-2.08-1.05c-0.3-0.16-0.59-0.31-0.89-0.47l-0.05-0.03c-0.14-0.09-0.29-0.17-0.43-0.26
				c-0.33-0.19-0.67-0.4-1-0.63c-0.18-0.13-0.36-0.25-0.55-0.38c-1.03-0.71-2.09-1.45-3.03-2.33c-0.86-0.68-1.62-1.45-2.26-2.11
				c-1.26-1.31-2.43-2.73-3.5-4.21c-0.28-0.39-0.53-0.45-0.82-0.43c-0.29,0.03-0.52,0.13-0.73,0.57c-0.45,0.93-0.95,1.85-1.48,2.73
				c-2.59,4.29-5.95,7.88-9.98,10.67c-1.56,1.08-3.2,2.25-4.59,3.63c-1.51,1.51-2.72,3.13-3.59,4.82c-0.5,0.98-1.01,2.03-1.19,3.15
				l-0.01,0.09l-0.03,0.08c-0.01,0.03-0.03,0.07-0.04,0.1c-0.01,0.01-0.01,0.03-0.02,0.04c-0.45,1.87-0.47,3.78-0.04,5.68
				c0.62,2.73,2.03,5.07,4.18,6.95l0.11,0.1l0.04,0.07c0.01,0,0.02,0.01,0.03,0.01L9.32,102l0.04,0.03
				C9.91,102.43,10.37,102.78,10.81,103.16z M9.22,101.94L9.22,101.94L9.22,101.94z"/>
			<path class="st4" d="M35.73,91.24c-3.4-0.09-6.62-4.05-4.63-7.89c1.83-2.92,5.6-2.94,7.86-0.86c0.11,0.1,0.22,0.19,0.34,0.29
				c0.79,0.96,1.35,2.01,1.45,3.28c0.22,2.72-1.63,4.92-4.35,5.14C36.18,91.22,35.96,91.23,35.73,91.24z"/>
			<path class="st3" d="M36.46,91.59c-0.01,0-0.02,0-0.03,0c-0.15,0.01-0.31,0.02-0.46,0.03l-0.25,0.01c-1.89-0.05-3.79-1.23-4.83-3
				c-1-1.71-1.05-3.7-0.14-5.47l0.02-0.03c0.86-1.37,2.19-2.25,3.76-2.46c1.67-0.23,3.43,0.34,4.7,1.51
				c0.07,0.06,0.14,0.13,0.22,0.19c0.04,0.03,0.07,0.06,0.11,0.09l0.03,0.02l0.02,0.03c0.95,1.16,1.44,2.28,1.54,3.5
				c0.12,1.43-0.3,2.78-1.17,3.81C39.11,90.85,37.87,91.47,36.46,91.59z M35.73,90.85l0.2-0.01c0.15-0.01,0.3-0.02,0.45-0.03
				c0.01,0,0.02,0,0.02,0c1.2-0.1,2.25-0.63,2.98-1.48c0.73-0.87,1.08-2.01,0.98-3.23c-0.09-1.05-0.51-2.02-1.34-3.04
				c-0.03-0.02-0.05-0.04-0.08-0.07c-0.08-0.07-0.16-0.14-0.24-0.21c-1.11-1.02-2.63-1.51-4.07-1.31c-1.32,0.18-2.45,0.92-3.19,2.08
				c-0.79,1.54-0.74,3.2,0.13,4.69C32.47,89.77,34.1,90.8,35.73,90.85z"/>
			<path class="st6" d="M30.02,96.47c-0.4,0.13-0.81,0.17-1.22,0.1C29.2,96.53,29.61,96.5,30.02,96.47z"/>
			<path class="st4" d="M26.5,85.77c0.31,1.82-0.06,3.48-1.33,4.85c-1.68,1.83-3.73,2.28-6.06,1.45c-2.47-1.3-3.37-4.23-2.1-6.8
				c1.05-2.12,3.7-3.91,6.82-2.76C25.25,83.16,26.04,84.33,26.5,85.77z"/>
			<path class="st3" d="M21.72,92.86c-0.86,0.07-1.78-0.06-2.75-0.4l-0.05-0.02c-2.66-1.4-3.64-4.55-2.27-7.33
				c1.17-2.37,4.06-4.15,7.31-2.96l0.03,0.01c1.4,0.63,2.34,1.77,2.88,3.5l0.01,0.05c0.35,2.04-0.13,3.78-1.43,5.19
				C24.36,92.08,23.11,92.74,21.72,92.86z M19.27,91.72c2.22,0.78,4.06,0.33,5.61-1.36c1.11-1.21,1.53-2.72,1.23-4.49
				c-0.47-1.49-1.25-2.44-2.44-2.98c-2.81-1.03-5.3,0.51-6.32,2.57C16.19,87.83,17.01,90.52,19.27,91.72z"/>
			<path class="st3" d="M39.76,85.59c0.09,1.15-0.7,2.09-1.85,2.19c-1.27,0.11-2.45-0.89-2.55-2.16c-0.09-1.14,0.72-2.1,1.86-2.2
				C38.49,83.31,39.66,84.31,39.76,85.59z"/>
			<path class="st3" d="M25.62,86.44c0.11,1.28-0.86,2.45-2.14,2.56c-1.14,0.1-2.09-0.7-2.2-1.84c-0.11-1.27,0.88-2.46,2.15-2.56
				C24.57,84.49,25.52,85.29,25.62,86.44z"/>
			<g>
				<path class="st3" d="M44.04,91.27c-0.91-0.74-2.21-0.71-3.08,0.1c-0.56,0.52-1.11,1.06-1.73,1.52c-2.73,2.06-5.78,3.3-9.2,3.62
					c-0.89,0.1-0.72,0.12-2.46,0.18c-1.73,0.06-6.49-0.87-9.37-2.62c-0.63-0.38-1.2-0.89-1.94-1.07c-1.08-0.07-1.95,0.29-2.46,1.28
					c-0.48,0.93-0.34,1.83,0.3,2.65c0.21,0.19,0.41,0.37,0.62,0.56c0.82,0.48,1.62,1.01,2.47,1.44c4.8,2.43,9.85,3.02,15.11,2.06
					c4.43-0.81,8.32-2.73,11.59-5.86c0.27-0.26,0.57-0.49,0.7-0.86c0,0,0,0,0,0c0,0,0,0,0,0C45.17,93.2,44.95,92.01,44.04,91.27z"/>
				<path class="st7" d="M40.89,97.03c-0.11-1.26-1.38-2.3-3.38-2.98c-2.28,1.37-4.76,2.21-7.47,2.46c-0.89,0.1-0.72,0.12-2.46,0.18
					c-1.23,0.04-3.96-0.41-6.47-1.29c-1.92,1.02-3.04,2.28-2.93,3.56c0.01,0.16,0.05,0.32,0.1,0.48c4.47,1.99,9.17,2.44,14.03,1.54
					c3.14-0.58,6-1.71,8.57-3.43C40.9,97.37,40.91,97.2,40.89,97.03z"/>
				<path class="st3" d="M21.17,96.13c2.54,0.86,5.18,1.28,6.43,1.23c0.84-0.03,1.25-0.05,1.56-0.07c0.2-0.02,0.35-0.04,0.54-0.06
					c0.11-0.01,0.24-0.03,0.41-0.05c2.64-0.24,5.15-1.05,7.47-2.39c1.61,0.6,2.57,1.43,2.64,2.29c0,0.02,0,0.05,0,0.07
					c-2.39,1.55-5.09,2.6-8.05,3.15c-0.85,0.16-1.71,0.27-2.54,0.34c-3.77,0.32-7.4-0.25-10.79-1.71c0-0.02,0-0.03-0.01-0.05
					C18.77,98.01,19.62,97.01,21.17,96.13 M21.11,95.39c-1.92,1.02-3.04,2.28-2.93,3.56c0.01,0.16,0.05,0.32,0.1,0.48
					c3.67,1.63,7.49,2.23,11.42,1.89c0.86-0.07,1.73-0.19,2.6-0.35c3.14-0.58,6-1.71,8.57-3.43c0.03-0.17,0.04-0.34,0.02-0.52
					c-0.11-1.26-1.38-2.3-3.38-2.98c-2.28,1.37-4.76,2.21-7.47,2.46c-0.45,0.05-0.63,0.08-0.93,0.11c-0.29,0.02-0.68,0.04-1.53,0.07
					C26.36,96.72,23.62,96.27,21.11,95.39L21.11,95.39z"/>
			</g>
			
				<ellipse transform="matrix(0.6991 -0.715 0.715 0.6991 -57.1135 33.3821)" class="st4" cx="11.1" cy="84.55" rx="2.78" ry="1.13"/>
			
				<ellipse transform="matrix(0.6993 -0.7149 0.7149 0.6993 -53.1753 34.6363)" class="st4" cx="14.58" cy="80.52" rx="1.81" ry="0.6"/>
		</g>
		<path d="M47.17,52.77c-0.12-0.11-0.26-0.16-0.42-0.17l-2.07-2.32l-6.3,2.14V36.08c-0.01-0.2-0.09-0.36-0.23-0.49l-2.49-2.5
			l-0.11,2.31h-2.35c-0.21,0-0.38,0.07-0.5,0.2c-0.12,0.13-0.18,0.29-0.18,0.47v18.33l-2.38,0.81l2.53,2.56
			c0.11,0.12,0.28,0.18,0.51,0.18H46.7c0.21-0.01,0.38-0.09,0.49-0.23c0.12-0.14,0.17-0.3,0.17-0.47v-3.99
			C47.37,53.06,47.3,52.89,47.17,52.77z"/>
		<path d="M24.7,20.34c-0.4-0.81-0.97-1.51-1.69-2.09c-0.72-0.58-1.58-1.09-2.57-1.52c-0.99-0.43-2.08-0.84-3.25-1.23
			c-0.61-0.2-1.15-0.39-1.6-0.56c-0.46-0.17-0.85-0.36-1.16-0.55c-0.31-0.19-0.54-0.41-0.7-0.63c-0.16-0.23-0.23-0.5-0.23-0.81
			c0-0.31,0.07-0.58,0.22-0.79c0.14-0.22,0.34-0.39,0.58-0.53c0.24-0.13,0.53-0.23,0.85-0.29c0.32-0.06,0.67-0.09,1.03-0.09
			c0.35,0,0.7,0.05,1.05,0.16c0.34,0.11,0.67,0.24,0.98,0.4c0.31,0.16,0.6,0.34,0.87,0.54c0.27,0.2,0.52,0.4,0.74,0.58l0.15,0.13
			c0.16,0.13,0.3,0.24,0.42,0.33c0.13,0.09,0.27,0.13,0.42,0.13c0.19,0,0.38-0.09,0.57-0.28l2.55-2.72
			c0.14-0.16,0.25-0.29,0.32-0.42c0.07-0.12,0.11-0.26,0.11-0.4c0-0.14-0.07-0.32-0.23-0.52c-0.15-0.2-0.35-0.41-0.61-0.63
			c-0.03-0.02-0.06-0.05-0.09-0.07l-2.09-2.13L21.22,7c-0.79-0.41-1.58-0.73-2.39-0.93c-0.93-0.23-1.89-0.34-2.9-0.34
			c-1.34,0-2.56,0.16-3.64,0.49C11.2,6.55,10.27,7.02,9.5,7.62c-0.77,0.6-1.36,1.32-1.78,2.17c-0.42,0.85-0.62,1.78-0.62,2.82
			c0,0.98,0.17,1.87,0.5,2.66c0.33,0.79,0.83,1.52,1.5,2.18c0.67,0.66,1.5,1.26,2.5,1.8c1,0.54,2.16,1.04,3.49,1.51
			c0.3,0.1,0.65,0.22,1.06,0.38c0.41,0.15,0.8,0.33,1.18,0.54c0.38,0.21,0.7,0.45,0.96,0.73c0.26,0.27,0.39,0.58,0.39,0.93
			c0,0.31-0.05,0.61-0.14,0.88c-0.09,0.28-0.25,0.52-0.47,0.73c-0.22,0.21-0.52,0.38-0.91,0.51c-0.38,0.13-0.86,0.19-1.42,0.19
			c-0.61,0-1.19-0.11-1.75-0.32c-0.55-0.21-1.11-0.51-1.68-0.88c-0.38-0.26-0.71-0.51-1.01-0.78c-0.29-0.26-0.54-0.47-0.72-0.63
			c-0.16-0.13-0.29-0.23-0.4-0.3c-0.11-0.07-0.22-0.1-0.32-0.1c-0.14,0-0.33,0.08-0.57,0.25l-2.88,2.75
			c-0.26,0.23-0.38,0.45-0.38,0.64c0,0.17,0.13,0.39,0.38,0.67c0.01,0.01,0.02,0.02,0.03,0.03c0.01,0.01,0.02,0.02,0.03,0.04
			c0.01,0.01,0.02,0.02,0.03,0.03c0.01,0.01,0.02,0.02,0.03,0.04l0.05,0.05c0.18,0.19,0.42,0.44,0.72,0.75
			c0.3,0.31,0.68,0.63,1.12,0.95c1.06,0.77,2.21,1.38,3.44,1.84c1.23,0.46,2.48,0.69,3.76,0.69c1.35,0,2.62-0.19,3.79-0.58
			s2.2-0.93,3.07-1.63c0.87-0.7,1.55-1.55,2.05-2.55c0.5-1,0.75-2.11,0.75-3.33C25.31,22.13,25.11,21.15,24.7,20.34z"/>
		<path d="M88.13,6.49L85.64,4l-0.3,2.27h-2.67c-0.23,0-0.42,0.07-0.56,0.22C81.98,6.63,81.91,6.8,81.91,7v14.17
			c0,0.74-0.11,1.39-0.32,1.96s-0.51,1.04-0.88,1.43c-0.37,0.38-0.81,0.67-1.3,0.87c-0.49,0.2-1.02,0.29-1.58,0.29
			c-0.53,0-1.05-0.08-1.54-0.25c-0.49-0.17-0.93-0.43-1.3-0.79s-0.67-0.83-0.9-1.4c-0.23-0.57-0.34-1.27-0.34-2.1V7
			c0-0.21-0.09-0.39-0.27-0.53l-2.49-2.5l-0.3,2.29h-2.72c-0.19,0-0.35,0.08-0.47,0.23C67.36,6.64,67.3,6.81,67.3,7v14.07
			c0,1.91,0.29,3.53,0.86,4.85s1.34,2.39,2.3,3.2c0.96,0.82,2.09,1.41,3.36,1.77c1.28,0.36,2.61,0.54,4.01,0.54
			c1.4,0,2.73-0.18,4-0.53c1.27-0.35,2.39-0.93,3.35-1.74c0.96-0.81,1.73-1.87,2.3-3.2c0.57-1.32,0.86-2.96,0.86-4.91V7
			C88.35,6.81,88.27,6.64,88.13,6.49z"/>
		<path d="M108.71,6.45l-2.49-2.5l-0.31,2.31H90.28c-0.22,0-0.41,0.07-0.56,0.2C89.57,6.6,89.49,6.78,89.49,7v1.96l-2.26,0.32
			l2.49,2.5c0.15,0.14,0.33,0.22,0.56,0.22H96V28.2l-2.24,0.13l2.49,2.5c0.17,0.15,0.34,0.23,0.53,0.23h4.88
			c0.23,0,0.42-0.08,0.56-0.24c0.14-0.16,0.22-0.34,0.22-0.54V11.99h5.74c0.26,0,0.45-0.09,0.59-0.27c0.14-0.18,0.21-0.37,0.21-0.57
			V7C108.95,6.75,108.86,6.57,108.71,6.45z"/>
		<path d="M82.75,48.22c-0.37-0.74-0.88-1.37-1.54-1.9c-0.66-0.53-1.43-0.99-2.34-1.38c-0.9-0.39-1.89-0.76-2.96-1.12
			c-0.56-0.18-1.04-0.35-1.46-0.51c-0.42-0.16-0.77-0.32-1.05-0.5c-0.28-0.18-0.49-0.37-0.64-0.58c-0.14-0.21-0.21-0.45-0.21-0.74
			c0-0.28,0.06-0.52,0.2-0.72c0.13-0.2,0.31-0.36,0.53-0.48s0.48-0.21,0.77-0.27c0.29-0.06,0.61-0.08,0.94-0.08
			c0.32,0,0.64,0.05,0.95,0.14c0.31,0.1,0.61,0.22,0.89,0.36c0.28,0.15,0.55,0.31,0.79,0.49c0.25,0.18,0.47,0.36,0.67,0.53
			l0.14,0.12c0.14,0.12,0.27,0.22,0.39,0.3c0.12,0.08,0.25,0.12,0.39,0.12c0.17,0,0.34-0.09,0.51-0.26l2.31-2.47
			c0.13-0.14,0.23-0.27,0.3-0.38c0.06-0.11,0.1-0.23,0.1-0.36c0-0.13-0.07-0.29-0.2-0.47c-0.14-0.18-0.32-0.37-0.55-0.58
			c-0.03-0.03-0.07-0.06-0.11-0.08l-1.83-1.84l-0.23,0.48c-0.69-0.35-1.4-0.64-2.11-0.81c-0.84-0.21-1.72-0.31-2.64-0.31
			c-1.22,0-2.32,0.15-3.31,0.45c-0.99,0.3-1.83,0.72-2.53,1.27c-0.7,0.55-1.24,1.2-1.62,1.97c-0.38,0.77-0.57,1.62-0.57,2.56
			c0,0.89,0.15,1.7,0.45,2.42s0.76,1.39,1.36,1.99c0.61,0.6,1.36,1.15,2.27,1.64c0.91,0.49,1.97,0.95,3.18,1.37
			c0.27,0.09,0.59,0.2,0.97,0.34c0.37,0.14,0.73,0.3,1.07,0.49c0.34,0.19,0.63,0.41,0.87,0.66c0.24,0.25,0.36,0.53,0.36,0.84
			c0,0.28-0.04,0.55-0.13,0.8c-0.09,0.25-0.23,0.48-0.43,0.67c-0.2,0.19-0.48,0.35-0.82,0.46c-0.35,0.12-0.78,0.17-1.29,0.17
			c-0.55,0-1.08-0.1-1.59-0.29c-0.5-0.19-1.01-0.46-1.53-0.8c-0.34-0.23-0.65-0.47-0.92-0.71c-0.27-0.24-0.49-0.43-0.66-0.57
			c-0.14-0.12-0.26-0.21-0.36-0.27c-0.1-0.06-0.2-0.09-0.29-0.09c-0.13,0-0.3,0.08-0.51,0.23l-2.62,2.5
			c-0.23,0.21-0.35,0.41-0.35,0.58c0,0.15,0.12,0.36,0.35,0.61c0.01,0.01,0.02,0.02,0.03,0.02c0.01,0.01,0.02,0.02,0.03,0.04
			c0.01,0.01,0.02,0.02,0.03,0.02c0.01,0,0.02,0.02,0.03,0.04l0.05,0.05c0.16,0.17,0.38,0.4,0.66,0.68
			c0.28,0.28,0.62,0.57,1.02,0.87c0.97,0.7,2.01,1.26,3.13,1.67c1.12,0.42,2.26,0.62,3.42,0.62c1.23,0,2.38-0.17,3.45-0.52
			c1.07-0.35,2-0.84,2.79-1.48c0.79-0.64,1.41-1.41,1.87-2.31c0.45-0.91,0.68-1.91,0.68-3.03C83.3,49.85,83.12,48.95,82.75,48.22z"
			/>
		<path d="M65.62,25.34l-2.49-2.5l-0.18,2.3h-7V6.98c-0.01-0.22-0.09-0.4-0.25-0.53l-2.49-2.5l-0.76,2.29h-2.2
			c-0.23,0-0.42,0.07-0.55,0.22c-0.13,0.14-0.2,0.32-0.2,0.52v21.06l-2.39,0.22l2.57,2.62l0-0.01c0.12,0.12,0.3,0.18,0.54,0.18H65.1
			c0.23-0.01,0.41-0.09,0.54-0.25c0.13-0.16,0.19-0.33,0.19-0.52V25.9C65.84,25.66,65.76,25.48,65.62,25.34z"/>
		<path d="M49.12,30.3L40.38,7.7l-0.42-0.95c-0.07-0.09-0.17-0.19-0.3-0.31l-2.49-2.5l0.42,2.32h-2.67c-0.09,0-0.18,0.02-0.28,0.06
			c-0.1,0.04-0.19,0.09-0.28,0.16c-0.09,0.07-0.16,0.14-0.22,0.22c-0.06,0.08-0.1,0.15-0.11,0.22l-7.51,19.51l-3.94,1.84l0.01,0.12
			l2.49,2.5c0.14,0.11,0.31,0.17,0.52,0.17h4.91c0.42,0,0.7-0.21,0.85-0.62c0.21-0.57,0.42-1.13,0.64-1.69
			c0.22-0.56,0.43-1.13,0.64-1.69h7.74l0.21,1.37l2.49,2.5c0.14,0.09,0.34,0.14,0.59,0.14h4.77c0.3,0,0.51-0.07,0.63-0.21
			C49.19,30.71,49.21,30.52,49.12,30.3z M35.13,19.86c0.22-0.65,0.43-1.31,0.64-1.98c0.21-0.67,0.42-1.33,0.64-1.99
			c0.22-0.66,0.43-1.27,0.64-1.84l2.55,7.63h-5.11C34.7,21.12,34.92,20.51,35.13,19.86z"/>
		<path d="M65.31,52.94l0.01,0l-2.54-2.53l-0.39,2.34h-7.76v-3.88h7.58c0.21,0,0.37-0.07,0.48-0.2c0.11-0.13,0.17-0.27,0.17-0.41
			v-3.28c0-0.21-0.06-0.36-0.19-0.45l-2.49-2.5l-0.16,2.36h-5.39v-3.76h9.8c0.23,0,0.41-0.08,0.53-0.23
			c0.12-0.16,0.18-0.32,0.18-0.49v-3.75c0-0.22-0.06-0.4-0.18-0.53l-2.49-2.5l-0.15,2.3H49.44c-0.21,0-0.38,0.06-0.49,0.19
			s-0.17,0.3-0.17,0.51v21.18c0,0.22,0.06,0.39,0.18,0.49c0.12,0.11,0.28,0.16,0.48,0.16h15.29c0.37,0,0.58-0.14,0.62-0.42
			c0.08-0.08,0.12-0.17,0.12-0.27v-3.81C65.47,53.22,65.41,53.06,65.31,52.94z"/>
		<g>
			<path class="st16" d="M22.22,17.84c-0.4-0.81-0.97-1.51-1.69-2.09c-0.72-0.58-1.58-1.09-2.57-1.52
				c-0.99-0.43-2.08-0.84-3.25-1.23c-0.61-0.2-1.15-0.39-1.6-0.56c-0.46-0.17-0.85-0.36-1.16-0.55c-0.31-0.19-0.54-0.41-0.7-0.63
				s-0.23-0.5-0.23-0.81c0-0.31,0.07-0.58,0.22-0.79c0.14-0.22,0.34-0.39,0.58-0.53C12.05,9,12.33,8.9,12.66,8.84
				c0.32-0.06,0.67-0.09,1.03-0.09c0.35,0,0.7,0.05,1.05,0.16c0.34,0.11,0.67,0.24,0.98,0.4c0.31,0.16,0.6,0.34,0.87,0.54
				c0.27,0.2,0.52,0.4,0.74,0.58l0.15,0.13c0.16,0.13,0.3,0.24,0.42,0.33c0.13,0.09,0.27,0.13,0.42,0.13c0.19,0,0.38-0.09,0.57-0.28
				l2.55-2.72c0.14-0.16,0.25-0.29,0.32-0.42c0.07-0.12,0.11-0.26,0.11-0.4c0-0.14-0.07-0.32-0.23-0.52
				c-0.15-0.2-0.35-0.41-0.61-0.63c-0.26-0.22-0.55-0.45-0.89-0.69c-0.34-0.24-0.7-0.47-1.07-0.69c-0.9-0.5-1.81-0.87-2.74-1.09
				c-0.93-0.23-1.89-0.34-2.9-0.34c-1.34,0-2.56,0.16-3.64,0.49C8.71,4.06,7.78,4.52,7.01,5.12c-0.77,0.6-1.36,1.32-1.78,2.17
				c-0.42,0.85-0.62,1.78-0.62,2.82c0,0.98,0.17,1.87,0.5,2.66c0.33,0.79,0.83,1.52,1.5,2.18c0.67,0.66,1.5,1.26,2.5,1.8
				c1,0.54,2.16,1.04,3.49,1.51c0.3,0.1,0.65,0.22,1.06,0.38c0.41,0.15,0.8,0.33,1.18,0.54c0.38,0.21,0.7,0.45,0.96,0.73
				c0.26,0.27,0.39,0.58,0.39,0.93c0,0.31-0.05,0.61-0.14,0.88c-0.09,0.28-0.25,0.52-0.47,0.73c-0.22,0.21-0.52,0.38-0.91,0.51
				c-0.38,0.13-0.86,0.19-1.42,0.19c-0.61,0-1.19-0.11-1.75-0.32c-0.55-0.21-1.11-0.51-1.68-0.88c-0.38-0.26-0.71-0.51-1.01-0.78
				c-0.29-0.26-0.54-0.47-0.72-0.63c-0.16-0.13-0.29-0.23-0.4-0.3c-0.11-0.07-0.22-0.1-0.32-0.1c-0.14,0-0.33,0.08-0.57,0.25
				l-2.88,2.75c-0.26,0.23-0.38,0.45-0.38,0.64c0,0.17,0.13,0.39,0.38,0.67c0.01,0.01,0.02,0.02,0.03,0.03
				c0.01,0.01,0.02,0.02,0.03,0.04c0.01,0.01,0.02,0.02,0.03,0.03c0.01,0.01,0.02,0.02,0.03,0.04l0.05,0.05
				c0.18,0.19,0.42,0.44,0.72,0.75c0.3,0.31,0.68,0.63,1.12,0.95c1.06,0.77,2.21,1.38,3.44,1.84c1.23,0.46,2.48,0.69,3.76,0.69
				c1.35,0,2.62-0.19,3.79-0.58s2.2-0.93,3.07-1.63c0.87-0.7,1.55-1.55,2.05-2.55c0.5-1,0.75-2.11,0.75-3.33
				C22.82,19.64,22.62,18.65,22.22,17.84z"/>
			<path class="st16" d="M63.35,23.4c0-0.23-0.07-0.42-0.22-0.55c-0.14-0.13-0.32-0.2-0.52-0.2h-9.15V4.49
				c-0.01-0.22-0.09-0.4-0.25-0.53c-0.16-0.13-0.33-0.2-0.52-0.2h-4.92c-0.23,0-0.42,0.07-0.55,0.22c-0.13,0.14-0.2,0.32-0.2,0.52
				v23.33c0,0.49,0.24,0.73,0.73,0.73h14.86c0.23-0.01,0.41-0.09,0.54-0.25c0.13-0.16,0.19-0.33,0.19-0.52V23.4z"/>
			<path class="st16" d="M85.04,3.77h-4.86c-0.23,0-0.42,0.07-0.56,0.22c-0.14,0.14-0.21,0.32-0.21,0.52v14.17
				c0,0.74-0.11,1.39-0.32,1.96c-0.22,0.57-0.51,1.04-0.88,1.43c-0.37,0.38-0.81,0.67-1.3,0.87c-0.49,0.2-1.02,0.29-1.58,0.29
				c-0.53,0-1.05-0.08-1.54-0.25c-0.49-0.17-0.93-0.43-1.3-0.79s-0.67-0.83-0.9-1.4c-0.23-0.57-0.34-1.27-0.34-2.1V4.51
				c0-0.21-0.09-0.39-0.27-0.53c-0.18-0.14-0.36-0.21-0.52-0.21h-4.98C65.29,3.77,65.13,3.85,65,4c-0.13,0.15-0.19,0.32-0.19,0.51
				v14.07c0,1.91,0.29,3.53,0.86,4.85c0.57,1.32,1.34,2.39,2.3,3.2c0.96,0.82,2.09,1.41,3.36,1.77c1.28,0.36,2.61,0.54,4.01,0.54
				c1.4,0,2.73-0.18,4-0.53c1.27-0.35,2.39-0.93,3.35-1.74c0.96-0.81,1.73-1.87,2.3-3.2c0.57-1.32,0.86-2.96,0.86-4.91V4.51
				c0-0.19-0.07-0.36-0.22-0.51C85.5,3.85,85.3,3.77,85.04,3.77z"/>
			<path class="st16" d="M106.22,3.95c-0.16-0.12-0.33-0.18-0.53-0.18h-17.9c-0.22,0-0.41,0.07-0.56,0.2
				c-0.15,0.13-0.22,0.31-0.22,0.53v4.14c0,0.28,0.07,0.49,0.22,0.63c0.15,0.14,0.33,0.22,0.56,0.22h5.72v18.28
				c0,0.22,0.08,0.41,0.25,0.56c0.17,0.15,0.34,0.23,0.53,0.23h4.88c0.23,0,0.42-0.08,0.56-0.24c0.14-0.16,0.22-0.34,0.22-0.54V9.5
				h5.74c0.26,0,0.45-0.09,0.59-0.27c0.14-0.18,0.21-0.37,0.21-0.57V4.5C106.47,4.26,106.38,4.08,106.22,3.95z"/>
			<path class="st16" d="M44.21,50.09h-8.32V33.58c-0.01-0.2-0.09-0.36-0.23-0.49c-0.14-0.12-0.3-0.18-0.47-0.18h-4.48
				c-0.21,0-0.38,0.07-0.5,0.2c-0.12,0.13-0.18,0.29-0.18,0.47v21.21c0,0.45,0.22,0.67,0.67,0.67h13.51
				c0.21-0.01,0.38-0.09,0.49-0.23c0.12-0.14,0.17-0.3,0.17-0.47v-3.99c0-0.21-0.07-0.38-0.2-0.5
				C44.55,50.15,44.39,50.09,44.21,50.09z"/>
			<path class="st16" d="M62.3,50.26H52.14v-3.88h7.58c0.21,0,0.37-0.07,0.48-0.2c0.11-0.13,0.17-0.27,0.17-0.41v-3.28
				c0-0.21-0.06-0.36-0.19-0.45c-0.13-0.09-0.28-0.14-0.48-0.14h-7.56v-3.76h9.8c0.23,0,0.41-0.08,0.53-0.23
				c0.12-0.16,0.18-0.32,0.18-0.49v-3.75c0-0.22-0.06-0.4-0.18-0.53c-0.12-0.13-0.29-0.2-0.51-0.2H46.95
				c-0.21,0-0.38,0.06-0.49,0.19s-0.17,0.3-0.17,0.51v21.18c0,0.22,0.06,0.39,0.18,0.49c0.12,0.11,0.28,0.16,0.48,0.16h13.4
				c0.01,0,0.01,0,0.02,0h2.17c0.25,0,0.45-0.2,0.45-0.45v-0.24c0,0,0-0.01,0-0.01v-3.81C62.98,50.49,62.75,50.26,62.3,50.26z"/>
			<path class="st16" d="M78.73,43.82c-0.66-0.53-1.43-0.99-2.34-1.38c-0.9-0.39-1.89-0.76-2.96-1.12
				c-0.56-0.18-1.04-0.35-1.46-0.51c-0.42-0.16-0.77-0.32-1.05-0.5c-0.28-0.18-0.49-0.37-0.64-0.58c-0.14-0.21-0.21-0.45-0.21-0.74
				c0-0.28,0.06-0.52,0.2-0.72c0.13-0.2,0.31-0.36,0.53-0.48s0.48-0.21,0.77-0.27c0.29-0.06,0.61-0.08,0.94-0.08
				c0.32,0,0.64,0.05,0.95,0.14c0.31,0.1,0.61,0.22,0.89,0.36c0.28,0.15,0.55,0.31,0.79,0.49c0.25,0.18,0.47,0.36,0.67,0.53
				l0.14,0.12c0.14,0.12,0.27,0.22,0.39,0.3c0.12,0.08,0.25,0.12,0.39,0.12c0.17,0,0.34-0.09,0.51-0.26l2.31-2.47
				c0.13-0.14,0.23-0.27,0.3-0.38c0.06-0.11,0.1-0.23,0.1-0.36c0-0.13-0.07-0.29-0.2-0.47c-0.14-0.18-0.32-0.37-0.55-0.58
				c-0.23-0.2-0.5-0.41-0.81-0.63c-0.31-0.22-0.63-0.43-0.98-0.63c-0.82-0.46-1.65-0.79-2.49-0.99c-0.84-0.21-1.72-0.31-2.64-0.31
				c-1.22,0-2.32,0.15-3.31,0.45c-0.99,0.3-1.83,0.72-2.53,1.27c-0.7,0.55-1.24,1.2-1.62,1.97c-0.38,0.77-0.57,1.62-0.57,2.56
				c0,0.89,0.15,1.7,0.45,2.42c0.3,0.72,0.76,1.39,1.36,1.99c0.61,0.6,1.36,1.15,2.27,1.64c0.91,0.49,1.97,0.95,3.18,1.37
				c0.27,0.09,0.59,0.21,0.97,0.34c0.37,0.14,0.73,0.3,1.07,0.49c0.34,0.19,0.63,0.41,0.87,0.66c0.24,0.25,0.36,0.53,0.36,0.84
				c0,0.28-0.04,0.55-0.13,0.8c-0.09,0.25-0.23,0.48-0.43,0.67c-0.2,0.19-0.48,0.35-0.82,0.46c-0.35,0.12-0.78,0.17-1.29,0.17
				c-0.55,0-1.08-0.1-1.59-0.29c-0.5-0.19-1.01-0.46-1.53-0.8c-0.34-0.23-0.65-0.47-0.92-0.71c-0.27-0.24-0.49-0.43-0.66-0.57
				c-0.14-0.12-0.26-0.21-0.36-0.27c-0.1-0.06-0.2-0.09-0.29-0.09c-0.13,0-0.3,0.08-0.51,0.23l-2.62,2.5
				c-0.23,0.21-0.35,0.41-0.35,0.58c0,0.15,0.12,0.36,0.35,0.61c0.01,0.01,0.02,0.02,0.03,0.02c0.01,0.01,0.02,0.02,0.03,0.04
				c0.01,0.01,0.02,0.02,0.03,0.02c0.01,0,0.02,0.02,0.03,0.04l0.05,0.05c0.16,0.17,0.38,0.4,0.66,0.68
				c0.28,0.28,0.62,0.57,1.02,0.87c0.97,0.7,2.01,1.26,3.13,1.67c1.12,0.42,2.26,0.62,3.42,0.62c1.23,0,2.38-0.17,3.45-0.52
				c1.07-0.35,2-0.84,2.79-1.48c0.79-0.64,1.41-1.41,1.87-2.31c0.45-0.91,0.68-1.91,0.68-3.03c0-1.05-0.18-1.95-0.55-2.69
				C79.89,44.98,79.38,44.35,78.73,43.82z"/>
			<path class="st16" d="M46.63,27.81l-8.73-22.6l-0.42-0.95c-0.07-0.09-0.17-0.19-0.3-0.31c-0.13-0.12-0.29-0.18-0.48-0.18h-4.26
				c-0.09,0-0.18,0.02-0.28,0.06c-0.1,0.04-0.19,0.09-0.28,0.16c-0.09,0.07-0.16,0.14-0.22,0.22c-0.06,0.08-0.1,0.15-0.11,0.22
				l-9.03,23.47c-0.09,0.22-0.06,0.39,0.07,0.5c0.14,0.11,0.31,0.17,0.52,0.17h4.91c0.42,0,0.7-0.21,0.85-0.62
				c0.21-0.57,0.42-1.13,0.64-1.69c0.22-0.56,0.43-1.13,0.64-1.69h8.83c0.21,0.57,0.42,1.13,0.63,1.69
				c0.21,0.56,0.43,1.13,0.65,1.69c0.08,0.22,0.19,0.38,0.32,0.48c0.14,0.09,0.34,0.14,0.59,0.14h4.77c0.3,0,0.51-0.07,0.63-0.21
				S46.72,28.03,46.63,27.81z M32.01,19.19c0.21-0.57,0.42-1.18,0.64-1.83c0.22-0.65,0.43-1.31,0.64-1.98
				c0.21-0.67,0.42-1.33,0.64-1.99c0.22-0.66,0.43-1.27,0.64-1.84l2.55,7.63H32.01z"/>
		</g>
		<g>
			<g>
				<path class="st17" d="M22.51,27.89c-0.09,0.22-0.06,0.39,0.07,0.5c0.14,0.11,0.31,0.17,0.52,0.17h4.91
					c0.42,0,0.7-0.21,0.85-0.62c0.21-0.57,0.42-1.13,0.64-1.69c0.22-0.56,0.43-1.13,0.64-1.69h8.83c0.21,0.57,0.42,1.13,0.63,1.69
					c0.21,0.56,0.43,1.13,0.65,1.69c0.08,0.22,0.19,0.38,0.32,0.48c0.14,0.09,0.34,0.14,0.59,0.14h4.77c0.3,0,0.51-0.07,0.63-0.21
					s0.14-0.32,0.05-0.54l-3.28-8.49c-6.96,1.72-13.59,3.36-19.39,4.79L22.51,27.89z"/>
				<path class="st17" d="M87.01,8.65c0,0.28,0.07,0.49,0.22,0.63c0.15,0.14,0.33,0.22,0.56,0.22h5.72v18.28
					c0,0.22,0.08,0.41,0.25,0.56c0.17,0.15,0.34,0.23,0.53,0.23h4.88c0.23,0,0.42-0.08,0.56-0.24c0.14-0.16,0.22-0.34,0.22-0.54V9.5
					h5.74c0.26,0,0.45-0.09,0.59-0.27c0.14-0.18,0.21-0.37,0.21-0.57V4.5c-0.02-0.24-0.11-0.43-0.27-0.55
					c-0.15-0.12-0.31-0.17-0.5-0.18c-3.87,0.97-10.55,2.64-18.72,4.68V8.65z"/>
				<path class="st17" d="M47.03,18.41v9.41c0,0.49,0.24,0.73,0.73,0.73h14.86c0.23-0.01,0.41-0.09,0.54-0.25
					c0.13-0.16,0.19-0.33,0.19-0.52V23.4c0-0.23-0.07-0.42-0.22-0.55c-0.14-0.13-0.32-0.2-0.52-0.2h-9.15v-5.84
					C51.31,17.35,49.16,17.88,47.03,18.41z"/>
				<path class="st17" d="M13.16,28.88c1.35,0,2.62-0.19,3.79-0.58s2.2-0.93,3.07-1.63c0.71-0.58,1.3-1.26,1.76-2.03
					c-5.43,1.33-9.99,2.44-13.21,3.21c0.27,0.12,0.55,0.24,0.83,0.34C10.63,28.65,11.88,28.88,13.16,28.88z"/>
				<path class="st17" d="M67.97,26.63c0.96,0.82,2.09,1.41,3.36,1.77c1.28,0.36,2.61,0.54,4.01,0.54c1.4,0,2.73-0.18,4-0.53
					c1.27-0.35,2.39-0.93,3.35-1.74c0.96-0.81,1.73-1.87,2.3-3.2c0.57-1.32,0.86-2.96,0.86-4.91V8.74
					c-2.07,0.52-4.22,1.05-6.44,1.61v8.32c0,0.74-0.11,1.39-0.32,1.96c-0.22,0.57-0.51,1.04-0.88,1.43
					c-0.37,0.38-0.81,0.67-1.3,0.87c-0.49,0.2-1.02,0.29-1.58,0.29c-0.53,0-1.05-0.08-1.54-0.25c-0.49-0.17-0.93-0.43-1.3-0.79
					s-0.67-0.83-0.9-1.4c-0.23-0.57-0.34-1.27-0.34-2.1v-6.29c-2.12,0.53-4.27,1.06-6.44,1.6v4.59c0,1.91,0.29,3.53,0.86,4.85
					C66.24,24.74,67.01,25.81,67.97,26.63z"/>
			</g>
			<g>
				<path class="st17" d="M30.71,55.46h13.51c0.21-0.01,0.38-0.09,0.49-0.23c0.12-0.14,0.17-0.3,0.17-0.47v-3.99
					c0-0.21-0.07-0.38-0.2-0.5c-0.13-0.12-0.29-0.18-0.47-0.18h-8.32v-3.7l-5.85,1.47v6.93C30.04,55.24,30.26,55.46,30.71,55.46z"/>
				<path class="st17" d="M64.71,41.11c0.3,0.72,0.76,1.39,1.36,1.99c0.61,0.6,1.36,1.15,2.27,1.64c0.91,0.49,1.97,0.95,3.18,1.37
					c0.27,0.09,0.59,0.21,0.97,0.34c0.37,0.14,0.73,0.3,1.07,0.49c0.34,0.19,0.63,0.41,0.87,0.66c0.24,0.25,0.36,0.53,0.36,0.84
					c0,0.28-0.04,0.55-0.13,0.8c-0.09,0.25-0.23,0.48-0.43,0.67c-0.2,0.19-0.48,0.35-0.82,0.46c-0.35,0.12-0.78,0.17-1.29,0.17
					c-0.55,0-1.08-0.1-1.59-0.29c-0.5-0.19-1.01-0.46-1.53-0.8c-0.34-0.23-0.65-0.47-0.92-0.71c-0.27-0.24-0.49-0.43-0.66-0.57
					c-0.14-0.12-0.26-0.21-0.36-0.27c-0.1-0.06-0.2-0.09-0.29-0.09c-0.13,0-0.3,0.08-0.51,0.23l-2.62,2.5
					c-0.23,0.21-0.35,0.41-0.35,0.58c0,0.15,0.12,0.36,0.35,0.61c0.01,0.01,0.02,0.02,0.03,0.02c0.01,0.01,0.02,0.02,0.03,0.04
					c0.01,0.01,0.02,0.02,0.03,0.02c0.01,0,0.02,0.02,0.03,0.04l0.05,0.05c0.16,0.17,0.38,0.4,0.66,0.68
					c0.28,0.28,0.62,0.57,1.02,0.87c0.97,0.7,2.01,1.26,3.13,1.67c1.12,0.42,2.26,0.62,3.42,0.62c1.23,0,2.38-0.17,3.45-0.52
					c1.07-0.35,2-0.84,2.79-1.48c0.79-0.64,1.41-1.41,1.87-2.31c0.45-0.91,0.68-1.91,0.68-3.03c0-1.05-0.18-1.95-0.55-2.69
					c-0.37-0.74-0.88-1.37-1.54-1.9c-0.66-0.53-1.43-0.99-2.34-1.38c-0.9-0.39-1.89-0.76-2.96-1.12c-0.56-0.18-1.04-0.35-1.46-0.51
					c-0.42-0.16-0.77-0.32-1.05-0.5c-0.28-0.18-0.49-0.37-0.64-0.58c-0.14-0.21-0.21-0.45-0.21-0.74c0-0.28,0.06-0.52,0.2-0.72
					c0.13-0.2,0.31-0.36,0.53-0.48s0.48-0.21,0.77-0.27c0.29-0.06,0.61-0.08,0.94-0.08c0.32,0,0.64,0.05,0.95,0.14
					c0.31,0.1,0.61,0.22,0.89,0.36c0.28,0.15,0.55,0.31,0.79,0.49c0.25,0.18,0.47,0.36,0.67,0.53l0.14,0.12
					c0.14,0.12,0.27,0.22,0.39,0.3c0.12,0.08,0.25,0.12,0.39,0.12c0.17,0,0.34-0.09,0.51-0.26l2.31-2.47
					c0.13-0.14,0.23-0.27,0.3-0.38c0.06-0.11,0.1-0.23,0.1-0.36c0-0.13-0.07-0.29-0.2-0.47c-0.04-0.05-0.09-0.1-0.13-0.16
					l-15.34,3.85C64.33,39.94,64.47,40.55,64.71,41.11z"/>
				<path class="st17" d="M46.28,54.81c0,0.22,0.06,0.39,0.18,0.49c0.12,0.11,0.28,0.16,0.48,0.16h13.4c0.01,0,0.01,0,0.02,0h2.17
					c0.25,0,0.45-0.2,0.45-0.45v-0.24c0,0,0-0.01,0-0.01v-3.81c0-0.46-0.23-0.7-0.68-0.7H52.14v-3.88h7.58
					c0.21,0,0.37-0.07,0.48-0.2c0.11-0.13,0.17-0.27,0.17-0.41v-3.28c0-0.21-0.06-0.36-0.19-0.45c-0.13-0.09-0.28-0.14-0.48-0.14
					h-5.88l-7.54,1.89V54.81z"/>
			</g>
		</g>
	</g>
</g>
</svg>
