<?xml version="1.0" encoding="utf-8"?>
<!-- Generator: Adobe Illustrator 24.3.0, SVG Export Plug-In . SVG Version: 6.00 Build 0)  -->
<svg version="1.1" id="Calque_1" xmlns="http://www.w3.org/2000/svg" xmlns:xlink="http://www.w3.org/1999/xlink" x="0px" y="0px"
	 viewBox="0 0 191.2 100.6" style="enable-background:new 0 0 191.2 100.6;" xml:space="preserve">
<style type="text/css">
	.st0{fill:#FFFFFF;}
	.st1{fill:#F3F4F6;}
	.st2{clip-path:url(#SVGID_4_);}
	.st3{fill:#130623;}
	.st4{fill:url(#SVGID_7_);}
	.st5{fill:#061326;}
	.st6{fill:#FEFEFE;}
	.st7{fill:#CD4054;}
	.st8{fill:url(#SVGID_8_);}
	.st9{fill:url(#SVGID_9_);}
	.st10{fill:url(#SVGID_10_);}
	.st11{clip-path:url(#SVGID_14_);}
	.st12{fill:url(#SVGID_17_);}
	.st13{fill:url(#SVGID_18_);}
	.st14{clip-path:url(#SVGID_22_);}
	.st15{clip-path:url(#SVGID_26_);}
	.st16{fill:url(#SVGID_29_);}
	.st17{fill:url(#SVGID_30_);}
	.st18{fill:url(#SVGID_31_);}
	.st19{fill:url(#SVGID_32_);}
</style>
<g>
	<defs>
		<rect id="SVGID_1_" x="-1493.3" y="257.3" width="1893.6" height="976.8"/>
	</defs>
	<clipPath id="SVGID_2_">
		<use xlink:href="#SVGID_1_"  style="overflow:visible;"/>
	</clipPath>
	<g style="clip-path:url(#SVGID_2_);">
		
			<image style="overflow:visible;" width="3840" height="3000" xlink:href="B60EA990.jpg"  transform="matrix(1 0 0 1 -3422.7639 -1737.1471)">
		</image>
	</g>
</g>
<g>
	<defs>
		<rect id="SVGID_3_" x="-1091.5" y="373.5" width="753.6" height="848"/>
	</defs>
	<clipPath id="SVGID_4_">
		<use xlink:href="#SVGID_3_"  style="overflow:visible;"/>
	</clipPath>
	<g class="st2">
		<defs>
			<rect id="SVGID_5_" x="-1376.5" y="234.9" width="1893.6" height="976.8"/>
		</defs>
		<clipPath id="SVGID_6_">
			<use xlink:href="#SVGID_5_"  style="overflow:visible;"/>
		</clipPath>
		<g style="clip-path:url(#SVGID_6_);">
			
				<image style="overflow:visible;" width="3840" height="3000" xlink:href="B60EA991.jpg"  transform="matrix(1 0 0 1 -3305.9639 -1759.5471)">
			</image>
		</g>
	</g>
</g>
<g>
	<g>
		
			<radialGradient id="SVGID_7_" cx="311.8731" cy="47.9551" r="42.7185" gradientTransform="matrix(0.8763 -0.4817 0.4817 0.8763 -177.9615 161.112)" gradientUnits="userSpaceOnUse">
			<stop  offset="0" style="stop-color:#FF00DC"/>
			<stop  offset="1" style="stop-color:#7F0094"/>
		</radialGradient>
		<path class="st4" d="M185.7,52.2c-2.6-4.1-6.1-7.5-10.4-10.2c-0.8-0.5-1.5-1-2.3-1.4c-2.2-1.2-4.5-2.3-6.9-3.3
			c-1.8-0.8-3.6-1.7-5.4-2.6c-0.9-0.5-1.8-0.9-2.6-1.5c-2.2-1.5-4.5-2.9-6.5-4.7c-1.5-1.1-2.8-2.4-4.1-3.6c-2.3-2.3-4.5-4.8-6.4-7.3
			c-0.7-0.9-1.6-1.4-2.8-1.3c-1.3,0.1-2,0.9-2.4,1.9c-0.8,1.7-1.6,3.3-2.5,4.9c-4.3,7.5-10,14-17.3,19.4c-3,2.2-5.9,4.4-8.4,7
			c-2.7,2.8-4.9,5.9-6.6,9.3c-1,2-1.9,4-2.1,6.2h0c-0.1,0.1-0.1,0.3-0.2,0.4C98,69,98,72.6,99,76.3c1.3,5.2,4.1,9.6,8.4,13.2
			c0.1,0.2,0.4,0.4,0.6,0.5c0.9,0.6,1.8,1.2,2.6,1.9c0.1,0.1,0.2,0.2,0.4,0.3c5.1,3.3,10.9,5.2,17.1,6.2c10.6,1.6,21.2,0.8,31.5-2
			c7-1.9,13.4-4.8,18.9-9.3C190.2,77.7,193,64,185.7,52.2z"/>
		<path class="st5" d="M147.2,100.1c-6.6,0.7-13.1,0.6-19.4-0.4c-6.7-1-12.6-3.2-17.6-6.4c-0.2-0.1-0.3-0.2-0.4-0.3
			c0,0-0.1,0-0.1-0.1l0,0c-0.7-0.6-1.5-1.2-2.5-1.8c-0.3-0.2-0.6-0.4-0.9-0.8c-4.4-3.7-7.3-8.3-8.7-13.8c-1-3.9-1.1-7.8-0.2-11.7
			c0-0.2,0.1-0.4,0.2-0.5c0.3-2.4,1.3-4.6,2.3-6.5c1.6-3.4,3.9-6.6,6.8-9.6c2.6-2.7,5.7-5,8.6-7.1c6.9-5,12.6-11.4,16.9-18.9
			c0.9-1.6,1.7-3.2,2.4-4.8c0.7-1.6,1.9-2.5,3.6-2.7c0,0,0,0,0,0c1.1-0.1,2.8,0.1,4.1,1.9c1.9,2.5,4,4.9,6.3,7.2
			c1.1,1.1,2.5,2.4,4,3.5l0.1,0.1c1.6,1.4,3.4,2.6,5.3,3.9c0.3,0.2,0.7,0.4,1,0.7c0.5,0.3,1.1,0.6,1.7,1c0.3,0.1,0.5,0.3,0.8,0.4
			c0.5,0.3,1.1,0.5,1.6,0.8c1.2,0.6,2.5,1.2,3.7,1.8c2.3,1,4.7,2.1,7,3.4c0.6,0.3,1.1,0.7,1.7,1c0.2,0.2,0.5,0.3,0.7,0.5
			c4.5,2.9,8.2,6.5,10.8,10.7l0,0c3.8,6.1,5.1,12.8,3.7,19.3c-1.4,6.5-5.2,12.5-11.3,17.3c-5.4,4.3-11.9,7.5-19.4,9.5
			C155.7,98.8,151.5,99.6,147.2,100.1z M111.5,90.7c0,0,0.1,0.1,0.1,0.1c0,0,0.1,0.1,0.1,0.1c4.7,3,10.3,5,16.5,6
			c10,1.5,20.4,0.9,31-2c7.2-2,13.2-4.9,18.3-9c11.1-8.9,13.8-21.8,6.9-32.9l0,0c-2.4-3.8-5.7-7.1-9.9-9.8c-0.2-0.2-0.5-0.3-0.7-0.5
			c-0.5-0.3-1-0.6-1.5-0.9c-2.2-1.2-4.5-2.3-6.8-3.2c-1.3-0.6-2.6-1.2-3.8-1.8c-0.5-0.3-1.1-0.5-1.6-0.8l-0.1,0
			c-0.3-0.2-0.5-0.3-0.8-0.4c-0.6-0.3-1.2-0.7-1.9-1.1c-0.3-0.2-0.7-0.4-1-0.7c-1.9-1.2-3.9-2.5-5.6-4.1c-1.6-1.2-3-2.6-4.2-3.7
			c-2.4-2.3-4.6-4.8-6.6-7.5c-0.5-0.7-1-0.8-1.5-0.7c-0.5,0.1-0.9,0.3-1.3,1.1c-0.8,1.7-1.6,3.4-2.6,5c-4.5,7.9-10.5,14.6-17.7,19.8
			c-2.8,2-5.7,4.2-8.2,6.8c-2.7,2.8-4.8,5.8-6.3,8.9c-0.9,1.8-1.8,3.7-2,5.8l0,0.2l-0.1,0.2c0,0.1-0.1,0.1-0.1,0.2c0,0,0,0.1,0,0.1
			c-0.7,3.4-0.7,6.9,0.2,10.3c1.3,4.9,3.9,9.1,7.9,12.4l0.2,0.2l0.1,0.1c0,0,0,0,0,0l0.1,0l0.1,0.1
			C109.8,89.5,110.7,90.1,111.5,90.7z M108.5,88.6L108.5,88.6L108.5,88.6z"/>
		<path class="st6" d="M156.3,68c-6.2,0-12.2-7.1-8.8-14.1c3.2-5.4,10.1-5.6,14.3-1.9c0.2,0.2,0.4,0.3,0.6,0.5
			c1.5,1.7,2.6,3.6,2.8,5.9c0.5,4.9-2.7,9-7.7,9.5C157.1,67.9,156.7,67.9,156.3,68z"/>
		<path class="st5" d="M157.7,68.6C157.6,68.6,157.6,68.6,157.7,68.6c-0.3,0-0.6,0.1-0.9,0.1l-0.5,0c-3.5,0-7-2.1-8.9-5.2
			c-1.9-3.1-2.1-6.7-0.5-9.9l0-0.1c1.5-2.5,3.9-4.2,6.7-4.6c3-0.5,6.3,0.5,8.6,2.5c0.1,0.1,0.3,0.2,0.4,0.3c0.1,0.1,0.1,0.1,0.2,0.2
			l0,0l0,0c1.8,2.1,2.7,4.1,3,6.3c0.3,2.6-0.4,5.1-2,7C162.4,67.1,160.2,68.3,157.7,68.6z M156.3,67.2l0.4,0c0.3,0,0.5,0,0.8-0.1
			c0,0,0,0,0,0c2.2-0.2,4.1-1.2,5.4-2.8c1.3-1.6,1.9-3.7,1.6-5.9c-0.2-1.9-1-3.6-2.6-5.5c0,0-0.1-0.1-0.1-0.1
			c-0.2-0.1-0.3-0.2-0.5-0.4c-2.1-1.8-4.9-2.6-7.5-2.2c-2.4,0.4-4.4,1.8-5.7,3.9c-1.4,2.8-1.2,5.8,0.4,8.5
			C150.3,65.4,153.3,67.2,156.3,67.2z"/>
		<path class="st6" d="M139.2,58.5c0.6,3.3,0,6.3-2.2,8.9c-3,3.4-6.7,4.3-11,2.9c-4.6-2.2-6.3-7.5-4.1-12.2
			c1.8-3.9,6.6-7.3,12.3-5.3C136.9,53.8,138.3,55.9,139.2,58.5z"/>
		<path class="st5" d="M130.9,71.5c-1.6,0.2-3.2,0-5-0.6l-0.1,0c-4.9-2.4-6.8-8.1-4.5-13.2c2-4.4,7.2-7.7,13.2-5.7l0,0
			c2.6,1.1,4.3,3.1,5.4,6.2l0,0.1c0.7,3.7-0.1,6.9-2.4,9.5C135.6,70,133.4,71.3,130.9,71.5z M126.3,69.6c4.1,1.3,7.4,0.4,10.2-2.7
			c2-2.2,2.7-5,2-8.2c-0.9-2.7-2.4-4.4-4.6-5.3c-5.2-1.7-9.6,1.2-11.4,5C120.6,62.7,122.2,67.5,126.3,69.6z"/>
		<path class="st5" d="M155.8,58.2c0.2,2.1-1.2,3.8-3.3,4.1c-2.3,0.3-4.5-1.5-4.7-3.8c-0.2-2.1,1.2-3.8,3.3-4.1
			C153.4,54.1,155.6,55.9,155.8,58.2z"/>
		<path class="st5" d="M130.1,60.4c0.3,2.3-1.5,4.5-3.8,4.7c-2.1,0.2-3.8-1.2-4.1-3.2c-0.3-2.3,1.5-4.5,3.8-4.8
			C128.1,56.9,129.9,58.3,130.1,60.4z"/>
		<g>
			<path class="st5" d="M171.4,67.6c-1.7-1.3-4-1.2-5.6,0.3c-1,1-2,2-3.1,2.8c-4.9,3.9-10.4,6.3-16.6,7c-1.6,0.2-1.3,0.3-4.5,0.4
				s-11.9-1.3-17.2-4.3c-1.2-0.7-2.2-1.6-3.6-1.8c-2-0.1-3.5,0.6-4.4,2.4c-0.8,1.7-0.5,3.3,0.7,4.8c0.4,0.3,0.8,0.7,1.2,1
				c1.5,0.8,3,1.8,4.6,2.5c8.8,4.2,18.1,5,27.6,3c8-1.7,15-5.3,20.8-11.2c0.5-0.5,1-0.9,1.2-1.6c0,0,0,0,0,0c0,0,0,0,0,0
				C173.6,71.1,173.1,68.9,171.4,67.6z"/>
			<path class="st7" d="M166,78.2c-0.2-2.3-2.6-4.1-6.3-5.3c-4.1,2.6-8.6,4.2-13.5,4.8c-1.6,0.2-1.3,0.3-4.5,0.4
				c-2.2,0.1-7.2-0.6-11.8-2.1c-3.4,1.9-5.4,4.3-5.2,6.6c0,0.3,0.1,0.6,0.2,0.9c8.2,3.4,16.8,4,25.6,2.2c5.7-1.2,10.8-3.4,15.4-6.6
				C166,78.9,166,78.5,166,78.2z"/>
			<path class="st5" d="M130,77.5c4.7,1.4,9.5,2.1,11.8,1.9c1.5-0.1,2.3-0.1,2.8-0.2c0.4,0,0.6-0.1,1-0.1c0.2,0,0.4-0.1,0.7-0.1
				c4.8-0.6,9.3-2.1,13.5-4.7c3,1,4.7,2.5,4.9,4c0,0,0,0.1,0,0.1c-4.3,2.9-9.2,5-14.5,6.1c-1.5,0.3-3.1,0.6-4.6,0.7
				c-6.9,0.8-13.5-0.1-19.7-2.6c0,0,0-0.1,0-0.1C125.7,81,127.2,79.2,130,77.5 M129.9,76.2c-3.4,1.9-5.4,4.3-5.2,6.6
				c0,0.3,0.1,0.6,0.2,0.9c6.8,2.8,13.7,3.7,20.9,2.9c1.6-0.2,3.1-0.4,4.7-0.8c5.7-1.2,10.8-3.4,15.4-6.6c0-0.3,0.1-0.6,0-0.9
				c-0.2-2.3-2.6-4.1-6.3-5.3c-4.1,2.6-8.6,4.2-13.5,4.8c-0.8,0.1-1.1,0.2-1.7,0.2c-0.5,0.1-1.2,0.1-2.8,0.2
				C139.5,78.3,134.5,77.7,129.9,76.2L129.9,76.2z"/>
		</g>
		<ellipse transform="matrix(0.6825 -0.7309 0.7309 0.6825 -6.3283 99.3304)" class="st6" cx="111.2" cy="56.9" rx="5.1" ry="2"/>
		<ellipse transform="matrix(0.6825 -0.7309 0.7309 0.6825 1.0842 101.4438)" class="st6" cx="117.3" cy="49.5" rx="3.3" ry="1.1"/>
	</g>
	<g>
		
			<radialGradient id="SVGID_8_" cx="-60.9142" cy="-41.8897" r="49.029" gradientTransform="matrix(0.9709 0.2394 -0.2394 0.9709 91.4115 92.6576)" gradientUnits="userSpaceOnUse">
			<stop  offset="0" style="stop-color:#4ACCFF"/>
			<stop  offset="1" style="stop-color:#1579FF"/>
		</radialGradient>
		<path class="st8" d="M102.3,57.9c-1.1-5.3-3.5-10.3-7-14.8c-0.6-0.8-1.2-1.6-1.8-2.4c-1.9-2.2-3.9-4.2-6-6.1
			c-1.6-1.6-3.1-3.2-4.7-4.8c-0.7-0.9-1.5-1.7-2.1-2.6c-1.8-2.4-3.7-4.8-5.1-7.4c-1.1-1.7-2.1-3.6-2.9-5.4
			c-1.6-3.3-2.9-6.7-3.9-10.2C68.4,3,67.7,2,66.3,1.7c-1.4-0.3-2.4,0.2-3.3,1.1c-1.4,1.5-3,2.9-4.5,4.2c-7.4,6.3-15.9,11-25.7,13.7
			c-4,1.1-7.9,2.3-11.5,4.1c-3.9,1.9-7.5,4.3-10.5,7.2c-1.8,1.7-3.5,3.5-4.7,5.7l0,0C6,37.9,5.9,38,5.8,38.1
			c-2.3,3.6-3.6,7.5-4,11.7c-0.6,6,0.6,11.7,3.8,17.1c0,0.3,0.2,0.5,0.4,0.8c0.7,1,1.4,2,2,3c0.1,0.2,0.2,0.3,0.3,0.5
			c4.2,5.4,9.5,9.7,15.6,13.1c10.6,5.8,22,9,34,10c8.1,0.7,15.9,0.1,23.4-2.5C97.3,86.4,105.6,73.1,102.3,57.9z"/>
		<path class="st5" d="M43.4,93.5c-7.2-1.8-14-4.4-20.3-7.9C16.5,82,11.1,77.4,7,72.1c-0.1-0.2-0.2-0.3-0.3-0.5c0,0,0-0.1-0.1-0.1
			l0,0c-0.5-0.9-1.2-1.8-1.9-2.8C4.5,68.4,4.2,68,4,67.5c-3.2-5.6-4.5-11.6-3.9-17.9c0.5-4.5,1.9-8.6,4.3-12.4
			c0.1-0.2,0.3-0.3,0.4-0.5c1.3-2.4,3.2-4.3,4.9-5.9c3-2.9,6.7-5.4,10.9-7.5c3.8-1.9,7.9-3.1,11.8-4.2C41.5,16.5,50,12,57.4,5.7
			c1.5-1.3,3-2.7,4.4-4.1c1.4-1.4,3-1.9,4.8-1.5c0,0,0,0,0,0c1.2,0.3,2.9,1.2,3.6,3.5c1,3.4,2.3,6.8,3.9,10c0.8,1.6,1.7,3.5,2.8,5.2
			L77,19c1.1,2.1,2.6,4.1,4.1,6.1c0.3,0.4,0.5,0.7,0.8,1.1c0.4,0.6,0.9,1.1,1.4,1.7c0.2,0.3,0.4,0.5,0.7,0.8c0.5,0.5,0.9,1,1.4,1.5
			c1,1.1,2.1,2.2,3.2,3.3c2,1.9,4.2,4,6.1,6.3c0.5,0.6,0.9,1.2,1.4,1.7c0.2,0.2,0.4,0.5,0.6,0.7c3.7,4.8,6.1,10,7.3,15.4l0,0
			c1.7,7.9,0.5,15.4-3.5,21.8C96.4,85.7,90,90.6,81.8,93.3c-7.3,2.5-15.4,3.3-24.1,2.5C52.8,95.4,48,94.6,43.4,93.5z M9.4,69.8
			c0,0.1,0.1,0.1,0.1,0.2c0,0,0.1,0.1,0.1,0.1c3.8,5,8.9,9.2,15.1,12.6c9.9,5.5,21.1,8.8,33.4,9.9c8.4,0.7,15.8,0,22.8-2.4
			c15.2-5.1,23-17.7,19.9-32l0,0c-1.1-5-3.3-9.7-6.7-14.1c-0.2-0.3-0.4-0.5-0.6-0.8c-0.4-0.5-0.8-1.1-1.2-1.5
			c-1.8-2.1-3.9-4.1-5.9-6c-1.2-1.1-2.3-2.3-3.3-3.4c-0.5-0.5-0.9-1-1.4-1.5l-0.1-0.1c-0.2-0.3-0.4-0.5-0.7-0.8
			c-0.5-0.6-1-1.2-1.5-1.9c-0.3-0.4-0.5-0.7-0.8-1.1c-1.5-2-3.1-4.2-4.3-6.5c-1.2-1.9-2.2-3.9-3-5.5c-1.6-3.4-2.9-6.9-4-10.4
			c-0.3-0.9-0.7-1.2-1.3-1.4c-0.6-0.1-1.1-0.1-1.8,0.6c-1.5,1.5-3,2.9-4.6,4.3c-7.8,6.6-16.6,11.3-26.3,14c-3.7,1.1-7.7,2.2-11.2,4
			c-3.9,1.9-7.3,4.3-10.1,6.9c-1.6,1.6-3.3,3.2-4.3,5.3l-0.1,0.2l-0.1,0.1c0,0.1-0.1,0.1-0.2,0.2c0,0,0,0-0.1,0.1
			C5,42.3,3.8,46,3.4,49.9C2.8,55.6,4,61.1,6.9,66.1l0.2,0.3l0,0.2c0,0,0,0,0,0l0.1,0.1l0.1,0.1C8.1,67.8,8.7,68.8,9.4,69.8z
			 M7.1,66.5L7.1,66.5L7.1,66.5z"/>
		<path class="st6" d="M65.3,63.2c-6.5-2.4-10.2-12.1-3.8-18.3c5.4-4.4,12.8-2,15.8,3.5c0.1,0.3,0.3,0.5,0.5,0.8
			c0.9,2.4,1.3,4.8,0.7,7.3c-1.3,5.4-6.4,8.4-11.8,7.1C66.2,63.4,65.8,63.3,65.3,63.2z"/>
		<path class="st5" d="M66.5,64.3C66.5,64.3,66.5,64.3,66.5,64.3c-0.4-0.1-0.7-0.2-1-0.3l-0.5-0.1c-3.6-1.3-6.5-4.9-7.4-9
			c-0.8-4,0.4-7.8,3.3-10.6l0,0c2.6-2.1,5.7-2.9,8.9-2.3c3.4,0.7,6.4,2.9,8.1,6c0.1,0.2,0.2,0.3,0.3,0.5c0.1,0.1,0.1,0.2,0.2,0.3
			l0,0.1l0,0.1c1.1,2.9,1.3,5.3,0.7,7.8c-0.7,2.8-2.4,5.2-4.7,6.6C72.1,64.6,69.3,65,66.5,64.3z M65.6,62.4l0.4,0.1
			c0.3,0.1,0.6,0.2,0.9,0.2c0,0,0,0,0,0c2.4,0.6,4.8,0.3,6.7-0.9c2-1.2,3.4-3.2,4-5.6c0.5-2.1,0.3-4.2-0.6-6.7
			c0-0.1-0.1-0.1-0.1-0.2c-0.1-0.2-0.2-0.4-0.3-0.6c-1.5-2.7-4.1-4.6-7-5.2c-2.7-0.5-5.3,0.2-7.5,1.9c-2.5,2.4-3.5,5.7-2.8,9.1
			C60,58.2,62.5,61.2,65.6,62.4z"/>
		<path class="st6" d="M51,46.6c-0.6,3.7-2.4,6.7-5.7,8.5c-4.5,2.4-8.7,2-12.7-1.2c-3.9-4.1-3.8-10.4,0.4-14.5
			c3.4-3.4,9.7-5.1,15-0.9C50.3,40.7,51.1,43.5,51,46.6z"/>
		<path class="st5" d="M37.2,57.1c-1.7-0.4-3.4-1.3-5-2.6L32,54.5C27.8,50,28,43.3,32.4,38.8c3.8-3.8,10.6-5.4,16.1-0.9l0,0
			c2.3,2.1,3.4,5,3.3,8.6l0,0.1c-0.7,4.2-2.7,7.2-6.1,9.1C42.8,57.3,39.9,57.8,37.2,57.1z M33.2,53.3c3.8,2.9,7.6,3.3,11.7,1
			c2.9-1.6,4.7-4.2,5.3-7.9c0.1-3.2-0.8-5.5-2.8-7.3c-4.8-3.8-10.6-2.5-13.9,0.8C29.7,43.8,29.6,49.5,33.2,53.3z"/>
		<path class="st5" d="M77.1,54.6c-0.6,2.3-2.7,3.6-5,3c-2.5-0.6-4.2-3.3-3.5-5.8c0.6-2.3,2.8-3.6,5-3C76.1,49.4,77.7,52,77.1,54.6z
			"/>
		<path class="st5" d="M49.2,47c-0.6,2.5-3.3,4.2-5.8,3.5c-2.3-0.6-3.6-2.7-3-5c0.6-2.5,3.3-4.2,5.8-3.5
			C48.4,42.5,49.7,44.7,49.2,47z"/>
		<g>
			<path class="st5" d="M81.4,68.6c-1.3-2-3.8-2.8-6-1.8c-1.4,0.6-2.8,1.3-4.3,1.8c-6.6,2.2-13.3,2.6-20.2,1
				c-1.8-0.4-1.5-0.2-4.9-1.3s-12-5.9-16.4-11.2c-1-1.2-1.7-2.5-3.1-3.3c-2-0.8-4-0.7-5.6,0.9c-1.5,1.5-1.8,3.3-1.1,5.3
				c0.3,0.5,0.6,1,0.8,1.5c1.3,1.5,2.5,3,3.8,4.4c7.7,7.8,17.1,12.3,27.9,13.8c9.1,1.3,17.9,0.2,26.2-3.7c0.7-0.3,1.4-0.6,1.9-1.2
				c0,0,0,0,0,0c0,0,0,0,0,0C82.3,73.1,82.7,70.7,81.4,68.6z"/>
			<path class="st7" d="M71.6,77.7c0.6-2.5-1.2-5.3-4.6-8c-5.3,1.1-10.6,1.1-16.1-0.1c-1.8-0.4-1.5-0.2-4.9-1.3
				c-2.4-0.7-7.4-3.4-11.7-6.7c-4.4,0.7-7.4,2.4-8,4.9c-0.1,0.3-0.1,0.7-0.1,1c7.4,6.8,16.1,10.7,26.1,12.1c6.4,0.9,12.7,0.6,18.8-1
				C71.3,78.4,71.5,78,71.6,77.7z"/>
			<path class="st5" d="M34,63.1c4.3,3.3,9.2,5.8,11.6,6.6c1.7,0.5,2.5,0.7,3.1,0.9c0.4,0.1,0.7,0.2,1.1,0.2c0.2,0,0.5,0.1,0.8,0.2
				c5.3,1.3,10.7,1.4,16,0.3c2.7,2.2,4,4.4,3.6,6.2c0,0,0,0.1,0,0.1c-5.6,1.4-11.5,1.7-17.6,0.8c-1.7-0.3-3.5-0.6-5.1-1
				C39.9,75.5,33.3,72,27.7,67c0,0,0-0.1,0-0.1C28.1,65.1,30.4,63.7,34,63.1 M34.3,61.6c-4.4,0.7-7.4,2.4-8,4.9
				c-0.1,0.3-0.1,0.7-0.1,1c6,5.6,13,9.2,20.9,11.1c1.7,0.4,3.5,0.8,5.3,1c6.4,0.9,12.7,0.6,18.8-1c0.2-0.3,0.3-0.6,0.4-1
				c0.6-2.5-1.2-5.3-4.6-8c-5.3,1.1-10.6,1.1-16.1-0.1c-0.9-0.2-1.3-0.3-1.9-0.4c-0.6-0.1-1.3-0.4-3-0.9
				C43.6,67.6,38.6,64.9,34.3,61.6L34.3,61.6z"/>
		</g>
		<ellipse transform="matrix(0.8922 -0.4516 0.4516 0.8922 -13.041 13.6373)" class="st6" cx="22" cy="34.1" rx="5.7" ry="2.3"/>
		<ellipse transform="matrix(0.8922 -0.4516 0.4516 0.8922 -9.5486 17.265)" class="st6" cx="31.4" cy="28.6" rx="3.7" ry="1.2"/>
	</g>
</g>
<g>
	<defs>
		<rect id="SVGID_11_" x="-1493.3" y="1346.9" width="1781" height="976.8"/>
	</defs>
	<clipPath id="SVGID_9_">
		<use xlink:href="#SVGID_11_"  style="overflow:visible;"/>
	</clipPath>
	<g style="clip-path:url(#SVGID_9_);">
		
			<image style="overflow:visible;" width="3840" height="3000" xlink:href="B60EA997.jpg"  transform="matrix(1 0 0 1 -3422.7639 -647.5471)">
		</image>
	</g>
</g>
<g>
	<defs>
		<rect id="SVGID_13_" x="-1240.3" y="1463.1" width="753.6" height="848"/>
	</defs>
	<clipPath id="SVGID_10_">
		<use xlink:href="#SVGID_13_"  style="overflow:visible;"/>
	</clipPath>
	<g style="clip-path:url(#SVGID_10_);">
		<defs>
			<rect id="SVGID_15_" x="-1525.3" y="1324.5" width="1893.6" height="976.8"/>
		</defs>
		<clipPath id="SVGID_12_">
			<use xlink:href="#SVGID_15_"  style="overflow:visible;"/>
		</clipPath>
		<g style="clip-path:url(#SVGID_12_);">
			
				<image style="overflow:visible;" width="3840" height="3000" xlink:href="B60EA992.jpg"  transform="matrix(1 0 0 1 -3454.7639 -669.9471)">
			</image>
		</g>
	</g>
</g>
</svg>
